<svg width="1580" height="908" viewBox="0 0 1580 908" fill="none" xmlns="http://www.w3.org/2000/svg">
<rect width="1580" height="908" fill="white"/>
<rect x="23" y="22" width="1536" height="864" rx="10" fill="#EBDFD7"/>
<rect x="22" y="22" width="1536" height="118" rx="10" fill="#060606"/>
<rect x="37" y="156" width="1506" height="350" rx="14" fill="white"/>
<rect x="761" y="521" width="782" height="350" rx="14" fill="white"/>
<path d="M783.625 543.42C783.564 542.883 783.314 542.466 782.875 542.17C782.436 541.871 781.883 541.722 781.216 541.722C780.739 541.722 780.326 541.797 779.977 541.949C779.629 542.097 779.358 542.301 779.165 542.562C778.975 542.82 778.881 543.114 778.881 543.443C778.881 543.72 778.945 543.958 779.074 544.159C779.206 544.36 779.379 544.528 779.591 544.665C779.807 544.797 780.038 544.909 780.284 545C780.53 545.087 780.767 545.159 780.994 545.216L782.131 545.511C782.502 545.602 782.883 545.725 783.273 545.881C783.663 546.036 784.025 546.241 784.358 546.494C784.691 546.748 784.96 547.062 785.165 547.438C785.373 547.812 785.477 548.261 785.477 548.784C785.477 549.443 785.307 550.028 784.966 550.54C784.629 551.051 784.138 551.455 783.494 551.75C782.854 552.045 782.08 552.193 781.17 552.193C780.299 552.193 779.545 552.055 778.909 551.778C778.273 551.502 777.775 551.11 777.415 550.602C777.055 550.091 776.856 549.485 776.818 548.784H778.58C778.614 549.205 778.75 549.555 778.989 549.835C779.231 550.112 779.54 550.318 779.915 550.455C780.294 550.587 780.708 550.653 781.159 550.653C781.655 550.653 782.097 550.576 782.483 550.42C782.873 550.261 783.18 550.042 783.403 549.761C783.627 549.477 783.739 549.146 783.739 548.767C783.739 548.422 783.64 548.14 783.443 547.92C783.25 547.701 782.987 547.519 782.653 547.375C782.324 547.231 781.951 547.104 781.534 546.994L780.159 546.619C779.227 546.366 778.489 545.992 777.943 545.5C777.402 545.008 777.131 544.356 777.131 543.545C777.131 542.875 777.313 542.29 777.676 541.79C778.04 541.29 778.532 540.902 779.153 540.625C779.775 540.345 780.475 540.205 781.256 540.205C782.044 540.205 782.739 540.343 783.341 540.619C783.947 540.896 784.424 541.277 784.773 541.761C785.121 542.242 785.303 542.795 785.318 543.42H783.625ZM789.298 546.818V552H787.599V540.364H789.275V544.693H789.383C789.588 544.223 789.9 543.85 790.321 543.574C790.741 543.297 791.29 543.159 791.968 543.159C792.567 543.159 793.089 543.282 793.536 543.528C793.987 543.775 794.336 544.142 794.582 544.631C794.832 545.116 794.957 545.722 794.957 546.449V552H793.258V546.653C793.258 546.013 793.093 545.517 792.764 545.165C792.434 544.809 791.976 544.631 791.389 544.631C790.987 544.631 790.627 544.716 790.309 544.886C789.995 545.057 789.747 545.307 789.565 545.636C789.387 545.962 789.298 546.356 789.298 546.818ZM797.384 552V543.273H799.083V552H797.384ZM798.242 541.926C797.946 541.926 797.693 541.828 797.481 541.631C797.272 541.43 797.168 541.191 797.168 540.915C797.168 540.634 797.272 540.396 797.481 540.199C797.693 539.998 797.946 539.898 798.242 539.898C798.537 539.898 798.789 539.998 798.998 540.199C799.21 540.396 799.316 540.634 799.316 540.915C799.316 541.191 799.21 541.43 798.998 541.631C798.789 541.828 798.537 541.926 798.242 541.926ZM805.682 543.273V544.636H800.75V543.273H805.682ZM802.102 552V542.261C802.102 541.716 802.221 541.263 802.46 540.903C802.699 540.54 803.015 540.269 803.409 540.091C803.803 539.909 804.231 539.818 804.693 539.818C805.034 539.818 805.326 539.847 805.568 539.903C805.81 539.956 805.99 540.006 806.108 540.051L805.71 541.426C805.631 541.403 805.528 541.377 805.403 541.347C805.278 541.312 805.127 541.295 804.949 541.295C804.536 541.295 804.24 541.398 804.062 541.602C803.888 541.807 803.801 542.102 803.801 542.489V552H802.102ZM811.668 543.273V544.636H806.901V543.273H811.668ZM808.18 541.182H809.879V549.438C809.879 549.767 809.928 550.015 810.026 550.182C810.125 550.345 810.252 550.456 810.407 550.517C810.566 550.574 810.738 550.602 810.924 550.602C811.06 550.602 811.18 550.593 811.282 550.574C811.384 550.555 811.464 550.54 811.521 550.528L811.827 551.932C811.729 551.97 811.589 552.008 811.407 552.045C811.225 552.087 810.998 552.11 810.725 552.114C810.278 552.121 809.862 552.042 809.475 551.875C809.089 551.708 808.776 551.451 808.538 551.102C808.299 550.754 808.18 550.316 808.18 549.79V541.182ZM821.369 552.17C820.665 552.17 820.036 551.991 819.483 551.631C818.933 551.267 818.502 550.75 818.187 550.08C817.877 549.405 817.721 548.597 817.721 547.653C817.721 546.71 817.879 545.903 818.193 545.233C818.511 544.562 818.947 544.049 819.5 543.693C820.053 543.337 820.68 543.159 821.38 543.159C821.922 543.159 822.358 543.25 822.687 543.432C823.021 543.61 823.278 543.818 823.46 544.057C823.646 544.295 823.79 544.506 823.892 544.688H823.994V540.364H825.693V552H824.034V550.642H823.892C823.79 550.828 823.642 551.04 823.449 551.278C823.259 551.517 822.998 551.725 822.665 551.903C822.331 552.081 821.899 552.17 821.369 552.17ZM821.744 550.722C822.233 550.722 822.646 550.593 822.983 550.335C823.324 550.074 823.581 549.712 823.755 549.25C823.933 548.788 824.022 548.25 824.022 547.636C824.022 547.03 823.935 546.5 823.761 546.045C823.587 545.591 823.331 545.237 822.994 544.983C822.657 544.729 822.24 544.602 821.744 544.602C821.233 544.602 820.807 544.735 820.466 545C820.125 545.265 819.867 545.627 819.693 546.085C819.522 546.544 819.437 547.061 819.437 547.636C819.437 548.22 819.524 548.744 819.699 549.21C819.873 549.676 820.13 550.045 820.471 550.318C820.816 550.587 821.24 550.722 821.744 550.722ZM828.278 552V543.273H829.977V552H828.278ZM829.136 541.926C828.84 541.926 828.586 541.828 828.374 541.631C828.166 541.43 828.062 541.191 828.062 540.915C828.062 540.634 828.166 540.396 828.374 540.199C828.586 539.998 828.84 539.898 829.136 539.898C829.431 539.898 829.683 539.998 829.891 540.199C830.103 540.396 830.209 540.634 830.209 540.915C830.209 541.191 830.103 541.43 829.891 541.631C829.683 541.828 829.431 541.926 829.136 541.926ZM838.962 545.403L837.422 545.676C837.358 545.479 837.255 545.292 837.115 545.114C836.979 544.936 836.793 544.79 836.558 544.676C836.324 544.562 836.03 544.506 835.678 544.506C835.197 544.506 834.795 544.614 834.473 544.83C834.151 545.042 833.99 545.316 833.99 545.653C833.99 545.945 834.098 546.18 834.314 546.358C834.53 546.536 834.878 546.682 835.36 546.795L836.746 547.114C837.549 547.299 838.147 547.585 838.541 547.972C838.935 548.358 839.132 548.86 839.132 549.477C839.132 550 838.981 550.466 838.678 550.875C838.378 551.28 837.96 551.598 837.422 551.83C836.888 552.061 836.269 552.176 835.564 552.176C834.587 552.176 833.789 551.968 833.172 551.551C832.555 551.131 832.176 550.534 832.036 549.761L833.678 549.511C833.78 549.939 833.99 550.263 834.308 550.483C834.627 550.699 835.041 550.807 835.553 550.807C836.11 550.807 836.555 550.691 836.888 550.46C837.221 550.225 837.388 549.939 837.388 549.602C837.388 549.33 837.286 549.1 837.081 548.915C836.88 548.729 836.572 548.589 836.155 548.494L834.678 548.17C833.863 547.985 833.261 547.689 832.871 547.284C832.485 546.879 832.291 546.366 832.291 545.744C832.291 545.229 832.435 544.778 832.723 544.392C833.011 544.006 833.409 543.705 833.916 543.489C834.424 543.269 835.005 543.159 835.661 543.159C836.604 543.159 837.346 543.364 837.888 543.773C838.43 544.178 838.788 544.722 838.962 545.403ZM845.234 543.273V544.636H840.467V543.273H845.234ZM841.745 541.182H843.444V549.438C843.444 549.767 843.494 550.015 843.592 550.182C843.69 550.345 843.817 550.456 843.973 550.517C844.132 550.574 844.304 550.602 844.49 550.602C844.626 550.602 844.745 550.593 844.848 550.574C844.95 550.555 845.029 550.54 845.086 550.528L845.393 551.932C845.295 551.97 845.154 552.008 844.973 552.045C844.791 552.087 844.564 552.11 844.291 552.114C843.844 552.121 843.427 552.042 843.041 551.875C842.654 551.708 842.342 551.451 842.103 551.102C841.865 550.754 841.745 550.316 841.745 549.79V541.182ZM847.273 552V543.273H848.915V544.659H849.006C849.165 544.189 849.446 543.82 849.847 543.551C850.252 543.278 850.711 543.142 851.222 543.142C851.328 543.142 851.453 543.146 851.597 543.153C851.745 543.161 851.86 543.17 851.944 543.182V544.807C851.876 544.788 851.754 544.767 851.58 544.744C851.406 544.718 851.232 544.705 851.057 544.705C850.656 544.705 850.298 544.79 849.984 544.96C849.673 545.127 849.427 545.36 849.245 545.659C849.063 545.955 848.972 546.292 848.972 546.67V552H847.273ZM853.574 552V543.273H855.273V552H853.574ZM854.432 541.926C854.136 541.926 853.883 541.828 853.671 541.631C853.462 541.43 853.358 541.191 853.358 540.915C853.358 540.634 853.462 540.396 853.671 540.199C853.883 539.998 854.136 539.898 854.432 539.898C854.727 539.898 854.979 539.998 855.188 540.199C855.4 540.396 855.506 540.634 855.506 540.915C855.506 541.191 855.4 541.43 855.188 541.631C854.979 541.828 854.727 541.926 854.432 541.926ZM857.855 552V540.364H859.554V544.688H859.656C859.754 544.506 859.896 544.295 860.082 544.057C860.268 543.818 860.525 543.61 860.855 543.432C861.184 543.25 861.62 543.159 862.161 543.159C862.866 543.159 863.495 543.337 864.048 543.693C864.601 544.049 865.035 544.562 865.349 545.233C865.667 545.903 865.826 546.71 865.826 547.653C865.826 548.597 865.669 549.405 865.355 550.08C865.04 550.75 864.608 551.267 864.059 551.631C863.51 551.991 862.883 552.17 862.179 552.17C861.648 552.17 861.215 552.081 860.877 551.903C860.544 551.725 860.283 551.517 860.093 551.278C859.904 551.04 859.758 550.828 859.656 550.642H859.514V552H857.855ZM859.519 547.636C859.519 548.25 859.608 548.788 859.786 549.25C859.965 549.712 860.222 550.074 860.559 550.335C860.896 550.593 861.309 550.722 861.798 550.722C862.305 550.722 862.73 550.587 863.071 550.318C863.411 550.045 863.669 549.676 863.843 549.21C864.021 548.744 864.11 548.22 864.11 547.636C864.11 547.061 864.023 546.544 863.849 546.085C863.679 545.627 863.421 545.265 863.076 545C862.735 544.735 862.309 544.602 861.798 544.602C861.305 544.602 860.889 544.729 860.548 544.983C860.211 545.237 859.955 545.591 859.781 546.045C859.607 546.5 859.519 547.03 859.519 547.636ZM873.422 548.381V543.273H875.127V552H873.456V550.489H873.366C873.165 550.955 872.843 551.343 872.4 551.653C871.96 551.96 871.413 552.114 870.758 552.114C870.197 552.114 869.701 551.991 869.269 551.744C868.841 551.494 868.504 551.125 868.258 550.636C868.015 550.148 867.894 549.544 867.894 548.824V543.273H869.593V548.619C869.593 549.214 869.758 549.687 870.087 550.04C870.417 550.392 870.845 550.568 871.371 550.568C871.689 550.568 872.006 550.489 872.32 550.33C872.638 550.17 872.901 549.93 873.11 549.608C873.322 549.286 873.426 548.877 873.422 548.381ZM881.643 543.273V544.636H876.876V543.273H881.643ZM878.155 541.182H879.854V549.438C879.854 549.767 879.903 550.015 880.001 550.182C880.1 550.345 880.227 550.456 880.382 550.517C880.541 550.574 880.713 550.602 880.899 550.602C881.035 550.602 881.155 550.593 881.257 550.574C881.359 550.555 881.439 550.54 881.496 550.528L881.802 551.932C881.704 551.97 881.564 552.008 881.382 552.045C881.2 552.087 880.973 552.11 880.7 552.114C880.253 552.121 879.837 552.042 879.45 551.875C879.064 551.708 878.751 551.451 878.513 551.102C878.274 550.754 878.155 550.316 878.155 549.79V541.182ZM883.683 552V543.273H885.382V552H883.683ZM884.541 541.926C884.245 541.926 883.991 541.828 883.779 541.631C883.571 541.43 883.467 541.191 883.467 540.915C883.467 540.634 883.571 540.396 883.779 540.199C883.991 539.998 884.245 539.898 884.541 539.898C884.836 539.898 885.088 539.998 885.296 540.199C885.508 540.396 885.614 540.634 885.614 540.915C885.614 541.191 885.508 541.43 885.296 541.631C885.088 541.828 884.836 541.926 884.541 541.926ZM891.503 552.176C890.685 552.176 889.971 551.989 889.361 551.614C888.751 551.239 888.278 550.714 887.941 550.04C887.604 549.366 887.435 548.578 887.435 547.676C887.435 546.771 887.604 545.979 887.941 545.301C888.278 544.623 888.751 544.097 889.361 543.722C889.971 543.347 890.685 543.159 891.503 543.159C892.321 543.159 893.035 543.347 893.645 543.722C894.255 544.097 894.729 544.623 895.066 545.301C895.403 545.979 895.571 546.771 895.571 547.676C895.571 548.578 895.403 549.366 895.066 550.04C894.729 550.714 894.255 551.239 893.645 551.614C893.035 551.989 892.321 552.176 891.503 552.176ZM891.509 550.75C892.039 550.75 892.479 550.61 892.827 550.33C893.176 550.049 893.433 549.676 893.6 549.21C893.77 548.744 893.855 548.231 893.855 547.67C893.855 547.114 893.77 546.602 893.6 546.136C893.433 545.667 893.176 545.29 892.827 545.006C892.479 544.722 892.039 544.58 891.509 544.58C890.975 544.58 890.532 544.722 890.179 545.006C889.831 545.29 889.571 545.667 889.401 546.136C889.234 546.602 889.151 547.114 889.151 547.67C889.151 548.231 889.234 548.744 889.401 549.21C889.571 549.676 889.831 550.049 890.179 550.33C890.532 550.61 890.975 550.75 891.509 550.75ZM899.327 546.818V552H897.628V543.273H899.258V544.693H899.366C899.567 544.231 899.881 543.86 900.309 543.58C900.741 543.299 901.285 543.159 901.94 543.159C902.535 543.159 903.056 543.284 903.503 543.534C903.95 543.78 904.296 544.148 904.542 544.636C904.789 545.125 904.912 545.729 904.912 546.449V552H903.213V546.653C903.213 546.021 903.048 545.527 902.719 545.17C902.389 544.811 901.936 544.631 901.361 544.631C900.967 544.631 900.616 544.716 900.309 544.886C900.006 545.057 899.766 545.307 899.588 545.636C899.414 545.962 899.327 546.356 899.327 546.818ZM911.881 552V540.364H913.58V544.688H913.682C913.781 544.506 913.923 544.295 914.108 544.057C914.294 543.818 914.551 543.61 914.881 543.432C915.21 543.25 915.646 543.159 916.188 543.159C916.892 543.159 917.521 543.337 918.074 543.693C918.627 544.049 919.061 544.562 919.375 545.233C919.693 545.903 919.852 546.71 919.852 547.653C919.852 548.597 919.695 549.405 919.381 550.08C919.067 550.75 918.635 551.267 918.085 551.631C917.536 551.991 916.909 552.17 916.205 552.17C915.674 552.17 915.241 552.081 914.904 551.903C914.57 551.725 914.309 551.517 914.12 551.278C913.93 551.04 913.784 550.828 913.682 550.642H913.54V552H911.881ZM913.546 547.636C913.546 548.25 913.635 548.788 913.813 549.25C913.991 549.712 914.248 550.074 914.585 550.335C914.923 550.593 915.335 550.722 915.824 550.722C916.332 550.722 916.756 550.587 917.097 550.318C917.438 550.045 917.695 549.676 917.87 549.21C918.048 548.744 918.137 548.22 918.137 547.636C918.137 547.061 918.049 546.544 917.875 546.085C917.705 545.627 917.447 545.265 917.102 545C916.762 544.735 916.335 544.602 915.824 544.602C915.332 544.602 914.915 544.729 914.574 544.983C914.237 545.237 913.981 545.591 913.807 546.045C913.633 546.5 913.546 547.03 913.546 547.636ZM922.697 555.273C922.443 555.273 922.212 555.252 922.004 555.21C921.796 555.172 921.64 555.131 921.538 555.085L921.947 553.693C922.258 553.777 922.534 553.813 922.777 553.801C923.019 553.79 923.233 553.699 923.419 553.528C923.608 553.358 923.775 553.08 923.919 552.693L924.129 552.114L920.936 543.273H922.754L924.964 550.045H925.055L927.265 543.273H929.089L925.493 553.165C925.326 553.619 925.114 554.004 924.856 554.318C924.599 554.636 924.292 554.875 923.936 555.034C923.58 555.193 923.167 555.273 922.697 555.273ZM935.24 552V543.273H936.871V544.693H936.979C937.161 544.212 937.458 543.837 937.871 543.568C938.284 543.295 938.778 543.159 939.354 543.159C939.937 543.159 940.426 543.295 940.82 543.568C941.217 543.841 941.511 544.216 941.7 544.693H941.791C942 544.227 942.331 543.856 942.786 543.58C943.24 543.299 943.782 543.159 944.411 543.159C945.202 543.159 945.848 543.407 946.348 543.903C946.852 544.4 947.104 545.148 947.104 546.148V552H945.405V546.307C945.405 545.716 945.244 545.288 944.922 545.023C944.6 544.758 944.216 544.625 943.769 544.625C943.216 544.625 942.786 544.795 942.479 545.136C942.172 545.473 942.019 545.907 942.019 546.438V552H940.325V546.199C940.325 545.725 940.178 545.345 939.882 545.057C939.587 544.769 939.202 544.625 938.729 544.625C938.407 544.625 938.109 544.71 937.837 544.881C937.568 545.047 937.35 545.28 937.183 545.58C937.02 545.879 936.939 546.225 936.939 546.619V552H935.24ZM953.217 552.176C952.399 552.176 951.685 551.989 951.075 551.614C950.465 551.239 949.992 550.714 949.654 550.04C949.317 549.366 949.149 548.578 949.149 547.676C949.149 546.771 949.317 545.979 949.654 545.301C949.992 544.623 950.465 544.097 951.075 543.722C951.685 543.347 952.399 543.159 953.217 543.159C954.035 543.159 954.749 543.347 955.359 543.722C955.969 544.097 956.442 544.623 956.779 545.301C957.117 545.979 957.285 546.771 957.285 547.676C957.285 548.578 957.117 549.366 956.779 550.04C956.442 550.714 955.969 551.239 955.359 551.614C954.749 551.989 954.035 552.176 953.217 552.176ZM953.223 550.75C953.753 550.75 954.192 550.61 954.541 550.33C954.889 550.049 955.147 549.676 955.314 549.21C955.484 548.744 955.569 548.231 955.569 547.67C955.569 547.114 955.484 546.602 955.314 546.136C955.147 545.667 954.889 545.29 954.541 545.006C954.192 544.722 953.753 544.58 953.223 544.58C952.689 544.58 952.245 544.722 951.893 545.006C951.545 545.29 951.285 545.667 951.115 546.136C950.948 546.602 950.865 547.114 950.865 547.67C950.865 548.231 950.948 548.744 951.115 549.21C951.285 549.676 951.545 550.049 951.893 550.33C952.245 550.61 952.689 550.75 953.223 550.75ZM961.04 546.818V552H959.341V543.273H960.972V544.693H961.08C961.281 544.231 961.595 543.86 962.023 543.58C962.455 543.299 962.999 543.159 963.654 543.159C964.249 543.159 964.769 543.284 965.216 543.534C965.663 543.78 966.01 544.148 966.256 544.636C966.502 545.125 966.626 545.729 966.626 546.449V552H964.927V546.653C964.927 546.021 964.762 545.527 964.432 545.17C964.103 544.811 963.65 544.631 963.074 544.631C962.68 544.631 962.33 544.716 962.023 544.886C961.72 545.057 961.48 545.307 961.302 545.636C961.127 545.962 961.04 546.356 961.04 546.818ZM973.138 543.273V544.636H968.371V543.273H973.138ZM969.649 541.182H971.348V549.438C971.348 549.767 971.397 550.015 971.496 550.182C971.594 550.345 971.721 550.456 971.876 550.517C972.036 550.574 972.208 550.602 972.393 550.602C972.53 550.602 972.649 550.593 972.751 550.574C972.854 550.555 972.933 550.54 972.99 550.528L973.297 551.932C973.198 551.97 973.058 552.008 972.876 552.045C972.695 552.087 972.467 552.11 972.195 552.114C971.748 552.121 971.331 552.042 970.945 551.875C970.558 551.708 970.246 551.451 970.007 551.102C969.768 550.754 969.649 550.316 969.649 549.79V541.182ZM977.063 546.818V552H975.365V540.364H977.041V544.693H977.149C977.353 544.223 977.666 543.85 978.086 543.574C978.507 543.297 979.056 543.159 979.734 543.159C980.332 543.159 980.855 543.282 981.302 543.528C981.753 543.775 982.101 544.142 982.348 544.631C982.598 545.116 982.723 545.722 982.723 546.449V552H981.024V546.653C981.024 546.013 980.859 545.517 980.529 545.165C980.2 544.809 979.741 544.631 979.154 544.631C978.753 544.631 978.393 544.716 978.075 544.886C977.76 545.057 977.512 545.307 977.33 545.636C977.152 545.962 977.063 546.356 977.063 546.818Z" fill="black"/>
<rect x="37" y="521" width="709" height="350" rx="14" fill="white"/>
<path d="M62.9432 544.148H61.1705C61.1023 543.769 60.9754 543.436 60.7898 543.148C60.6042 542.86 60.3769 542.616 60.108 542.415C59.839 542.214 59.5379 542.062 59.2045 541.96C58.875 541.858 58.5246 541.807 58.1534 541.807C57.483 541.807 56.8826 541.975 56.3523 542.312C55.8258 542.65 55.4091 543.144 55.1023 543.795C54.7992 544.447 54.6477 545.242 54.6477 546.182C54.6477 547.129 54.7992 547.928 55.1023 548.58C55.4091 549.231 55.8277 549.723 56.358 550.057C56.8883 550.39 57.4848 550.557 58.1477 550.557C58.5152 550.557 58.8636 550.508 59.1932 550.409C59.5265 550.307 59.8277 550.157 60.0966 549.96C60.3655 549.763 60.5928 549.523 60.7784 549.239C60.9678 548.951 61.0985 548.621 61.1705 548.25L62.9432 548.256C62.8485 548.828 62.6648 549.354 62.392 549.835C62.1231 550.312 61.7765 550.725 61.3523 551.074C60.9318 551.419 60.4508 551.686 59.9091 551.875C59.3674 552.064 58.7765 552.159 58.1364 552.159C57.1288 552.159 56.2311 551.92 55.4432 551.443C54.6553 550.962 54.0341 550.275 53.5795 549.381C53.1288 548.487 52.9034 547.42 52.9034 546.182C52.9034 544.939 53.1307 543.873 53.5852 542.983C54.0398 542.089 54.661 541.403 55.4489 540.926C56.2367 540.445 57.1326 540.205 58.1364 540.205C58.7538 540.205 59.3295 540.294 59.8636 540.472C60.4015 540.646 60.8845 540.903 61.3125 541.244C61.7405 541.581 62.0947 541.994 62.375 542.483C62.6553 542.968 62.8447 543.523 62.9432 544.148ZM68.7438 552.176C67.9256 552.176 67.2116 551.989 66.6018 551.614C65.9919 551.239 65.5184 550.714 65.1813 550.04C64.8442 549.366 64.6756 548.578 64.6756 547.676C64.6756 546.771 64.8442 545.979 65.1813 545.301C65.5184 544.623 65.9919 544.097 66.6018 543.722C67.2116 543.347 67.9256 543.159 68.7438 543.159C69.562 543.159 70.276 543.347 70.8859 543.722C71.4957 544.097 71.9692 544.623 72.3063 545.301C72.6434 545.979 72.812 546.771 72.812 547.676C72.812 548.578 72.6434 549.366 72.3063 550.04C71.9692 550.714 71.4957 551.239 70.8859 551.614C70.276 551.989 69.562 552.176 68.7438 552.176ZM68.7495 550.75C69.2798 550.75 69.7192 550.61 70.0677 550.33C70.4162 550.049 70.6737 549.676 70.8404 549.21C71.0109 548.744 71.0961 548.231 71.0961 547.67C71.0961 547.114 71.0109 546.602 70.8404 546.136C70.6737 545.667 70.4162 545.29 70.0677 545.006C69.7192 544.722 69.2798 544.58 68.7495 544.58C68.2154 544.58 67.7722 544.722 67.4199 545.006C67.0715 545.29 66.812 545.667 66.6415 546.136C66.4749 546.602 66.3915 547.114 66.3915 547.67C66.3915 548.231 66.4749 548.744 66.6415 549.21C66.812 549.676 67.0715 550.049 67.4199 550.33C67.7722 550.61 68.2154 550.75 68.7495 550.75ZM74.8683 552V543.273H76.5103V544.659H76.6012C76.7603 544.189 77.0406 543.82 77.4422 543.551C77.8475 543.278 78.3058 543.142 78.8172 543.142C78.9232 543.142 79.0482 543.146 79.1922 543.153C79.3399 543.161 79.4554 543.17 79.5387 543.182V544.807C79.4706 544.788 79.3494 544.767 79.1751 544.744C79.0009 544.718 78.8266 544.705 78.6524 544.705C78.2509 544.705 77.8929 544.79 77.5785 544.96C77.2679 545.127 77.0217 545.36 76.8399 545.659C76.6581 545.955 76.5672 546.292 76.5672 546.67V552H74.8683ZM81.1689 552V543.273H82.811V544.659H82.9019C83.061 544.189 83.3413 543.82 83.7428 543.551C84.1481 543.278 84.6064 543.142 85.1178 543.142C85.2238 543.142 85.3488 543.146 85.4928 543.153C85.6405 543.161 85.756 543.17 85.8394 543.182V544.807C85.7712 544.788 85.65 544.767 85.4757 544.744C85.3015 544.718 85.1273 544.705 84.953 544.705C84.5515 544.705 84.1935 544.79 83.8791 544.96C83.5685 545.127 83.3223 545.36 83.1405 545.659C82.9587 545.955 82.8678 546.292 82.8678 546.67V552H81.1689ZM87.5889 552.108C87.2783 552.108 87.0112 551.998 86.7877 551.778C86.5642 551.555 86.4525 551.286 86.4525 550.972C86.4525 550.661 86.5642 550.396 86.7877 550.176C87.0112 549.953 87.2783 549.841 87.5889 549.841C87.8995 549.841 88.1665 549.953 88.39 550.176C88.6135 550.396 88.7252 550.661 88.7252 550.972C88.7252 551.18 88.6722 551.371 88.5661 551.545C88.4639 551.716 88.3275 551.852 88.157 551.955C87.9866 552.057 87.7972 552.108 87.5889 552.108ZM102.834 543.273L99.6688 552H97.8506L94.6802 543.273H96.504L98.7143 549.989H98.8052L101.01 543.273H102.834ZM108.055 552.176C107.195 552.176 106.454 551.992 105.833 551.625C105.216 551.254 104.738 550.733 104.401 550.062C104.068 549.388 103.901 548.598 103.901 547.693C103.901 546.799 104.068 546.011 104.401 545.33C104.738 544.648 105.208 544.116 105.81 543.733C106.416 543.35 107.125 543.159 107.935 543.159C108.428 543.159 108.905 543.241 109.367 543.403C109.829 543.566 110.244 543.822 110.611 544.17C110.979 544.519 111.269 544.972 111.481 545.528C111.693 546.081 111.799 546.754 111.799 547.545V548.148H104.861V546.875H110.134C110.134 546.428 110.043 546.032 109.861 545.688C109.68 545.339 109.424 545.064 109.094 544.864C108.769 544.663 108.386 544.562 107.947 544.562C107.469 544.562 107.053 544.68 106.697 544.915C106.344 545.146 106.072 545.449 105.879 545.824C105.689 546.195 105.594 546.598 105.594 547.034V548.028C105.594 548.612 105.697 549.108 105.901 549.517C106.11 549.926 106.399 550.239 106.771 550.455C107.142 550.667 107.575 550.773 108.072 550.773C108.394 550.773 108.687 550.727 108.952 550.636C109.218 550.542 109.447 550.402 109.64 550.216C109.833 550.03 109.981 549.801 110.083 549.528L111.691 549.818C111.562 550.292 111.331 550.706 110.998 551.062C110.668 551.415 110.254 551.689 109.754 551.886C109.257 552.08 108.691 552.176 108.055 552.176ZM120.384 545.403L118.844 545.676C118.78 545.479 118.677 545.292 118.537 545.114C118.401 544.936 118.215 544.79 117.98 544.676C117.745 544.562 117.452 544.506 117.1 544.506C116.619 544.506 116.217 544.614 115.895 544.83C115.573 545.042 115.412 545.316 115.412 545.653C115.412 545.945 115.52 546.18 115.736 546.358C115.952 546.536 116.3 546.682 116.781 546.795L118.168 547.114C118.971 547.299 119.569 547.585 119.963 547.972C120.357 548.358 120.554 548.86 120.554 549.477C120.554 550 120.403 550.466 120.1 550.875C119.8 551.28 119.382 551.598 118.844 551.83C118.31 552.061 117.691 552.176 116.986 552.176C116.009 552.176 115.211 551.968 114.594 551.551C113.976 551.131 113.598 550.534 113.458 549.761L115.1 549.511C115.202 549.939 115.412 550.263 115.73 550.483C116.048 550.699 116.463 550.807 116.975 550.807C117.531 550.807 117.976 550.691 118.31 550.46C118.643 550.225 118.81 549.939 118.81 549.602C118.81 549.33 118.708 549.1 118.503 548.915C118.302 548.729 117.994 548.589 117.577 548.494L116.1 548.17C115.285 547.985 114.683 547.689 114.293 547.284C113.906 546.879 113.713 546.366 113.713 545.744C113.713 545.229 113.857 544.778 114.145 544.392C114.433 544.006 114.831 543.705 115.338 543.489C115.846 543.269 116.427 543.159 117.083 543.159C118.026 543.159 118.768 543.364 119.31 543.773C119.851 544.178 120.209 544.722 120.384 545.403ZM129.122 545.403L127.582 545.676C127.518 545.479 127.415 545.292 127.275 545.114C127.139 544.936 126.953 544.79 126.718 544.676C126.484 544.562 126.19 544.506 125.838 544.506C125.357 544.506 124.955 544.614 124.633 544.83C124.311 545.042 124.15 545.316 124.15 545.653C124.15 545.945 124.258 546.18 124.474 546.358C124.69 546.536 125.038 546.682 125.52 546.795L126.906 547.114C127.709 547.299 128.307 547.585 128.701 547.972C129.095 548.358 129.292 548.86 129.292 549.477C129.292 550 129.141 550.466 128.838 550.875C128.538 551.28 128.12 551.598 127.582 551.83C127.048 552.061 126.429 552.176 125.724 552.176C124.747 552.176 123.949 551.968 123.332 551.551C122.715 551.131 122.336 550.534 122.196 549.761L123.838 549.511C123.94 549.939 124.15 550.263 124.468 550.483C124.787 550.699 125.201 550.807 125.713 550.807C126.27 550.807 126.715 550.691 127.048 550.46C127.381 550.225 127.548 549.939 127.548 549.602C127.548 549.33 127.446 549.1 127.241 548.915C127.04 548.729 126.732 548.589 126.315 548.494L124.838 548.17C124.023 547.985 123.421 547.689 123.031 547.284C122.645 546.879 122.451 546.366 122.451 545.744C122.451 545.229 122.595 544.778 122.883 544.392C123.171 544.006 123.569 543.705 124.076 543.489C124.584 543.269 125.165 543.159 125.821 543.159C126.764 543.159 127.506 543.364 128.048 543.773C128.59 544.178 128.948 544.722 129.122 545.403ZM135.082 552.176C134.222 552.176 133.481 551.992 132.86 551.625C132.243 551.254 131.765 550.733 131.428 550.062C131.095 549.388 130.928 548.598 130.928 547.693C130.928 546.799 131.095 546.011 131.428 545.33C131.765 544.648 132.235 544.116 132.837 543.733C133.443 543.35 134.152 543.159 134.962 543.159C135.455 543.159 135.932 543.241 136.394 543.403C136.856 543.566 137.271 543.822 137.638 544.17C138.006 544.519 138.296 544.972 138.508 545.528C138.72 546.081 138.826 546.754 138.826 547.545V548.148H131.888V546.875H137.161C137.161 546.428 137.07 546.032 136.888 545.688C136.707 545.339 136.451 545.064 136.121 544.864C135.796 544.663 135.413 544.562 134.974 544.562C134.496 544.562 134.08 544.68 133.724 544.915C133.371 545.146 133.099 545.449 132.905 545.824C132.716 546.195 132.621 546.598 132.621 547.034V548.028C132.621 548.612 132.724 549.108 132.928 549.517C133.136 549.926 133.426 550.239 133.797 550.455C134.169 550.667 134.602 550.773 135.099 550.773C135.421 550.773 135.714 550.727 135.979 550.636C136.244 550.542 136.474 550.402 136.667 550.216C136.86 550.03 137.008 549.801 137.11 549.528L138.718 549.818C138.589 550.292 138.358 550.706 138.025 551.062C137.695 551.415 137.28 551.689 136.78 551.886C136.284 552.08 135.718 552.176 135.082 552.176ZM142.57 540.364V552H140.871V540.364H142.57ZM151.949 552.193C151.396 552.193 150.896 552.091 150.449 551.886C150.002 551.678 149.648 551.377 149.387 550.983C149.129 550.589 149 550.106 149 549.534C149 549.042 149.095 548.636 149.285 548.318C149.474 548 149.73 547.748 150.052 547.562C150.374 547.377 150.733 547.237 151.131 547.142C151.529 547.047 151.934 546.975 152.347 546.926C152.87 546.866 153.294 546.816 153.62 546.778C153.946 546.737 154.182 546.67 154.33 546.58C154.478 546.489 154.552 546.341 154.552 546.136V546.097C154.552 545.6 154.411 545.216 154.131 544.943C153.855 544.67 153.442 544.534 152.893 544.534C152.321 544.534 151.87 544.661 151.54 544.915C151.214 545.165 150.989 545.443 150.864 545.75L149.268 545.386C149.457 544.856 149.733 544.428 150.097 544.102C150.464 543.773 150.887 543.534 151.364 543.386C151.841 543.235 152.343 543.159 152.87 543.159C153.218 543.159 153.588 543.201 153.978 543.284C154.372 543.364 154.739 543.511 155.08 543.727C155.425 543.943 155.707 544.252 155.927 544.653C156.146 545.051 156.256 545.568 156.256 546.205V552H154.597V550.807H154.529C154.419 551.027 154.254 551.242 154.035 551.455C153.815 551.667 153.533 551.843 153.188 551.983C152.843 552.123 152.43 552.193 151.949 552.193ZM152.319 550.83C152.788 550.83 153.19 550.737 153.523 550.551C153.86 550.366 154.116 550.123 154.29 549.824C154.468 549.521 154.557 549.197 154.557 548.852V547.727C154.497 547.788 154.379 547.845 154.205 547.898C154.035 547.947 153.839 547.991 153.62 548.028C153.4 548.062 153.186 548.095 152.978 548.125C152.769 548.152 152.595 548.174 152.455 548.193C152.125 548.235 151.824 548.305 151.552 548.403C151.283 548.502 151.067 548.644 150.904 548.83C150.745 549.011 150.665 549.254 150.665 549.557C150.665 549.977 150.821 550.295 151.131 550.511C151.442 550.723 151.838 550.83 152.319 550.83ZM162.338 555.455C161.645 555.455 161.048 555.364 160.548 555.182C160.052 555 159.647 554.759 159.332 554.46C159.018 554.161 158.783 553.833 158.628 553.477L160.088 552.875C160.19 553.042 160.327 553.218 160.497 553.403C160.671 553.593 160.906 553.754 161.202 553.886C161.501 554.019 161.885 554.085 162.355 554.085C162.999 554.085 163.531 553.928 163.952 553.614C164.372 553.303 164.582 552.807 164.582 552.125V550.409H164.474C164.372 550.595 164.224 550.801 164.031 551.028C163.842 551.256 163.58 551.453 163.247 551.619C162.914 551.786 162.48 551.869 161.946 551.869C161.257 551.869 160.635 551.708 160.082 551.386C159.533 551.061 159.097 550.581 158.776 549.949C158.457 549.312 158.298 548.53 158.298 547.602C158.298 546.674 158.455 545.879 158.77 545.216C159.088 544.553 159.524 544.045 160.077 543.693C160.63 543.337 161.257 543.159 161.957 543.159C162.499 543.159 162.936 543.25 163.27 543.432C163.603 543.61 163.863 543.818 164.048 544.057C164.238 544.295 164.383 544.506 164.486 544.688H164.611V543.273H166.276V552.193C166.276 552.943 166.101 553.559 165.753 554.04C165.404 554.521 164.933 554.877 164.338 555.108C163.747 555.339 163.08 555.455 162.338 555.455ZM162.321 550.46C162.81 550.46 163.222 550.347 163.56 550.119C163.901 549.888 164.158 549.559 164.332 549.131C164.51 548.699 164.599 548.182 164.599 547.58C164.599 546.992 164.512 546.475 164.338 546.028C164.164 545.581 163.908 545.233 163.571 544.983C163.234 544.729 162.817 544.602 162.321 544.602C161.81 544.602 161.383 544.735 161.043 545C160.702 545.261 160.444 545.617 160.27 546.068C160.099 546.519 160.014 547.023 160.014 547.58C160.014 548.152 160.101 548.653 160.276 549.085C160.45 549.517 160.707 549.854 161.048 550.097C161.393 550.339 161.817 550.46 162.321 550.46ZM172.475 552.176C171.615 552.176 170.875 551.992 170.254 551.625C169.636 551.254 169.159 550.733 168.822 550.062C168.489 549.388 168.322 548.598 168.322 547.693C168.322 546.799 168.489 546.011 168.822 545.33C169.159 544.648 169.629 544.116 170.231 543.733C170.837 543.35 171.545 543.159 172.356 543.159C172.848 543.159 173.326 543.241 173.788 543.403C174.25 543.566 174.665 543.822 175.032 544.17C175.4 544.519 175.689 544.972 175.901 545.528C176.114 546.081 176.22 546.754 176.22 547.545V548.148H169.282V546.875H174.555C174.555 546.428 174.464 546.032 174.282 545.688C174.1 545.339 173.845 545.064 173.515 544.864C173.189 544.663 172.807 544.562 172.367 544.562C171.89 544.562 171.473 544.68 171.117 544.915C170.765 545.146 170.492 545.449 170.299 545.824C170.11 546.195 170.015 546.598 170.015 547.034V548.028C170.015 548.612 170.117 549.108 170.322 549.517C170.53 549.926 170.82 550.239 171.191 550.455C171.562 550.667 171.996 550.773 172.492 550.773C172.814 550.773 173.108 550.727 173.373 550.636C173.638 550.542 173.867 550.402 174.061 550.216C174.254 550.03 174.401 549.801 174.504 549.528L176.112 549.818C175.983 550.292 175.752 550.706 175.418 551.062C175.089 551.415 174.674 551.689 174.174 551.886C173.678 552.08 173.112 552.176 172.475 552.176ZM184.017 540.364L186.801 544.915H186.892L189.676 540.364H191.71L188.085 546.182L191.733 552H189.687L186.892 547.511H186.801L184.006 552H181.96L185.67 546.182L181.983 540.364H184.017ZM197.87 552V543.273H199.5V544.693H199.608C199.79 544.212 200.087 543.837 200.5 543.568C200.913 543.295 201.407 543.159 201.983 543.159C202.567 543.159 203.055 543.295 203.449 543.568C203.847 543.841 204.14 544.216 204.33 544.693H204.421C204.629 544.227 204.96 543.856 205.415 543.58C205.87 543.299 206.411 543.159 207.04 543.159C207.832 543.159 208.477 543.407 208.977 543.903C209.481 544.4 209.733 545.148 209.733 546.148V552H208.034V546.307C208.034 545.716 207.873 545.288 207.551 545.023C207.229 544.758 206.845 544.625 206.398 544.625C205.845 544.625 205.415 544.795 205.108 545.136C204.801 545.473 204.648 545.907 204.648 546.438V552H202.955V546.199C202.955 545.725 202.807 545.345 202.512 545.057C202.216 544.769 201.832 544.625 201.358 544.625C201.036 544.625 200.739 544.71 200.466 544.881C200.197 545.047 199.979 545.28 199.813 545.58C199.65 545.879 199.568 546.225 199.568 546.619V552H197.87ZM215.846 552.176C215.028 552.176 214.314 551.989 213.704 551.614C213.094 551.239 212.621 550.714 212.284 550.04C211.947 549.366 211.778 548.578 211.778 547.676C211.778 546.771 211.947 545.979 212.284 545.301C212.621 544.623 213.094 544.097 213.704 543.722C214.314 543.347 215.028 543.159 215.846 543.159C216.664 543.159 217.379 543.347 217.988 543.722C218.598 544.097 219.072 544.623 219.409 545.301C219.746 545.979 219.914 546.771 219.914 547.676C219.914 548.578 219.746 549.366 219.409 550.04C219.072 550.714 218.598 551.239 217.988 551.614C217.379 551.989 216.664 552.176 215.846 552.176ZM215.852 550.75C216.382 550.75 216.822 550.61 217.17 550.33C217.519 550.049 217.776 549.676 217.943 549.21C218.113 548.744 218.199 548.231 218.199 547.67C218.199 547.114 218.113 546.602 217.943 546.136C217.776 545.667 217.519 545.29 217.17 545.006C216.822 544.722 216.382 544.58 215.852 544.58C215.318 544.58 214.875 544.722 214.522 545.006C214.174 545.29 213.914 545.667 213.744 546.136C213.577 546.602 213.494 547.114 213.494 547.67C213.494 548.231 213.577 548.744 213.744 549.21C213.914 549.676 214.174 550.049 214.522 550.33C214.875 550.61 215.318 550.75 215.852 550.75ZM229.14 543.273L225.975 552H224.157L220.986 543.273H222.81L225.021 549.989H225.111L227.316 543.273H229.14ZM234.361 552.176C233.501 552.176 232.761 551.992 232.139 551.625C231.522 551.254 231.045 550.733 230.708 550.062C230.374 549.388 230.208 548.598 230.208 547.693C230.208 546.799 230.374 546.011 230.708 545.33C231.045 544.648 231.514 544.116 232.117 543.733C232.723 543.35 233.431 543.159 234.242 543.159C234.734 543.159 235.211 543.241 235.673 543.403C236.136 543.566 236.55 543.822 236.918 544.17C237.285 544.519 237.575 544.972 237.787 545.528C237.999 546.081 238.105 546.754 238.105 547.545V548.148H231.168V546.875H236.44C236.44 546.428 236.35 546.032 236.168 545.688C235.986 545.339 235.73 545.064 235.401 544.864C235.075 544.663 234.692 544.562 234.253 544.562C233.776 544.562 233.359 544.68 233.003 544.915C232.651 545.146 232.378 545.449 232.185 545.824C231.995 546.195 231.901 546.598 231.901 547.034V548.028C231.901 548.612 232.003 549.108 232.208 549.517C232.416 549.926 232.706 550.239 233.077 550.455C233.448 550.667 233.882 550.773 234.378 550.773C234.7 550.773 234.993 550.727 235.259 550.636C235.524 550.542 235.753 550.402 235.946 550.216C236.139 550.03 236.287 549.801 236.389 549.528L237.997 549.818C237.868 550.292 237.637 550.706 237.304 551.062C236.975 551.415 236.56 551.689 236.06 551.886C235.564 552.08 234.997 552.176 234.361 552.176ZM247.812 552.17C247.107 552.17 246.478 551.991 245.925 551.631C245.376 551.267 244.944 550.75 244.63 550.08C244.319 549.405 244.164 548.597 244.164 547.653C244.164 546.71 244.321 545.903 244.635 545.233C244.954 544.562 245.389 544.049 245.942 543.693C246.495 543.337 247.122 543.159 247.823 543.159C248.365 543.159 248.8 543.25 249.13 543.432C249.463 543.61 249.721 543.818 249.902 544.057C250.088 544.295 250.232 544.506 250.334 544.688H250.437V540.364H252.135V552H250.476V550.642H250.334C250.232 550.828 250.084 551.04 249.891 551.278C249.702 551.517 249.44 551.725 249.107 551.903C248.774 552.081 248.342 552.17 247.812 552.17ZM248.187 550.722C248.675 550.722 249.088 550.593 249.425 550.335C249.766 550.074 250.024 549.712 250.198 549.25C250.376 548.788 250.465 548.25 250.465 547.636C250.465 547.03 250.378 546.5 250.204 546.045C250.029 545.591 249.774 545.237 249.437 544.983C249.099 544.729 248.683 544.602 248.187 544.602C247.675 544.602 247.249 544.735 246.908 545C246.567 545.265 246.31 545.627 246.135 546.085C245.965 546.544 245.88 547.061 245.88 547.636C245.88 548.22 245.967 548.744 246.141 549.21C246.315 549.676 246.573 550.045 246.914 550.318C247.259 550.587 247.683 550.722 248.187 550.722ZM260.249 548.381V543.273H261.953V552H260.283V550.489H260.192C259.991 550.955 259.669 551.343 259.226 551.653C258.786 551.96 258.239 552.114 257.584 552.114C257.023 552.114 256.527 551.991 256.095 551.744C255.667 551.494 255.33 551.125 255.084 550.636C254.841 550.148 254.72 549.544 254.72 548.824V543.273H256.419V548.619C256.419 549.214 256.584 549.687 256.913 550.04C257.243 550.392 257.671 550.568 258.197 550.568C258.516 550.568 258.832 550.489 259.146 550.33C259.464 550.17 259.728 549.93 259.936 549.608C260.148 549.286 260.252 548.877 260.249 548.381ZM264.396 552V543.273H266.038V544.659H266.129C266.288 544.189 266.568 543.82 266.97 543.551C267.375 543.278 267.833 543.142 268.345 543.142C268.451 543.142 268.576 543.146 268.72 543.153C268.867 543.161 268.983 543.17 269.066 543.182V544.807C268.998 544.788 268.877 544.767 268.703 544.744C268.528 544.718 268.354 544.705 268.18 544.705C267.778 544.705 267.42 544.79 267.106 544.96C266.795 545.127 266.549 545.36 266.367 545.659C266.186 545.955 266.095 546.292 266.095 546.67V552H264.396ZM273.158 552.193C272.605 552.193 272.105 552.091 271.658 551.886C271.211 551.678 270.857 551.377 270.596 550.983C270.338 550.589 270.209 550.106 270.209 549.534C270.209 549.042 270.304 548.636 270.493 548.318C270.683 548 270.938 547.748 271.26 547.562C271.582 547.377 271.942 547.237 272.34 547.142C272.738 547.047 273.143 546.975 273.556 546.926C274.079 546.866 274.503 546.816 274.829 546.778C275.154 546.737 275.391 546.67 275.539 546.58C275.686 546.489 275.76 546.341 275.76 546.136V546.097C275.76 545.6 275.62 545.216 275.34 544.943C275.063 544.67 274.65 544.534 274.101 544.534C273.529 544.534 273.079 544.661 272.749 544.915C272.423 545.165 272.198 545.443 272.073 545.75L270.476 545.386C270.666 544.856 270.942 544.428 271.306 544.102C271.673 543.773 272.096 543.534 272.573 543.386C273.05 543.235 273.552 543.159 274.079 543.159C274.427 543.159 274.796 543.201 275.186 543.284C275.58 543.364 275.948 543.511 276.289 543.727C276.633 543.943 276.916 544.252 277.135 544.653C277.355 545.051 277.465 545.568 277.465 546.205V552H275.806V550.807H275.738C275.628 551.027 275.463 551.242 275.243 551.455C275.024 551.667 274.741 551.843 274.397 551.983C274.052 552.123 273.639 552.193 273.158 552.193ZM273.527 550.83C273.997 550.83 274.399 550.737 274.732 550.551C275.069 550.366 275.325 550.123 275.499 549.824C275.677 549.521 275.766 549.197 275.766 548.852V547.727C275.705 547.788 275.588 547.845 275.414 547.898C275.243 547.947 275.048 547.991 274.829 548.028C274.609 548.062 274.395 548.095 274.186 548.125C273.978 548.152 273.804 548.174 273.664 548.193C273.334 548.235 273.033 548.305 272.76 548.403C272.491 548.502 272.275 548.644 272.113 548.83C271.954 549.011 271.874 549.254 271.874 549.557C271.874 549.977 272.029 550.295 272.34 550.511C272.65 550.723 273.046 550.83 273.527 550.83ZM283.962 543.273V544.636H279.194V543.273H283.962ZM280.473 541.182H282.172V549.438C282.172 549.767 282.221 550.015 282.319 550.182C282.418 550.345 282.545 550.456 282.7 550.517C282.859 550.574 283.032 550.602 283.217 550.602C283.354 550.602 283.473 550.593 283.575 550.574C283.677 550.555 283.757 550.54 283.814 550.528L284.121 551.932C284.022 551.97 283.882 552.008 283.7 552.045C283.518 552.087 283.291 552.11 283.018 552.114C282.571 552.121 282.155 552.042 281.768 551.875C281.382 551.708 281.069 551.451 280.831 551.102C280.592 550.754 280.473 550.316 280.473 549.79V541.182ZM286.001 552V543.273H287.7V552H286.001ZM286.859 541.926C286.563 541.926 286.31 541.828 286.097 541.631C285.889 541.43 285.785 541.191 285.785 540.915C285.785 540.634 285.889 540.396 286.097 540.199C286.31 539.998 286.563 539.898 286.859 539.898C287.154 539.898 287.406 539.998 287.614 540.199C287.827 540.396 287.933 540.634 287.933 540.915C287.933 541.191 287.827 541.43 287.614 541.631C287.406 541.828 287.154 541.926 286.859 541.926ZM293.821 552.176C293.003 552.176 292.289 551.989 291.679 551.614C291.069 551.239 290.596 550.714 290.259 550.04C289.922 549.366 289.753 548.578 289.753 547.676C289.753 546.771 289.922 545.979 290.259 545.301C290.596 544.623 291.069 544.097 291.679 543.722C292.289 543.347 293.003 543.159 293.821 543.159C294.639 543.159 295.354 543.347 295.963 543.722C296.573 544.097 297.047 544.623 297.384 545.301C297.721 545.979 297.889 546.771 297.889 547.676C297.889 548.578 297.721 549.366 297.384 550.04C297.047 550.714 296.573 551.239 295.963 551.614C295.354 551.989 294.639 552.176 293.821 552.176ZM293.827 550.75C294.357 550.75 294.797 550.61 295.145 550.33C295.494 550.049 295.751 549.676 295.918 549.21C296.088 548.744 296.174 548.231 296.174 547.67C296.174 547.114 296.088 546.602 295.918 546.136C295.751 545.667 295.494 545.29 295.145 545.006C294.797 544.722 294.357 544.58 293.827 544.58C293.293 544.58 292.85 544.722 292.497 545.006C292.149 545.29 291.889 545.667 291.719 546.136C291.552 546.602 291.469 547.114 291.469 547.67C291.469 548.231 291.552 548.744 291.719 549.21C291.889 549.676 292.149 550.049 292.497 550.33C292.85 550.61 293.293 550.75 293.827 550.75ZM301.645 546.818V552H299.946V543.273H301.576V544.693H301.684C301.885 544.231 302.2 543.86 302.628 543.58C303.059 543.299 303.603 543.159 304.258 543.159C304.853 543.159 305.374 543.284 305.821 543.534C306.268 543.78 306.614 544.148 306.861 544.636C307.107 545.125 307.23 545.729 307.23 546.449V552H305.531V546.653C305.531 546.021 305.366 545.527 305.037 545.17C304.707 544.811 304.255 544.631 303.679 544.631C303.285 544.631 302.934 544.716 302.628 544.886C302.325 545.057 302.084 545.307 301.906 545.636C301.732 545.962 301.645 546.356 301.645 546.818Z" fill="black"/>
<path d="M45.2955 67.7273H50.4545L57.3636 84.5909H57.6364L64.5455 67.7273H69.7045V91H65.6591V75.0114H65.4432L59.0114 90.9318H55.9886L49.5568 74.9773H49.3409V91H45.2955V67.7273ZM77.6041 91H73.1041L81.2973 67.7273H86.5018L94.7064 91H90.2064L83.9905 72.5H83.8086L77.6041 91ZM77.7518 81.875H90.0245V85.2614H77.7518V81.875ZM98.0917 91V67.7273H106.819C108.607 67.7273 110.107 68.0379 111.319 68.6591C112.539 69.2803 113.459 70.1515 114.08 71.2727C114.709 72.3864 115.024 73.6856 115.024 75.1705C115.024 76.6629 114.705 77.9583 114.069 79.0568C113.44 80.1477 112.512 80.9924 111.285 81.5909C110.058 82.1818 108.55 82.4773 106.762 82.4773H100.546V78.9773H106.194C107.239 78.9773 108.095 78.8333 108.762 78.5455C109.429 78.25 109.921 77.822 110.239 77.2614C110.565 76.6932 110.728 75.9962 110.728 75.1705C110.728 74.3447 110.565 73.6402 110.239 73.0568C109.914 72.4659 109.417 72.0189 108.751 71.7159C108.084 71.4053 107.224 71.25 106.171 71.25H102.308V91H98.0917ZM110.114 80.4545L115.876 91H111.171L105.512 80.4545H110.114ZM123.44 67.7273V91H119.224V67.7273H123.44ZM127.303 71.2614V67.7273H145.871V71.2614H138.678V91H134.496V71.2614H127.303ZM153.986 67.7273V91H149.77V67.7273H153.986ZM158.872 67.7273H164.031L170.94 84.5909H171.213L178.122 67.7273H183.281V91H179.235V75.0114H179.019L172.588 90.9318H169.565L163.133 74.9773H162.917V91H158.872V67.7273ZM188.192 91V67.7273H203.328V71.2614H192.408V77.5795H202.544V81.1136H192.408V87.4659H203.419V91H188.192ZM216.207 91V67.7273H220.423V87.4659H230.673V91H216.207ZM254.541 79.3636C254.541 81.8712 254.071 84.0189 253.132 85.8068C252.2 87.5871 250.927 88.9508 249.314 89.8977C247.708 90.8447 245.886 91.3182 243.848 91.3182C241.81 91.3182 239.984 90.8447 238.37 89.8977C236.764 88.9432 235.492 87.5758 234.552 85.7955C233.62 84.0076 233.155 81.8636 233.155 79.3636C233.155 76.8561 233.62 74.7121 234.552 72.9318C235.492 71.1439 236.764 69.7765 238.37 68.8295C239.984 67.8826 241.81 67.4091 243.848 67.4091C245.886 67.4091 247.708 67.8826 249.314 68.8295C250.927 69.7765 252.2 71.1439 253.132 72.9318C254.071 74.7121 254.541 76.8561 254.541 79.3636ZM250.302 79.3636C250.302 77.5985 250.026 76.1098 249.473 74.8977C248.927 73.678 248.17 72.7576 247.2 72.1364C246.23 71.5076 245.113 71.1932 243.848 71.1932C242.583 71.1932 241.465 71.5076 240.495 72.1364C239.526 72.7576 238.764 73.678 238.211 74.8977C237.666 76.1098 237.393 77.5985 237.393 79.3636C237.393 81.1288 237.666 82.6212 238.211 83.8409C238.764 85.053 239.526 85.9735 240.495 86.6023C241.465 87.2235 242.583 87.5341 243.848 87.5341C245.113 87.5341 246.23 87.2235 247.2 86.6023C248.17 85.9735 248.927 85.053 249.473 83.8409C250.026 82.6212 250.302 81.1288 250.302 79.3636ZM274.438 75.1591C274.248 74.5455 273.987 73.9962 273.654 73.5114C273.328 73.0189 272.934 72.5985 272.472 72.25C272.017 71.9015 271.494 71.6402 270.904 71.4659C270.313 71.2841 269.669 71.1932 268.972 71.1932C267.722 71.1932 266.608 71.5076 265.631 72.1364C264.654 72.7652 263.885 73.6894 263.324 74.9091C262.771 76.1212 262.494 77.5985 262.494 79.3409C262.494 81.0985 262.771 82.5871 263.324 83.8068C263.877 85.0265 264.646 85.9545 265.631 86.5909C266.616 87.2197 267.76 87.5341 269.063 87.5341C270.244 87.5341 271.267 87.3068 272.131 86.8523C273.002 86.3977 273.672 85.7538 274.142 84.9205C274.612 84.0795 274.847 83.0947 274.847 81.9659L275.801 82.1136H269.483V78.8182H278.926V81.6136C278.926 83.6061 278.502 85.3295 277.654 86.7841C276.805 88.2386 275.638 89.3598 274.154 90.1477C272.669 90.928 270.964 91.3182 269.04 91.3182C266.896 91.3182 265.013 90.8371 263.392 89.875C261.779 88.9053 260.517 87.5303 259.608 85.75C258.707 83.9621 258.256 81.8409 258.256 79.3864C258.256 77.5076 258.521 75.8295 259.051 74.3523C259.589 72.875 260.339 71.6212 261.301 70.5909C262.263 69.553 263.392 68.7652 264.688 68.2273C265.983 67.6818 267.392 67.4091 268.915 67.4091C270.203 67.4091 271.404 67.5985 272.517 67.9773C273.631 68.3485 274.619 68.8788 275.483 69.5682C276.354 70.2576 277.07 71.0758 277.631 72.0227C278.191 72.9697 278.559 74.0152 278.733 75.1591H274.438ZM287.539 67.7273V91H283.323V67.7273H287.539ZM305.072 74.125C304.966 73.1326 304.519 72.3598 303.731 71.8068C302.951 71.2538 301.936 70.9773 300.686 70.9773C299.807 70.9773 299.053 71.1098 298.424 71.375C297.795 71.6402 297.314 72 296.981 72.4545C296.648 72.9091 296.477 73.428 296.47 74.0114C296.47 74.4962 296.58 74.9167 296.799 75.2727C297.026 75.6288 297.333 75.9318 297.72 76.1818C298.106 76.4242 298.534 76.6288 299.004 76.7955C299.473 76.9621 299.947 77.1023 300.424 77.2159L302.606 77.7614C303.485 77.9659 304.33 78.2424 305.14 78.5909C305.958 78.9394 306.689 79.3788 307.333 79.9091C307.985 80.4394 308.5 81.0795 308.879 81.8295C309.258 82.5795 309.447 83.4583 309.447 84.4659C309.447 85.8295 309.098 87.0303 308.401 88.0682C307.705 89.0985 306.697 89.9053 305.379 90.4886C304.068 91.0644 302.481 91.3523 300.617 91.3523C298.807 91.3523 297.235 91.072 295.901 90.5114C294.576 89.9508 293.538 89.1326 292.788 88.0568C292.045 86.9811 291.644 85.6705 291.583 84.125H295.731C295.792 84.9356 296.042 85.6098 296.481 86.1477C296.92 86.6856 297.492 87.0871 298.197 87.3523C298.909 87.6174 299.705 87.75 300.583 87.75C301.5 87.75 302.303 87.6136 302.992 87.3409C303.689 87.0606 304.235 86.6742 304.629 86.1818C305.023 85.6818 305.223 85.0985 305.231 84.4318C305.223 83.8258 305.045 83.3258 304.697 82.9318C304.348 82.5303 303.86 82.197 303.231 81.9318C302.61 81.6591 301.883 81.4167 301.049 81.2045L298.401 80.5227C296.485 80.0303 294.97 79.2841 293.856 78.2841C292.75 77.2765 292.197 75.9394 292.197 74.2727C292.197 72.9015 292.568 71.7008 293.311 70.6705C294.061 69.6402 295.08 68.8409 296.367 68.2727C297.655 67.697 299.114 67.4091 300.742 67.4091C302.394 67.4091 303.841 67.697 305.083 68.2727C306.333 68.8409 307.314 69.6326 308.026 70.6477C308.739 71.6553 309.106 72.8144 309.129 74.125H305.072ZM312.503 71.2614V67.7273H331.071V71.2614H323.878V91H319.696V71.2614H312.503ZM339.186 67.7273V91H334.97V67.7273H339.186ZM363.992 75.5795H359.742C359.621 74.8826 359.397 74.2652 359.072 73.7273C358.746 73.1818 358.341 72.7197 357.856 72.3409C357.371 71.9621 356.818 71.678 356.197 71.4886C355.583 71.2917 354.92 71.1932 354.208 71.1932C352.943 71.1932 351.822 71.5114 350.844 72.1477C349.867 72.7765 349.102 73.7008 348.549 74.9205C347.996 76.1326 347.719 77.6136 347.719 79.3636C347.719 81.1439 347.996 82.6439 348.549 83.8636C349.11 85.0758 349.875 85.9924 350.844 86.6136C351.822 87.2273 352.939 87.5341 354.197 87.5341C354.894 87.5341 355.545 87.4432 356.151 87.2614C356.765 87.072 357.314 86.7955 357.799 86.4318C358.291 86.0682 358.704 85.6212 359.038 85.0909C359.379 84.5606 359.613 83.9545 359.742 83.2727L363.992 83.2955C363.833 84.4015 363.488 85.4394 362.958 86.4091C362.435 87.3788 361.75 88.2348 360.901 88.9773C360.053 89.7121 359.06 90.2879 357.924 90.7045C356.788 91.1136 355.526 91.3182 354.14 91.3182C352.094 91.3182 350.269 90.8447 348.663 89.8977C347.057 88.9508 345.791 87.5833 344.867 85.7955C343.943 84.0076 343.481 81.8636 343.481 79.3636C343.481 76.8561 343.947 74.7121 344.879 72.9318C345.81 71.1439 347.079 69.7765 348.685 68.8295C350.291 67.8826 352.11 67.4091 354.14 67.4091C355.435 67.4091 356.64 67.5909 357.754 67.9545C358.867 68.3182 359.86 68.8523 360.731 69.5568C361.602 70.2538 362.318 71.1098 362.879 72.125C363.447 73.1326 363.818 74.2841 363.992 75.5795ZM380.821 74.125C380.715 73.1326 380.268 72.3598 379.48 71.8068C378.699 71.2538 377.684 70.9773 376.434 70.9773C375.556 70.9773 374.802 71.1098 374.173 71.375C373.544 71.6402 373.063 72 372.73 72.4545C372.396 72.9091 372.226 73.428 372.218 74.0114C372.218 74.4962 372.328 74.9167 372.548 75.2727C372.775 75.6288 373.082 75.9318 373.468 76.1818C373.855 76.4242 374.283 76.6288 374.753 76.7955C375.222 76.9621 375.696 77.1023 376.173 77.2159L378.355 77.7614C379.234 77.9659 380.078 78.2424 380.889 78.5909C381.707 78.9394 382.438 79.3788 383.082 79.9091C383.734 80.4394 384.249 81.0795 384.628 81.8295C385.006 82.5795 385.196 83.4583 385.196 84.4659C385.196 85.8295 384.847 87.0303 384.15 88.0682C383.453 89.0985 382.446 89.9053 381.128 90.4886C379.817 91.0644 378.23 91.3523 376.366 91.3523C374.556 91.3523 372.984 91.072 371.65 90.5114C370.324 89.9508 369.287 89.1326 368.537 88.0568C367.794 86.9811 367.393 85.6705 367.332 84.125H371.48C371.54 84.9356 371.79 85.6098 372.23 86.1477C372.669 86.6856 373.241 87.0871 373.946 87.3523C374.658 87.6174 375.453 87.75 376.332 87.75C377.249 87.75 378.052 87.6136 378.741 87.3409C379.438 87.0606 379.984 86.6742 380.378 86.1818C380.771 85.6818 380.972 85.0985 380.98 84.4318C380.972 83.8258 380.794 83.3258 380.446 82.9318C380.097 82.5303 379.609 82.197 378.98 81.9318C378.359 81.6591 377.631 81.4167 376.798 81.2045L374.15 80.5227C372.234 80.0303 370.718 79.2841 369.605 78.2841C368.499 77.2765 367.946 75.9394 367.946 74.2727C367.946 72.9015 368.317 71.7008 369.059 70.6705C369.809 69.6402 370.828 68.8409 372.116 68.2727C373.404 67.697 374.862 67.4091 376.491 67.4091C378.143 67.4091 379.59 67.697 380.832 68.2727C382.082 68.8409 383.063 69.6326 383.775 70.6477C384.487 71.6553 384.855 72.8144 384.878 74.125H380.821Z" fill="white"/>
<rect x="1319.65" y="57" width="223.353" height="48" rx="24" fill="white"/>
<path d="M1343.28 88H1339.52V76.3636H1343.4C1344.54 76.3636 1345.52 76.5966 1346.34 77.0625C1347.16 77.5246 1347.78 78.1894 1348.22 79.0568C1348.66 79.9205 1348.88 80.9564 1348.88 82.1648C1348.88 83.3769 1348.66 84.4186 1348.21 85.2898C1347.78 86.161 1347.14 86.8314 1346.31 87.3011C1345.47 87.767 1344.46 88 1343.28 88ZM1341.27 86.4659H1343.19C1344.07 86.4659 1344.81 86.2992 1345.4 85.9659C1345.98 85.6288 1346.42 85.142 1346.71 84.5057C1347.01 83.8655 1347.15 83.0852 1347.15 82.1648C1347.15 81.2519 1347.01 80.4773 1346.71 79.8409C1346.43 79.2045 1346 78.7216 1345.42 78.392C1344.85 78.0625 1344.14 77.8977 1343.29 77.8977H1341.27V86.4659ZM1353.47 88.1932C1352.91 88.1932 1352.41 88.0909 1351.97 87.8864C1351.52 87.678 1351.16 87.3769 1350.9 86.983C1350.65 86.589 1350.52 86.1061 1350.52 85.5341C1350.52 85.0417 1350.61 84.6364 1350.8 84.3182C1350.99 84 1351.25 83.7481 1351.57 83.5625C1351.89 83.3769 1352.25 83.2367 1352.65 83.142C1353.05 83.0473 1353.45 82.9754 1353.86 82.9261C1354.39 82.8655 1354.81 82.8163 1355.14 82.7784C1355.46 82.7367 1355.7 82.6705 1355.85 82.5795C1355.99 82.4886 1356.07 82.3409 1356.07 82.1364V82.0966C1356.07 81.6004 1355.93 81.2159 1355.65 80.9432C1355.37 80.6705 1354.96 80.5341 1354.41 80.5341C1353.84 80.5341 1353.39 80.661 1353.06 80.9148C1352.73 81.1648 1352.51 81.4432 1352.38 81.75L1350.78 81.3864C1350.97 80.8561 1351.25 80.428 1351.61 80.1023C1351.98 79.7727 1352.4 79.5341 1352.88 79.3864C1353.36 79.2348 1353.86 79.1591 1354.39 79.1591C1354.73 79.1591 1355.1 79.2008 1355.49 79.2841C1355.89 79.3636 1356.26 79.5114 1356.6 79.7273C1356.94 79.9432 1357.22 80.2519 1357.44 80.6534C1357.66 81.0511 1357.77 81.5682 1357.77 82.2045V88H1356.11V86.8068H1356.05C1355.94 87.0265 1355.77 87.2424 1355.55 87.4545C1355.33 87.6667 1355.05 87.8428 1354.7 87.983C1354.36 88.1231 1353.95 88.1932 1353.47 88.1932ZM1353.84 86.8295C1354.31 86.8295 1354.71 86.7367 1355.04 86.5511C1355.38 86.3655 1355.63 86.1231 1355.81 85.8239C1355.98 85.5208 1356.07 85.197 1356.07 84.8523V83.7273C1356.01 83.7879 1355.9 83.8447 1355.72 83.8977C1355.55 83.947 1355.36 83.9905 1355.14 84.0284C1354.92 84.0625 1354.7 84.0947 1354.49 84.125C1354.29 84.1515 1354.11 84.1742 1353.97 84.1932C1353.64 84.2348 1353.34 84.3049 1353.07 84.4034C1352.8 84.5019 1352.58 84.6439 1352.42 84.8295C1352.26 85.0114 1352.18 85.2538 1352.18 85.5568C1352.18 85.9773 1352.34 86.2955 1352.65 86.5114C1352.96 86.7235 1353.35 86.8295 1353.84 86.8295ZM1364.11 79.2727V80.6364H1359.34V79.2727H1364.11ZM1360.62 77.1818H1362.32V85.4375C1362.32 85.767 1362.37 86.0152 1362.47 86.1818C1362.57 86.3447 1362.69 86.4564 1362.85 86.517C1363.01 86.5739 1363.18 86.6023 1363.37 86.6023C1363.5 86.6023 1363.62 86.5928 1363.72 86.5739C1363.83 86.5549 1363.9 86.5398 1363.96 86.5284L1364.27 87.9318C1364.17 87.9697 1364.03 88.0076 1363.85 88.0455C1363.67 88.0871 1363.44 88.1098 1363.17 88.1136C1362.72 88.1212 1362.3 88.0417 1361.92 87.875C1361.53 87.7083 1361.22 87.4508 1360.98 87.1023C1360.74 86.7538 1360.62 86.3163 1360.62 85.7898V77.1818ZM1369.66 88.1761C1368.8 88.1761 1368.06 87.9924 1367.43 87.625C1366.82 87.2538 1366.34 86.733 1366 86.0625C1365.67 85.3883 1365.5 84.5985 1365.5 83.6932C1365.5 82.7992 1365.67 82.0114 1366 81.3295C1366.34 80.6477 1366.81 80.1155 1367.41 79.733C1368.02 79.3504 1368.73 79.1591 1369.54 79.1591C1370.03 79.1591 1370.51 79.2405 1370.97 79.4034C1371.43 79.5663 1371.85 79.822 1372.21 80.1705C1372.58 80.5189 1372.87 80.9716 1373.08 81.5284C1373.29 82.0814 1373.4 82.7538 1373.4 83.5455V84.1477H1366.46V82.875H1371.74C1371.74 82.428 1371.64 82.0322 1371.46 81.6875C1371.28 81.339 1371.03 81.0644 1370.7 80.8636C1370.37 80.6629 1369.99 80.5625 1369.55 80.5625C1369.07 80.5625 1368.65 80.6799 1368.3 80.9148C1367.95 81.1458 1367.67 81.4489 1367.48 81.8239C1367.29 82.1951 1367.2 82.5985 1367.2 83.0341V84.0284C1367.2 84.6117 1367.3 85.108 1367.5 85.517C1367.71 85.9261 1368 86.2386 1368.37 86.4545C1368.74 86.6667 1369.18 86.7727 1369.67 86.7727C1370 86.7727 1370.29 86.7273 1370.55 86.6364C1370.82 86.5417 1371.05 86.4015 1371.24 86.2159C1371.43 86.0303 1371.58 85.8011 1371.68 85.5284L1373.29 85.8182C1373.16 86.2917 1372.93 86.7064 1372.6 87.0625C1372.27 87.4148 1371.86 87.6894 1371.36 87.8864C1370.86 88.0795 1370.29 88.1761 1369.66 88.1761Z" fill="#060606"/>
<rect x="1083" y="57" width="223.353" height="48" rx="24" fill="white"/>
<path d="M1102.87 88V76.3636H1107.02C1107.92 76.3636 1108.66 76.5189 1109.26 76.8295C1109.86 77.1402 1110.3 77.5701 1110.6 78.1193C1110.9 78.6648 1111.04 79.2955 1111.04 80.0114C1111.04 80.7235 1110.89 81.3504 1110.59 81.892C1110.3 82.4299 1109.85 82.8485 1109.25 83.1477C1108.66 83.447 1107.91 83.5966 1107.01 83.5966H1103.87V82.0852H1106.85C1107.42 82.0852 1107.88 82.0038 1108.24 81.8409C1108.6 81.678 1108.86 81.4413 1109.03 81.1307C1109.19 80.8201 1109.28 80.447 1109.28 80.0114C1109.28 79.572 1109.19 79.1913 1109.02 78.8693C1108.85 78.5473 1108.59 78.3011 1108.23 78.1307C1107.87 77.9564 1107.41 77.8693 1106.83 77.8693H1104.62V88H1102.87ZM1108.61 82.75L1111.49 88H1109.49L1106.67 82.75H1108.61ZM1116.7 88.1761C1115.84 88.1761 1115.1 87.9924 1114.47 87.625C1113.86 87.2538 1113.38 86.733 1113.04 86.0625C1112.71 85.3883 1112.54 84.5985 1112.54 83.6932C1112.54 82.7992 1112.71 82.0114 1113.04 81.3295C1113.38 80.6477 1113.85 80.1155 1114.45 79.733C1115.06 79.3504 1115.77 79.1591 1116.58 79.1591C1117.07 79.1591 1117.55 79.2405 1118.01 79.4034C1118.47 79.5663 1118.88 79.822 1119.25 80.1705C1119.62 80.5189 1119.91 80.9716 1120.12 81.5284C1120.33 82.0814 1120.44 82.7538 1120.44 83.5455V84.1477H1113.5V82.875H1118.77C1118.77 82.428 1118.68 82.0322 1118.5 81.6875C1118.32 81.339 1118.06 81.0644 1117.74 80.8636C1117.41 80.6629 1117.03 80.5625 1116.59 80.5625C1116.11 80.5625 1115.69 80.6799 1115.34 80.9148C1114.99 81.1458 1114.71 81.4489 1114.52 81.8239C1114.33 82.1951 1114.24 82.5985 1114.24 83.0341V84.0284C1114.24 84.6117 1114.34 85.108 1114.54 85.517C1114.75 85.9261 1115.04 86.2386 1115.41 86.4545C1115.78 86.6667 1116.22 86.7727 1116.71 86.7727C1117.03 86.7727 1117.33 86.7273 1117.59 86.6364C1117.86 86.5417 1118.09 86.4015 1118.28 86.2159C1118.47 86.0303 1118.62 85.8011 1118.72 85.5284L1120.33 85.8182C1120.2 86.2917 1119.97 86.7064 1119.64 87.0625C1119.31 87.4148 1118.89 87.6894 1118.39 87.8864C1117.9 88.0795 1117.33 88.1761 1116.7 88.1761ZM1125.98 91.4545C1125.29 91.4545 1124.69 91.3636 1124.19 91.1818C1123.7 91 1123.29 90.7595 1122.98 90.4602C1122.66 90.161 1122.43 89.8333 1122.27 89.4773L1123.73 88.875C1123.84 89.0417 1123.97 89.2178 1124.14 89.4034C1124.32 89.5928 1124.55 89.7538 1124.85 89.8864C1125.15 90.0189 1125.53 90.0852 1126 90.0852C1126.64 90.0852 1127.18 89.928 1127.6 89.6136C1128.02 89.303 1128.23 88.8068 1128.23 88.125V86.4091H1128.12C1128.02 86.5947 1127.87 86.8011 1127.68 87.0284C1127.49 87.2557 1127.23 87.4527 1126.89 87.6193C1126.56 87.786 1126.13 87.8693 1125.59 87.8693C1124.9 87.8693 1124.28 87.7083 1123.73 87.3864C1123.18 87.0606 1122.74 86.5814 1122.42 85.9489C1122.1 85.3125 1121.94 84.5303 1121.94 83.6023C1121.94 82.6742 1122.1 81.8788 1122.42 81.2159C1122.73 80.553 1123.17 80.0455 1123.72 79.6932C1124.28 79.3371 1124.9 79.1591 1125.6 79.1591C1126.14 79.1591 1126.58 79.25 1126.92 79.4318C1127.25 79.6098 1127.51 79.8182 1127.69 80.0568C1127.88 80.2955 1128.03 80.5057 1128.13 80.6875H1128.26V79.2727H1129.92V88.1932C1129.92 88.9432 1129.75 89.5587 1129.4 90.0398C1129.05 90.5208 1128.58 90.8769 1127.98 91.108C1127.39 91.339 1126.73 91.4545 1125.98 91.4545ZM1125.97 86.4602C1126.46 86.4602 1126.87 86.3466 1127.21 86.1193C1127.55 85.8883 1127.8 85.5587 1127.98 85.1307C1128.16 84.6989 1128.25 84.1818 1128.25 83.5795C1128.25 82.9924 1128.16 82.4754 1127.98 82.0284C1127.81 81.5814 1127.55 81.233 1127.22 80.983C1126.88 80.7292 1126.46 80.6023 1125.97 80.6023C1125.46 80.6023 1125.03 80.7348 1124.69 81C1124.35 81.2614 1124.09 81.6174 1123.92 82.0682C1123.75 82.5189 1123.66 83.0227 1123.66 83.5795C1123.66 84.1515 1123.75 84.6534 1123.92 85.0852C1124.1 85.517 1124.35 85.8542 1124.69 86.0966C1125.04 86.339 1125.46 86.4602 1125.97 86.4602ZM1132.2 88V79.2727H1133.9V88H1132.2ZM1133.06 77.9261C1132.76 77.9261 1132.51 77.8277 1132.3 77.6307C1132.09 77.4299 1131.98 77.1913 1131.98 76.9148C1131.98 76.6345 1132.09 76.3958 1132.3 76.1989C1132.51 75.9981 1132.76 75.8977 1133.06 75.8977C1133.35 75.8977 1133.6 75.9981 1133.81 76.1989C1134.03 76.3958 1134.13 76.6345 1134.13 76.9148C1134.13 77.1913 1134.03 77.4299 1133.81 77.6307C1133.6 77.8277 1133.35 77.9261 1133.06 77.9261ZM1139.86 88.1761C1139.04 88.1761 1138.33 87.9886 1137.72 87.6136C1137.11 87.2386 1136.63 86.714 1136.3 86.0398C1135.96 85.3655 1135.79 84.5777 1135.79 83.6761C1135.79 82.7708 1135.96 81.9792 1136.3 81.3011C1136.63 80.6231 1137.11 80.0966 1137.72 79.7216C1138.33 79.3466 1139.04 79.1591 1139.86 79.1591C1140.68 79.1591 1141.39 79.3466 1142 79.7216C1142.61 80.0966 1143.09 80.6231 1143.42 81.3011C1143.76 81.9792 1143.93 82.7708 1143.93 83.6761C1143.93 84.5777 1143.76 85.3655 1143.42 86.0398C1143.09 86.714 1142.61 87.2386 1142 87.6136C1141.39 87.9886 1140.68 88.1761 1139.86 88.1761ZM1139.87 86.75C1140.4 86.75 1140.84 86.6098 1141.18 86.3295C1141.53 86.0492 1141.79 85.6761 1141.96 85.2102C1142.13 84.7443 1142.21 84.2311 1142.21 83.6705C1142.21 83.1136 1142.13 82.6023 1141.96 82.1364C1141.79 81.6667 1141.53 81.2898 1141.18 81.0057C1140.84 80.7216 1140.4 80.5795 1139.87 80.5795C1139.33 80.5795 1138.89 80.7216 1138.54 81.0057C1138.19 81.2898 1137.93 81.6667 1137.76 82.1364C1137.59 82.6023 1137.51 83.1136 1137.51 83.6705C1137.51 84.2311 1137.59 84.7443 1137.76 85.2102C1137.93 85.6761 1138.19 86.0492 1138.54 86.3295C1138.89 86.6098 1139.33 86.75 1139.87 86.75ZM1147.52 82.8182V88H1145.82V79.2727H1147.46V80.6932H1147.56C1147.76 80.2311 1148.08 79.8598 1148.51 79.5795C1148.94 79.2992 1149.48 79.1591 1150.14 79.1591C1150.73 79.1591 1151.25 79.2841 1151.7 79.5341C1152.15 79.7803 1152.49 80.1477 1152.74 80.6364C1152.99 81.125 1153.11 81.7292 1153.11 82.4489V88H1151.41V82.6534C1151.41 82.0208 1151.25 81.5265 1150.92 81.1705C1150.59 80.8106 1150.13 80.6307 1149.56 80.6307C1149.16 80.6307 1148.81 80.7159 1148.51 80.8864C1148.2 81.0568 1147.96 81.3068 1147.78 81.6364C1147.61 81.9621 1147.52 82.3561 1147.52 82.8182Z" fill="#060606"/>
<path d="M52.7045 175.875V174.364H61.7102V175.875H58.0795V186H56.3295V175.875H52.7045ZM62.8177 186V177.273H64.4597V178.659H64.5506C64.7097 178.189 64.99 177.82 65.3915 177.551C65.7968 177.278 66.2552 177.142 66.7665 177.142C66.8726 177.142 66.9976 177.146 67.1415 177.153C67.2893 177.161 67.4048 177.17 67.4881 177.182V178.807C67.4199 178.788 67.2987 178.767 67.1245 178.744C66.9502 178.718 66.776 178.705 66.6018 178.705C66.2002 178.705 65.8423 178.79 65.5279 178.96C65.2173 179.127 64.9711 179.36 64.7893 179.659C64.6074 179.955 64.5165 180.292 64.5165 180.67V186H62.8177ZM72.5672 186.176C71.7073 186.176 70.9668 185.992 70.3456 185.625C69.7281 185.254 69.2509 184.733 68.9137 184.062C68.5804 183.388 68.4137 182.598 68.4137 181.693C68.4137 180.799 68.5804 180.011 68.9137 179.33C69.2509 178.648 69.7206 178.116 70.3228 177.733C70.9289 177.35 71.6372 177.159 72.4478 177.159C72.9403 177.159 73.4175 177.241 73.8797 177.403C74.3418 177.566 74.7566 177.822 75.124 178.17C75.4914 178.519 75.7812 178.972 75.9933 179.528C76.2054 180.081 76.3115 180.754 76.3115 181.545V182.148H69.374V180.875H74.6467C74.6467 180.428 74.5558 180.032 74.374 179.688C74.1922 179.339 73.9365 179.064 73.6069 178.864C73.2812 178.663 72.8986 178.562 72.4592 178.562C71.9819 178.562 71.5653 178.68 71.2092 178.915C70.8569 179.146 70.5842 179.449 70.391 179.824C70.2016 180.195 70.1069 180.598 70.1069 181.034V182.028C70.1069 182.612 70.2092 183.108 70.4137 183.517C70.6221 183.926 70.9119 184.239 71.2831 184.455C71.6543 184.667 72.088 184.773 72.5842 184.773C72.9062 184.773 73.1997 184.727 73.4649 184.636C73.73 184.542 73.9592 184.402 74.1524 184.216C74.3456 184.03 74.4933 183.801 74.5956 183.528L76.2035 183.818C76.0747 184.292 75.8437 184.706 75.5103 185.062C75.1808 185.415 74.766 185.689 74.266 185.886C73.7698 186.08 73.2035 186.176 72.5672 186.176ZM80.0553 180.818V186H78.3564V177.273H79.9871V178.693H80.0951C80.2958 178.231 80.6102 177.86 81.0382 177.58C81.4701 177.299 82.0136 177.159 82.6689 177.159C83.2636 177.159 83.7845 177.284 84.2314 177.534C84.6784 177.78 85.025 178.148 85.2712 178.636C85.5174 179.125 85.6405 179.729 85.6405 180.449V186H83.9416V180.653C83.9416 180.021 83.7769 179.527 83.4473 179.17C83.1178 178.811 82.6651 178.631 82.0894 178.631C81.6954 178.631 81.3451 178.716 81.0382 178.886C80.7352 179.057 80.4947 179.307 80.3166 179.636C80.1424 179.962 80.0553 180.356 80.0553 180.818ZM91.346 186.17C90.6414 186.17 90.0126 185.991 89.4596 185.631C88.9104 185.267 88.4785 184.75 88.1641 184.08C87.8535 183.405 87.6982 182.597 87.6982 181.653C87.6982 180.71 87.8554 179.903 88.1698 179.233C88.488 178.562 88.9236 178.049 89.4766 177.693C90.0297 177.337 90.6566 177.159 91.3573 177.159C91.899 177.159 92.3346 177.25 92.6641 177.432C92.9975 177.61 93.2551 177.818 93.4369 178.057C93.6225 178.295 93.7664 178.506 93.8687 178.688H93.971V174.364H95.6698V186H94.0107V184.642H93.8687C93.7664 184.828 93.6187 185.04 93.4255 185.278C93.2361 185.517 92.9748 185.725 92.6414 185.903C92.3081 186.081 91.8763 186.17 91.346 186.17ZM91.721 184.722C92.2096 184.722 92.6225 184.593 92.9596 184.335C93.3005 184.074 93.5581 183.712 93.7323 183.25C93.9104 182.788 93.9994 182.25 93.9994 181.636C93.9994 181.03 93.9123 180.5 93.738 180.045C93.5638 179.591 93.3081 179.237 92.971 178.983C92.6338 178.729 92.2172 178.602 91.721 178.602C91.2096 178.602 90.7835 178.735 90.4426 179C90.1016 179.265 89.8441 179.627 89.6698 180.085C89.4994 180.544 89.4141 181.061 89.4141 181.636C89.4141 182.22 89.5013 182.744 89.6755 183.21C89.8498 183.676 90.1073 184.045 90.4482 184.318C90.7929 184.587 91.2172 184.722 91.721 184.722ZM106.325 186.176C105.507 186.176 104.793 185.989 104.183 185.614C103.573 185.239 103.1 184.714 102.763 184.04C102.425 183.366 102.257 182.578 102.257 181.676C102.257 180.771 102.425 179.979 102.763 179.301C103.1 178.623 103.573 178.097 104.183 177.722C104.793 177.347 105.507 177.159 106.325 177.159C107.143 177.159 107.857 177.347 108.467 177.722C109.077 178.097 109.55 178.623 109.888 179.301C110.225 179.979 110.393 180.771 110.393 181.676C110.393 182.578 110.225 183.366 109.888 184.04C109.55 184.714 109.077 185.239 108.467 185.614C107.857 185.989 107.143 186.176 106.325 186.176ZM106.331 184.75C106.861 184.75 107.3 184.61 107.649 184.33C107.997 184.049 108.255 183.676 108.422 183.21C108.592 182.744 108.677 182.231 108.677 181.67C108.677 181.114 108.592 180.602 108.422 180.136C108.255 179.667 107.997 179.29 107.649 179.006C107.3 178.722 106.861 178.58 106.331 178.58C105.797 178.58 105.353 178.722 105.001 179.006C104.653 179.29 104.393 179.667 104.223 180.136C104.056 180.602 103.973 181.114 103.973 181.67C103.973 182.231 104.056 182.744 104.223 183.21C104.393 183.676 104.653 184.049 105.001 184.33C105.353 184.61 105.797 184.75 106.331 184.75ZM119.619 177.273L116.454 186H114.636L111.465 177.273H113.289L115.499 183.989H115.59L117.795 177.273H119.619ZM124.84 186.176C123.98 186.176 123.239 185.992 122.618 185.625C122.001 185.254 121.523 184.733 121.186 184.062C120.853 183.388 120.686 182.598 120.686 181.693C120.686 180.799 120.853 180.011 121.186 179.33C121.523 178.648 121.993 178.116 122.595 177.733C123.201 177.35 123.91 177.159 124.72 177.159C125.213 177.159 125.69 177.241 126.152 177.403C126.614 177.566 127.029 177.822 127.396 178.17C127.764 178.519 128.054 178.972 128.266 179.528C128.478 180.081 128.584 180.754 128.584 181.545V182.148H121.646V180.875H126.919C126.919 180.428 126.828 180.032 126.646 179.688C126.465 179.339 126.209 179.064 125.879 178.864C125.554 178.663 125.171 178.562 124.732 178.562C124.254 178.562 123.838 178.68 123.482 178.915C123.129 179.146 122.857 179.449 122.664 179.824C122.474 180.195 122.379 180.598 122.379 181.034V182.028C122.379 182.612 122.482 183.108 122.686 183.517C122.895 183.926 123.184 184.239 123.556 184.455C123.927 184.667 124.36 184.773 124.857 184.773C125.179 184.773 125.472 184.727 125.737 184.636C126.003 184.542 126.232 184.402 126.425 184.216C126.618 184.03 126.766 183.801 126.868 183.528L128.476 183.818C128.347 184.292 128.116 184.706 127.783 185.062C127.453 185.415 127.039 185.689 126.539 185.886C126.042 186.08 125.476 186.176 124.84 186.176ZM130.629 186V177.273H132.271V178.659H132.362C132.521 178.189 132.801 177.82 133.203 177.551C133.608 177.278 134.066 177.142 134.578 177.142C134.684 177.142 134.809 177.146 134.953 177.153C135.101 177.161 135.216 177.17 135.299 177.182V178.807C135.231 178.788 135.11 178.767 134.936 178.744C134.761 178.718 134.587 178.705 134.413 178.705C134.011 178.705 133.654 178.79 133.339 178.96C133.029 179.127 132.782 179.36 132.601 179.659C132.419 179.955 132.328 180.292 132.328 180.67V186H130.629ZM141.556 180.347V181.818H136.397V180.347H141.556ZM148.054 177.273V178.636H143.287V177.273H148.054ZM144.565 175.182H146.264V183.438C146.264 183.767 146.314 184.015 146.412 184.182C146.51 184.345 146.637 184.456 146.793 184.517C146.952 184.574 147.124 184.602 147.31 184.602C147.446 184.602 147.565 184.593 147.668 184.574C147.77 184.555 147.849 184.54 147.906 184.528L148.213 185.932C148.115 185.97 147.974 186.008 147.793 186.045C147.611 186.087 147.384 186.11 147.111 186.114C146.664 186.121 146.247 186.042 145.861 185.875C145.474 185.708 145.162 185.451 144.923 185.102C144.685 184.754 144.565 184.316 144.565 183.79V175.182ZM150.093 186V177.273H151.792V186H150.093ZM150.951 175.926C150.656 175.926 150.402 175.828 150.19 175.631C149.982 175.43 149.877 175.191 149.877 174.915C149.877 174.634 149.982 174.396 150.19 174.199C150.402 173.998 150.656 173.898 150.951 173.898C151.247 173.898 151.499 173.998 151.707 174.199C151.919 174.396 152.025 174.634 152.025 174.915C152.025 175.191 151.919 175.43 151.707 175.631C151.499 175.828 151.247 175.926 150.951 175.926ZM154.238 186V177.273H155.868V178.693H155.976C156.158 178.212 156.455 177.837 156.868 177.568C157.281 177.295 157.776 177.159 158.351 177.159C158.935 177.159 159.423 177.295 159.817 177.568C160.215 177.841 160.509 178.216 160.698 178.693H160.789C160.997 178.227 161.329 177.856 161.783 177.58C162.238 177.299 162.779 177.159 163.408 177.159C164.2 177.159 164.846 177.407 165.346 177.903C165.849 178.4 166.101 179.148 166.101 180.148V186H164.402V180.307C164.402 179.716 164.241 179.288 163.919 179.023C163.598 178.758 163.213 178.625 162.766 178.625C162.213 178.625 161.783 178.795 161.476 179.136C161.169 179.473 161.016 179.907 161.016 180.438V186H159.323V180.199C159.323 179.725 159.175 179.345 158.88 179.057C158.584 178.769 158.2 178.625 157.726 178.625C157.404 178.625 157.107 178.71 156.834 178.881C156.565 179.047 156.348 179.28 156.181 179.58C156.018 179.879 155.937 180.225 155.937 180.619V186H154.238ZM172.3 186.176C171.44 186.176 170.699 185.992 170.078 185.625C169.461 185.254 168.983 184.733 168.646 184.062C168.313 183.388 168.146 182.598 168.146 181.693C168.146 180.799 168.313 180.011 168.646 179.33C168.983 178.648 169.453 178.116 170.055 177.733C170.661 177.35 171.37 177.159 172.18 177.159C172.673 177.159 173.15 177.241 173.612 177.403C174.074 177.566 174.489 177.822 174.856 178.17C175.224 178.519 175.514 178.972 175.726 179.528C175.938 180.081 176.044 180.754 176.044 181.545V182.148H169.106V180.875H174.379C174.379 180.428 174.288 180.032 174.106 179.688C173.925 179.339 173.669 179.064 173.339 178.864C173.014 178.663 172.631 178.562 172.192 178.562C171.714 178.562 171.298 178.68 170.942 178.915C170.589 179.146 170.317 179.449 170.124 179.824C169.934 180.195 169.839 180.598 169.839 181.034V182.028C169.839 182.612 169.942 183.108 170.146 183.517C170.355 183.926 170.644 184.239 171.016 184.455C171.387 184.667 171.82 184.773 172.317 184.773C172.639 184.773 172.932 184.727 173.197 184.636C173.463 184.542 173.692 184.402 173.885 184.216C174.078 184.03 174.226 183.801 174.328 183.528L175.936 183.818C175.807 184.292 175.576 184.706 175.243 185.062C174.913 185.415 174.499 185.689 173.999 185.886C173.502 186.08 172.936 186.176 172.3 186.176Z" fill="black"/>
</svg>
