<svg width="1580" height="908" viewBox="0 0 1580 908" fill="none" xmlns="http://www.w3.org/2000/svg">
<rect width="1580" height="908" fill="white"/>
<rect x="22" y="22" width="1536" height="864" rx="10" fill="#EBDFD7"/>
<path d="M22 32C22 26.4772 26.4772 22 32 22H1548C1553.52 22 1558 26.4772 1558 32V206H22V32Z" fill="#060606"/>
<rect x="37" y="282" width="1506" height="589" rx="14" fill="white"/>
<g filter="url(#filter0_d_251_574)">
<rect x="37" y="136" width="289" height="130" rx="10" fill="white"/>
</g>
<g filter="url(#filter1_d_251_574)">
<rect x="1254" y="136" width="289" height="130" rx="10" fill="white"/>
</g>
<g filter="url(#filter2_d_251_574)">
<rect x="949" y="136" width="289" height="130" rx="10" fill="white"/>
</g>
<g filter="url(#filter3_d_251_574)">
<rect x="645" y="136" width="289" height="130" rx="10" fill="white"/>
</g>
<g filter="url(#filter4_d_251_574)">
<rect x="341" y="136" width="289" height="130" rx="10" fill="white"/>
</g>
<path d="M45.2955 67.7273H50.4545L57.3636 84.5909H57.6364L64.5455 67.7273H69.7045V91H65.6591V75.0114H65.4432L59.0114 90.9318H55.9886L49.5568 74.9773H49.3409V91H45.2955V67.7273ZM77.6041 91H73.1041L81.2973 67.7273H86.5018L94.7064 91H90.2064L83.9905 72.5H83.8086L77.6041 91ZM77.7518 81.875H90.0245V85.2614H77.7518V81.875ZM98.0917 91V67.7273H106.819C108.607 67.7273 110.107 68.0379 111.319 68.6591C112.539 69.2803 113.459 70.1515 114.08 71.2727C114.709 72.3864 115.024 73.6856 115.024 75.1705C115.024 76.6629 114.705 77.9583 114.069 79.0568C113.44 80.1477 112.512 80.9924 111.285 81.5909C110.058 82.1818 108.55 82.4773 106.762 82.4773H100.546V78.9773H106.194C107.239 78.9773 108.095 78.8333 108.762 78.5455C109.429 78.25 109.921 77.822 110.239 77.2614C110.565 76.6932 110.728 75.9962 110.728 75.1705C110.728 74.3447 110.565 73.6402 110.239 73.0568C109.914 72.4659 109.417 72.0189 108.751 71.7159C108.084 71.4053 107.224 71.25 106.171 71.25H102.308V91H98.0917ZM110.114 80.4545L115.876 91H111.171L105.512 80.4545H110.114ZM123.44 67.7273V91H119.224V67.7273H123.44ZM127.303 71.2614V67.7273H145.871V71.2614H138.678V91H134.496V71.2614H127.303ZM153.986 67.7273V91H149.77V67.7273H153.986ZM158.872 67.7273H164.031L170.94 84.5909H171.213L178.122 67.7273H183.281V91H179.235V75.0114H179.019L172.588 90.9318H169.565L163.133 74.9773H162.917V91H158.872V67.7273ZM188.192 91V67.7273H203.328V71.2614H192.408V77.5795H202.544V81.1136H192.408V87.4659H203.419V91H188.192ZM216.207 91V67.7273H220.423V87.4659H230.673V91H216.207ZM254.541 79.3636C254.541 81.8712 254.071 84.0189 253.132 85.8068C252.2 87.5871 250.927 88.9508 249.314 89.8977C247.708 90.8447 245.886 91.3182 243.848 91.3182C241.81 91.3182 239.984 90.8447 238.37 89.8977C236.764 88.9432 235.492 87.5758 234.552 85.7955C233.62 84.0076 233.155 81.8636 233.155 79.3636C233.155 76.8561 233.62 74.7121 234.552 72.9318C235.492 71.1439 236.764 69.7765 238.37 68.8295C239.984 67.8826 241.81 67.4091 243.848 67.4091C245.886 67.4091 247.708 67.8826 249.314 68.8295C250.927 69.7765 252.2 71.1439 253.132 72.9318C254.071 74.7121 254.541 76.8561 254.541 79.3636ZM250.302 79.3636C250.302 77.5985 250.026 76.1098 249.473 74.8977C248.927 73.678 248.17 72.7576 247.2 72.1364C246.23 71.5076 245.113 71.1932 243.848 71.1932C242.583 71.1932 241.465 71.5076 240.495 72.1364C239.526 72.7576 238.764 73.678 238.211 74.8977C237.666 76.1098 237.393 77.5985 237.393 79.3636C237.393 81.1288 237.666 82.6212 238.211 83.8409C238.764 85.053 239.526 85.9735 240.495 86.6023C241.465 87.2235 242.583 87.5341 243.848 87.5341C245.113 87.5341 246.23 87.2235 247.2 86.6023C248.17 85.9735 248.927 85.053 249.473 83.8409C250.026 82.6212 250.302 81.1288 250.302 79.3636ZM274.438 75.1591C274.248 74.5455 273.987 73.9962 273.654 73.5114C273.328 73.0189 272.934 72.5985 272.472 72.25C272.017 71.9015 271.494 71.6402 270.904 71.4659C270.313 71.2841 269.669 71.1932 268.972 71.1932C267.722 71.1932 266.608 71.5076 265.631 72.1364C264.654 72.7652 263.885 73.6894 263.324 74.9091C262.771 76.1212 262.494 77.5985 262.494 79.3409C262.494 81.0985 262.771 82.5871 263.324 83.8068C263.877 85.0265 264.646 85.9545 265.631 86.5909C266.616 87.2197 267.76 87.5341 269.063 87.5341C270.244 87.5341 271.267 87.3068 272.131 86.8523C273.002 86.3977 273.672 85.7538 274.142 84.9205C274.612 84.0795 274.847 83.0947 274.847 81.9659L275.801 82.1136H269.483V78.8182H278.926V81.6136C278.926 83.6061 278.502 85.3295 277.654 86.7841C276.805 88.2386 275.638 89.3598 274.154 90.1477C272.669 90.928 270.964 91.3182 269.04 91.3182C266.896 91.3182 265.013 90.8371 263.392 89.875C261.779 88.9053 260.517 87.5303 259.608 85.75C258.707 83.9621 258.256 81.8409 258.256 79.3864C258.256 77.5076 258.521 75.8295 259.051 74.3523C259.589 72.875 260.339 71.6212 261.301 70.5909C262.263 69.553 263.392 68.7652 264.688 68.2273C265.983 67.6818 267.392 67.4091 268.915 67.4091C270.203 67.4091 271.404 67.5985 272.517 67.9773C273.631 68.3485 274.619 68.8788 275.483 69.5682C276.354 70.2576 277.07 71.0758 277.631 72.0227C278.191 72.9697 278.559 74.0152 278.733 75.1591H274.438ZM287.539 67.7273V91H283.323V67.7273H287.539ZM305.072 74.125C304.966 73.1326 304.519 72.3598 303.731 71.8068C302.951 71.2538 301.936 70.9773 300.686 70.9773C299.807 70.9773 299.053 71.1098 298.424 71.375C297.795 71.6402 297.314 72 296.981 72.4545C296.648 72.9091 296.477 73.428 296.47 74.0114C296.47 74.4962 296.58 74.9167 296.799 75.2727C297.026 75.6288 297.333 75.9318 297.72 76.1818C298.106 76.4242 298.534 76.6288 299.004 76.7955C299.473 76.9621 299.947 77.1023 300.424 77.2159L302.606 77.7614C303.485 77.9659 304.33 78.2424 305.14 78.5909C305.958 78.9394 306.689 79.3788 307.333 79.9091C307.985 80.4394 308.5 81.0795 308.879 81.8295C309.258 82.5795 309.447 83.4583 309.447 84.4659C309.447 85.8295 309.098 87.0303 308.401 88.0682C307.705 89.0985 306.697 89.9053 305.379 90.4886C304.068 91.0644 302.481 91.3523 300.617 91.3523C298.807 91.3523 297.235 91.072 295.901 90.5114C294.576 89.9508 293.538 89.1326 292.788 88.0568C292.045 86.9811 291.644 85.6705 291.583 84.125H295.731C295.792 84.9356 296.042 85.6098 296.481 86.1477C296.92 86.6856 297.492 87.0871 298.197 87.3523C298.909 87.6174 299.705 87.75 300.583 87.75C301.5 87.75 302.303 87.6136 302.992 87.3409C303.689 87.0606 304.235 86.6742 304.629 86.1818C305.023 85.6818 305.223 85.0985 305.231 84.4318C305.223 83.8258 305.045 83.3258 304.697 82.9318C304.348 82.5303 303.86 82.197 303.231 81.9318C302.61 81.6591 301.883 81.4167 301.049 81.2045L298.401 80.5227C296.485 80.0303 294.97 79.2841 293.856 78.2841C292.75 77.2765 292.197 75.9394 292.197 74.2727C292.197 72.9015 292.568 71.7008 293.311 70.6705C294.061 69.6402 295.08 68.8409 296.367 68.2727C297.655 67.697 299.114 67.4091 300.742 67.4091C302.394 67.4091 303.841 67.697 305.083 68.2727C306.333 68.8409 307.314 69.6326 308.026 70.6477C308.739 71.6553 309.106 72.8144 309.129 74.125H305.072ZM312.503 71.2614V67.7273H331.071V71.2614H323.878V91H319.696V71.2614H312.503ZM339.186 67.7273V91H334.97V67.7273H339.186ZM363.992 75.5795H359.742C359.621 74.8826 359.397 74.2652 359.072 73.7273C358.746 73.1818 358.341 72.7197 357.856 72.3409C357.371 71.9621 356.818 71.678 356.197 71.4886C355.583 71.2917 354.92 71.1932 354.208 71.1932C352.943 71.1932 351.822 71.5114 350.844 72.1477C349.867 72.7765 349.102 73.7008 348.549 74.9205C347.996 76.1326 347.719 77.6136 347.719 79.3636C347.719 81.1439 347.996 82.6439 348.549 83.8636C349.11 85.0758 349.875 85.9924 350.844 86.6136C351.822 87.2273 352.939 87.5341 354.197 87.5341C354.894 87.5341 355.545 87.4432 356.151 87.2614C356.765 87.072 357.314 86.7955 357.799 86.4318C358.291 86.0682 358.704 85.6212 359.038 85.0909C359.379 84.5606 359.613 83.9545 359.742 83.2727L363.992 83.2955C363.833 84.4015 363.488 85.4394 362.958 86.4091C362.435 87.3788 361.75 88.2348 360.901 88.9773C360.053 89.7121 359.06 90.2879 357.924 90.7045C356.788 91.1136 355.526 91.3182 354.14 91.3182C352.094 91.3182 350.269 90.8447 348.663 89.8977C347.057 88.9508 345.791 87.5833 344.867 85.7955C343.943 84.0076 343.481 81.8636 343.481 79.3636C343.481 76.8561 343.947 74.7121 344.879 72.9318C345.81 71.1439 347.079 69.7765 348.685 68.8295C350.291 67.8826 352.11 67.4091 354.14 67.4091C355.435 67.4091 356.64 67.5909 357.754 67.9545C358.867 68.3182 359.86 68.8523 360.731 69.5568C361.602 70.2538 362.318 71.1098 362.879 72.125C363.447 73.1326 363.818 74.2841 363.992 75.5795ZM380.821 74.125C380.715 73.1326 380.268 72.3598 379.48 71.8068C378.699 71.2538 377.684 70.9773 376.434 70.9773C375.556 70.9773 374.802 71.1098 374.173 71.375C373.544 71.6402 373.063 72 372.73 72.4545C372.396 72.9091 372.226 73.428 372.218 74.0114C372.218 74.4962 372.328 74.9167 372.548 75.2727C372.775 75.6288 373.082 75.9318 373.468 76.1818C373.855 76.4242 374.283 76.6288 374.753 76.7955C375.222 76.9621 375.696 77.1023 376.173 77.2159L378.355 77.7614C379.234 77.9659 380.078 78.2424 380.889 78.5909C381.707 78.9394 382.438 79.3788 383.082 79.9091C383.734 80.4394 384.249 81.0795 384.628 81.8295C385.006 82.5795 385.196 83.4583 385.196 84.4659C385.196 85.8295 384.847 87.0303 384.15 88.0682C383.453 89.0985 382.446 89.9053 381.128 90.4886C379.817 91.0644 378.23 91.3523 376.366 91.3523C374.556 91.3523 372.984 91.072 371.65 90.5114C370.324 89.9508 369.287 89.1326 368.537 88.0568C367.794 86.9811 367.393 85.6705 367.332 84.125H371.48C371.54 84.9356 371.79 85.6098 372.23 86.1477C372.669 86.6856 373.241 87.0871 373.946 87.3523C374.658 87.6174 375.453 87.75 376.332 87.75C377.249 87.75 378.052 87.6136 378.741 87.3409C379.438 87.0606 379.984 86.6742 380.378 86.1818C380.771 85.6818 380.972 85.0985 380.98 84.4318C380.972 83.8258 380.794 83.3258 380.446 82.9318C380.097 82.5303 379.609 82.197 378.98 81.9318C378.359 81.6591 377.631 81.4167 376.798 81.2045L374.15 80.5227C372.234 80.0303 370.718 79.2841 369.605 78.2841C368.499 77.2765 367.946 75.9394 367.946 74.2727C367.946 72.9015 368.317 71.7008 369.059 70.6705C369.809 69.6402 370.828 68.8409 372.116 68.2727C373.404 67.697 374.862 67.4091 376.491 67.4091C378.143 67.4091 379.59 67.697 380.832 68.2727C382.082 68.8409 383.063 69.6326 383.775 70.6477C384.487 71.6553 384.855 72.8144 384.878 74.125H380.821Z" fill="white"/>
<rect x="1319.65" y="57" width="223.353" height="48" rx="24" fill="white"/>
<path d="M1343.28 88H1339.52V76.3636H1343.4C1344.54 76.3636 1345.52 76.5966 1346.34 77.0625C1347.16 77.5246 1347.78 78.1894 1348.22 79.0568C1348.66 79.9205 1348.88 80.9564 1348.88 82.1648C1348.88 83.3769 1348.66 84.4186 1348.21 85.2898C1347.78 86.161 1347.14 86.8314 1346.31 87.3011C1345.47 87.767 1344.46 88 1343.28 88ZM1341.27 86.4659H1343.19C1344.07 86.4659 1344.81 86.2992 1345.4 85.9659C1345.98 85.6288 1346.42 85.142 1346.71 84.5057C1347.01 83.8655 1347.15 83.0852 1347.15 82.1648C1347.15 81.2519 1347.01 80.4773 1346.71 79.8409C1346.43 79.2045 1346 78.7216 1345.42 78.392C1344.85 78.0625 1344.14 77.8977 1343.29 77.8977H1341.27V86.4659ZM1353.47 88.1932C1352.91 88.1932 1352.41 88.0909 1351.97 87.8864C1351.52 87.678 1351.16 87.3769 1350.9 86.983C1350.65 86.589 1350.52 86.1061 1350.52 85.5341C1350.52 85.0417 1350.61 84.6364 1350.8 84.3182C1350.99 84 1351.25 83.7481 1351.57 83.5625C1351.89 83.3769 1352.25 83.2367 1352.65 83.142C1353.05 83.0473 1353.45 82.9754 1353.86 82.9261C1354.39 82.8655 1354.81 82.8163 1355.14 82.7784C1355.46 82.7367 1355.7 82.6705 1355.85 82.5795C1355.99 82.4886 1356.07 82.3409 1356.07 82.1364V82.0966C1356.07 81.6004 1355.93 81.2159 1355.65 80.9432C1355.37 80.6705 1354.96 80.5341 1354.41 80.5341C1353.84 80.5341 1353.39 80.661 1353.06 80.9148C1352.73 81.1648 1352.51 81.4432 1352.38 81.75L1350.78 81.3864C1350.97 80.8561 1351.25 80.428 1351.61 80.1023C1351.98 79.7727 1352.4 79.5341 1352.88 79.3864C1353.36 79.2348 1353.86 79.1591 1354.39 79.1591C1354.73 79.1591 1355.1 79.2008 1355.49 79.2841C1355.89 79.3636 1356.26 79.5114 1356.6 79.7273C1356.94 79.9432 1357.22 80.2519 1357.44 80.6534C1357.66 81.0511 1357.77 81.5682 1357.77 82.2045V88H1356.11V86.8068H1356.05C1355.94 87.0265 1355.77 87.2424 1355.55 87.4545C1355.33 87.6667 1355.05 87.8428 1354.7 87.983C1354.36 88.1231 1353.95 88.1932 1353.47 88.1932ZM1353.84 86.8295C1354.31 86.8295 1354.71 86.7367 1355.04 86.5511C1355.38 86.3655 1355.63 86.1231 1355.81 85.8239C1355.98 85.5208 1356.07 85.197 1356.07 84.8523V83.7273C1356.01 83.7879 1355.9 83.8447 1355.72 83.8977C1355.55 83.947 1355.36 83.9905 1355.14 84.0284C1354.92 84.0625 1354.7 84.0947 1354.49 84.125C1354.29 84.1515 1354.11 84.1742 1353.97 84.1932C1353.64 84.2348 1353.34 84.3049 1353.07 84.4034C1352.8 84.5019 1352.58 84.6439 1352.42 84.8295C1352.26 85.0114 1352.18 85.2538 1352.18 85.5568C1352.18 85.9773 1352.34 86.2955 1352.65 86.5114C1352.96 86.7235 1353.35 86.8295 1353.84 86.8295ZM1364.11 79.2727V80.6364H1359.34V79.2727H1364.11ZM1360.62 77.1818H1362.32V85.4375C1362.32 85.767 1362.37 86.0152 1362.47 86.1818C1362.57 86.3447 1362.69 86.4564 1362.85 86.517C1363.01 86.5739 1363.18 86.6023 1363.37 86.6023C1363.5 86.6023 1363.62 86.5928 1363.72 86.5739C1363.83 86.5549 1363.9 86.5398 1363.96 86.5284L1364.27 87.9318C1364.17 87.9697 1364.03 88.0076 1363.85 88.0455C1363.67 88.0871 1363.44 88.1098 1363.17 88.1136C1362.72 88.1212 1362.3 88.0417 1361.92 87.875C1361.53 87.7083 1361.22 87.4508 1360.98 87.1023C1360.74 86.7538 1360.62 86.3163 1360.62 85.7898V77.1818ZM1369.66 88.1761C1368.8 88.1761 1368.06 87.9924 1367.43 87.625C1366.82 87.2538 1366.34 86.733 1366 86.0625C1365.67 85.3883 1365.5 84.5985 1365.5 83.6932C1365.5 82.7992 1365.67 82.0114 1366 81.3295C1366.34 80.6477 1366.81 80.1155 1367.41 79.733C1368.02 79.3504 1368.73 79.1591 1369.54 79.1591C1370.03 79.1591 1370.51 79.2405 1370.97 79.4034C1371.43 79.5663 1371.85 79.822 1372.21 80.1705C1372.58 80.5189 1372.87 80.9716 1373.08 81.5284C1373.29 82.0814 1373.4 82.7538 1373.4 83.5455V84.1477H1366.46V82.875H1371.74C1371.74 82.428 1371.64 82.0322 1371.46 81.6875C1371.28 81.339 1371.03 81.0644 1370.7 80.8636C1370.37 80.6629 1369.99 80.5625 1369.55 80.5625C1369.07 80.5625 1368.65 80.6799 1368.3 80.9148C1367.95 81.1458 1367.67 81.4489 1367.48 81.8239C1367.29 82.1951 1367.2 82.5985 1367.2 83.0341V84.0284C1367.2 84.6117 1367.3 85.108 1367.5 85.517C1367.71 85.9261 1368 86.2386 1368.37 86.4545C1368.74 86.6667 1369.18 86.7727 1369.67 86.7727C1370 86.7727 1370.29 86.7273 1370.55 86.6364C1370.82 86.5417 1371.05 86.4015 1371.24 86.2159C1371.43 86.0303 1371.58 85.8011 1371.68 85.5284L1373.29 85.8182C1373.16 86.2917 1372.93 86.7064 1372.6 87.0625C1372.27 87.4148 1371.86 87.6894 1371.36 87.8864C1370.86 88.0795 1370.29 88.1761 1369.66 88.1761Z" fill="#060606"/>
<rect x="1083" y="57" width="223.353" height="48" rx="24" fill="white"/>
<path d="M1102.87 88V76.3636H1107.02C1107.92 76.3636 1108.66 76.5189 1109.26 76.8295C1109.86 77.1402 1110.3 77.5701 1110.6 78.1193C1110.9 78.6648 1111.04 79.2955 1111.04 80.0114C1111.04 80.7235 1110.89 81.3504 1110.59 81.892C1110.3 82.4299 1109.85 82.8485 1109.25 83.1477C1108.66 83.447 1107.91 83.5966 1107.01 83.5966H1103.87V82.0852H1106.85C1107.42 82.0852 1107.88 82.0038 1108.24 81.8409C1108.6 81.678 1108.86 81.4413 1109.03 81.1307C1109.19 80.8201 1109.28 80.447 1109.28 80.0114C1109.28 79.572 1109.19 79.1913 1109.02 78.8693C1108.85 78.5473 1108.59 78.3011 1108.23 78.1307C1107.87 77.9564 1107.41 77.8693 1106.83 77.8693H1104.62V88H1102.87ZM1108.61 82.75L1111.49 88H1109.49L1106.67 82.75H1108.61ZM1116.7 88.1761C1115.84 88.1761 1115.1 87.9924 1114.47 87.625C1113.86 87.2538 1113.38 86.733 1113.04 86.0625C1112.71 85.3883 1112.54 84.5985 1112.54 83.6932C1112.54 82.7992 1112.71 82.0114 1113.04 81.3295C1113.38 80.6477 1113.85 80.1155 1114.45 79.733C1115.06 79.3504 1115.77 79.1591 1116.58 79.1591C1117.07 79.1591 1117.55 79.2405 1118.01 79.4034C1118.47 79.5663 1118.88 79.822 1119.25 80.1705C1119.62 80.5189 1119.91 80.9716 1120.12 81.5284C1120.33 82.0814 1120.44 82.7538 1120.44 83.5455V84.1477H1113.5V82.875H1118.77C1118.77 82.428 1118.68 82.0322 1118.5 81.6875C1118.32 81.339 1118.06 81.0644 1117.74 80.8636C1117.41 80.6629 1117.03 80.5625 1116.59 80.5625C1116.11 80.5625 1115.69 80.6799 1115.34 80.9148C1114.99 81.1458 1114.71 81.4489 1114.52 81.8239C1114.33 82.1951 1114.24 82.5985 1114.24 83.0341V84.0284C1114.24 84.6117 1114.34 85.108 1114.54 85.517C1114.75 85.9261 1115.04 86.2386 1115.41 86.4545C1115.78 86.6667 1116.22 86.7727 1116.71 86.7727C1117.03 86.7727 1117.33 86.7273 1117.59 86.6364C1117.86 86.5417 1118.09 86.4015 1118.28 86.2159C1118.47 86.0303 1118.62 85.8011 1118.72 85.5284L1120.33 85.8182C1120.2 86.2917 1119.97 86.7064 1119.64 87.0625C1119.31 87.4148 1118.89 87.6894 1118.39 87.8864C1117.9 88.0795 1117.33 88.1761 1116.7 88.1761ZM1125.98 91.4545C1125.29 91.4545 1124.69 91.3636 1124.19 91.1818C1123.7 91 1123.29 90.7595 1122.98 90.4602C1122.66 90.161 1122.43 89.8333 1122.27 89.4773L1123.73 88.875C1123.84 89.0417 1123.97 89.2178 1124.14 89.4034C1124.32 89.5928 1124.55 89.7538 1124.85 89.8864C1125.15 90.0189 1125.53 90.0852 1126 90.0852C1126.64 90.0852 1127.18 89.928 1127.6 89.6136C1128.02 89.303 1128.23 88.8068 1128.23 88.125V86.4091H1128.12C1128.02 86.5947 1127.87 86.8011 1127.68 87.0284C1127.49 87.2557 1127.23 87.4527 1126.89 87.6193C1126.56 87.786 1126.13 87.8693 1125.59 87.8693C1124.9 87.8693 1124.28 87.7083 1123.73 87.3864C1123.18 87.0606 1122.74 86.5814 1122.42 85.9489C1122.1 85.3125 1121.94 84.5303 1121.94 83.6023C1121.94 82.6742 1122.1 81.8788 1122.42 81.2159C1122.73 80.553 1123.17 80.0455 1123.72 79.6932C1124.28 79.3371 1124.9 79.1591 1125.6 79.1591C1126.14 79.1591 1126.58 79.25 1126.92 79.4318C1127.25 79.6098 1127.51 79.8182 1127.69 80.0568C1127.88 80.2955 1128.03 80.5057 1128.13 80.6875H1128.26V79.2727H1129.92V88.1932C1129.92 88.9432 1129.75 89.5587 1129.4 90.0398C1129.05 90.5208 1128.58 90.8769 1127.98 91.108C1127.39 91.339 1126.73 91.4545 1125.98 91.4545ZM1125.97 86.4602C1126.46 86.4602 1126.87 86.3466 1127.21 86.1193C1127.55 85.8883 1127.8 85.5587 1127.98 85.1307C1128.16 84.6989 1128.25 84.1818 1128.25 83.5795C1128.25 82.9924 1128.16 82.4754 1127.98 82.0284C1127.81 81.5814 1127.55 81.233 1127.22 80.983C1126.88 80.7292 1126.46 80.6023 1125.97 80.6023C1125.46 80.6023 1125.03 80.7348 1124.69 81C1124.35 81.2614 1124.09 81.6174 1123.92 82.0682C1123.75 82.5189 1123.66 83.0227 1123.66 83.5795C1123.66 84.1515 1123.75 84.6534 1123.92 85.0852C1124.1 85.517 1124.35 85.8542 1124.69 86.0966C1125.04 86.339 1125.46 86.4602 1125.97 86.4602ZM1132.2 88V79.2727H1133.9V88H1132.2ZM1133.06 77.9261C1132.76 77.9261 1132.51 77.8277 1132.3 77.6307C1132.09 77.4299 1131.98 77.1913 1131.98 76.9148C1131.98 76.6345 1132.09 76.3958 1132.3 76.1989C1132.51 75.9981 1132.76 75.8977 1133.06 75.8977C1133.35 75.8977 1133.6 75.9981 1133.81 76.1989C1134.03 76.3958 1134.13 76.6345 1134.13 76.9148C1134.13 77.1913 1134.03 77.4299 1133.81 77.6307C1133.6 77.8277 1133.35 77.9261 1133.06 77.9261ZM1139.86 88.1761C1139.04 88.1761 1138.33 87.9886 1137.72 87.6136C1137.11 87.2386 1136.63 86.714 1136.3 86.0398C1135.96 85.3655 1135.79 84.5777 1135.79 83.6761C1135.79 82.7708 1135.96 81.9792 1136.3 81.3011C1136.63 80.6231 1137.11 80.0966 1137.72 79.7216C1138.33 79.3466 1139.04 79.1591 1139.86 79.1591C1140.68 79.1591 1141.39 79.3466 1142 79.7216C1142.61 80.0966 1143.09 80.6231 1143.42 81.3011C1143.76 81.9792 1143.93 82.7708 1143.93 83.6761C1143.93 84.5777 1143.76 85.3655 1143.42 86.0398C1143.09 86.714 1142.61 87.2386 1142 87.6136C1141.39 87.9886 1140.68 88.1761 1139.86 88.1761ZM1139.87 86.75C1140.4 86.75 1140.84 86.6098 1141.18 86.3295C1141.53 86.0492 1141.79 85.6761 1141.96 85.2102C1142.13 84.7443 1142.21 84.2311 1142.21 83.6705C1142.21 83.1136 1142.13 82.6023 1141.96 82.1364C1141.79 81.6667 1141.53 81.2898 1141.18 81.0057C1140.84 80.7216 1140.4 80.5795 1139.87 80.5795C1139.33 80.5795 1138.89 80.7216 1138.54 81.0057C1138.19 81.2898 1137.93 81.6667 1137.76 82.1364C1137.59 82.6023 1137.51 83.1136 1137.51 83.6705C1137.51 84.2311 1137.59 84.7443 1137.76 85.2102C1137.93 85.6761 1138.19 86.0492 1138.54 86.3295C1138.89 86.6098 1139.33 86.75 1139.87 86.75ZM1147.52 82.8182V88H1145.82V79.2727H1147.46V80.6932H1147.56C1147.76 80.2311 1148.08 79.8598 1148.51 79.5795C1148.94 79.2992 1149.48 79.1591 1150.14 79.1591C1150.73 79.1591 1151.25 79.2841 1151.7 79.5341C1152.15 79.7803 1152.49 80.1477 1152.74 80.6364C1152.99 81.125 1153.11 81.7292 1153.11 82.4489V88H1151.41V82.6534C1151.41 82.0208 1151.25 81.5265 1150.92 81.1705C1150.59 80.8106 1150.13 80.6307 1149.56 80.6307C1149.16 80.6307 1148.81 80.7159 1148.51 80.8864C1148.2 81.0568 1147.96 81.3068 1147.78 81.6364C1147.61 81.9621 1147.52 82.3561 1147.52 82.8182Z" fill="#060606"/>
<defs>
<filter id="filter0_d_251_574" x="35" y="136" width="297" height="138" filterUnits="userSpaceOnUse" color-interpolation-filters="sRGB">
<feFlood flood-opacity="0" result="BackgroundImageFix"/>
<feColorMatrix in="SourceAlpha" type="matrix" values="0 0 0 0 0 0 0 0 0 0 0 0 0 0 0 0 0 0 127 0" result="hardAlpha"/>
<feOffset dx="2" dy="4"/>
<feGaussianBlur stdDeviation="2"/>
<feComposite in2="hardAlpha" operator="out"/>
<feColorMatrix type="matrix" values="0 0 0 0 0.604167 0 0 0 0 0.604167 0 0 0 0 0.604167 0 0 0 1 0"/>
<feBlend mode="normal" in2="BackgroundImageFix" result="effect1_dropShadow_251_574"/>
<feBlend mode="normal" in="SourceGraphic" in2="effect1_dropShadow_251_574" result="shape"/>
</filter>
<filter id="filter1_d_251_574" x="1252" y="136" width="297" height="138" filterUnits="userSpaceOnUse" color-interpolation-filters="sRGB">
<feFlood flood-opacity="0" result="BackgroundImageFix"/>
<feColorMatrix in="SourceAlpha" type="matrix" values="0 0 0 0 0 0 0 0 0 0 0 0 0 0 0 0 0 0 127 0" result="hardAlpha"/>
<feOffset dx="2" dy="4"/>
<feGaussianBlur stdDeviation="2"/>
<feComposite in2="hardAlpha" operator="out"/>
<feColorMatrix type="matrix" values="0 0 0 0 0.604167 0 0 0 0 0.604167 0 0 0 0 0.604167 0 0 0 1 0"/>
<feBlend mode="normal" in2="BackgroundImageFix" result="effect1_dropShadow_251_574"/>
<feBlend mode="normal" in="SourceGraphic" in2="effect1_dropShadow_251_574" result="shape"/>
</filter>
<filter id="filter2_d_251_574" x="947" y="136" width="297" height="138" filterUnits="userSpaceOnUse" color-interpolation-filters="sRGB">
<feFlood flood-opacity="0" result="BackgroundImageFix"/>
<feColorMatrix in="SourceAlpha" type="matrix" values="0 0 0 0 0 0 0 0 0 0 0 0 0 0 0 0 0 0 127 0" result="hardAlpha"/>
<feOffset dx="2" dy="4"/>
<feGaussianBlur stdDeviation="2"/>
<feComposite in2="hardAlpha" operator="out"/>
<feColorMatrix type="matrix" values="0 0 0 0 0.604167 0 0 0 0 0.604167 0 0 0 0 0.604167 0 0 0 1 0"/>
<feBlend mode="normal" in2="BackgroundImageFix" result="effect1_dropShadow_251_574"/>
<feBlend mode="normal" in="SourceGraphic" in2="effect1_dropShadow_251_574" result="shape"/>
</filter>
<filter id="filter3_d_251_574" x="643" y="136" width="297" height="138" filterUnits="userSpaceOnUse" color-interpolation-filters="sRGB">
<feFlood flood-opacity="0" result="BackgroundImageFix"/>
<feColorMatrix in="SourceAlpha" type="matrix" values="0 0 0 0 0 0 0 0 0 0 0 0 0 0 0 0 0 0 127 0" result="hardAlpha"/>
<feOffset dx="2" dy="4"/>
<feGaussianBlur stdDeviation="2"/>
<feComposite in2="hardAlpha" operator="out"/>
<feColorMatrix type="matrix" values="0 0 0 0 0.604167 0 0 0 0 0.604167 0 0 0 0 0.604167 0 0 0 1 0"/>
<feBlend mode="normal" in2="BackgroundImageFix" result="effect1_dropShadow_251_574"/>
<feBlend mode="normal" in="SourceGraphic" in2="effect1_dropShadow_251_574" result="shape"/>
</filter>
<filter id="filter4_d_251_574" x="339" y="136" width="297" height="138" filterUnits="userSpaceOnUse" color-interpolation-filters="sRGB">
<feFlood flood-opacity="0" result="BackgroundImageFix"/>
<feColorMatrix in="SourceAlpha" type="matrix" values="0 0 0 0 0 0 0 0 0 0 0 0 0 0 0 0 0 0 127 0" result="hardAlpha"/>
<feOffset dx="2" dy="4"/>
<feGaussianBlur stdDeviation="2"/>
<feComposite in2="hardAlpha" operator="out"/>
<feColorMatrix type="matrix" values="0 0 0 0 0.604167 0 0 0 0 0.604167 0 0 0 0 0.604167 0 0 0 1 0"/>
<feBlend mode="normal" in2="BackgroundImageFix" result="effect1_dropShadow_251_574"/>
<feBlend mode="normal" in="SourceGraphic" in2="effect1_dropShadow_251_574" result="shape"/>
</filter>
</defs>
</svg>
