<svg width="1580" height="908" viewBox="0 0 1580 908" fill="none" xmlns="http://www.w3.org/2000/svg">
<rect width="1580" height="908" fill="white"/>
<rect x="22" y="22" width="1536" height="864" rx="10" fill="#EBDFD7"/>
<path d="M22 32C22 26.4772 26.4772 22 32 22H1548C1553.52 22 1558 26.4772 1558 32V206H22V32Z" fill="#060606"/>
<rect x="37" y="282" width="708" height="589" rx="14" fill="white"/>
<rect x="760" y="527" width="783" height="344" rx="14" fill="white"/>
<path d="M777.261 557H775.398L779.585 545.364H781.614L785.801 557H783.938L780.648 547.477H780.557L777.261 557ZM777.574 552.443H783.619V553.92H777.574V552.443ZM793.877 548.273L790.713 557H788.894L785.724 548.273H787.548L789.758 554.989H789.849L792.053 548.273H793.877ZM798.996 560.455C798.303 560.455 797.706 560.364 797.206 560.182C796.71 560 796.305 559.759 795.99 559.46C795.676 559.161 795.441 558.833 795.286 558.477L796.746 557.875C796.848 558.042 796.985 558.218 797.155 558.403C797.329 558.593 797.564 558.754 797.86 558.886C798.159 559.019 798.543 559.085 799.013 559.085C799.657 559.085 800.189 558.928 800.61 558.614C801.03 558.303 801.24 557.807 801.24 557.125V555.409H801.132C801.03 555.595 800.882 555.801 800.689 556.028C800.5 556.256 800.239 556.453 799.905 556.619C799.572 556.786 799.138 556.869 798.604 556.869C797.915 556.869 797.293 556.708 796.74 556.386C796.191 556.061 795.756 555.581 795.434 554.949C795.115 554.312 794.956 553.53 794.956 552.602C794.956 551.674 795.114 550.879 795.428 550.216C795.746 549.553 796.182 549.045 796.735 548.693C797.288 548.337 797.915 548.159 798.615 548.159C799.157 548.159 799.595 548.25 799.928 548.432C800.261 548.61 800.521 548.818 800.706 549.057C800.896 549.295 801.042 549.506 801.144 549.688H801.269V548.273H802.934V557.193C802.934 557.943 802.759 558.559 802.411 559.04C802.062 559.521 801.591 559.877 800.996 560.108C800.405 560.339 799.739 560.455 798.996 560.455ZM798.979 555.46C799.468 555.46 799.881 555.347 800.218 555.119C800.559 554.888 800.816 554.559 800.99 554.131C801.168 553.699 801.257 553.182 801.257 552.58C801.257 551.992 801.17 551.475 800.996 551.028C800.822 550.581 800.566 550.233 800.229 549.983C799.892 549.729 799.475 549.602 798.979 549.602C798.468 549.602 798.042 549.735 797.701 550C797.36 550.261 797.102 550.617 796.928 551.068C796.757 551.519 796.672 552.023 796.672 552.58C796.672 553.152 796.759 553.653 796.934 554.085C797.108 554.517 797.365 554.854 797.706 555.097C798.051 555.339 798.475 555.46 798.979 555.46ZM806.491 557.108C806.181 557.108 805.914 556.998 805.69 556.778C805.467 556.555 805.355 556.286 805.355 555.972C805.355 555.661 805.467 555.396 805.69 555.176C805.914 554.953 806.181 554.841 806.491 554.841C806.802 554.841 807.069 554.953 807.292 555.176C807.516 555.396 807.628 555.661 807.628 555.972C807.628 556.18 807.575 556.371 807.469 556.545C807.366 556.716 807.23 556.852 807.06 556.955C806.889 557.057 806.7 557.108 806.491 557.108ZM814.407 545.364H816.537L820.242 554.409H820.378L824.083 545.364H826.213V557H824.543V548.58H824.435L821.003 556.983H819.617L816.185 548.574H816.077V557H814.407V545.364ZM832.466 557.176C831.647 557.176 830.933 556.989 830.324 556.614C829.714 556.239 829.24 555.714 828.903 555.04C828.566 554.366 828.397 553.578 828.397 552.676C828.397 551.771 828.566 550.979 828.903 550.301C829.24 549.623 829.714 549.097 830.324 548.722C830.933 548.347 831.647 548.159 832.466 548.159C833.284 548.159 833.998 548.347 834.608 548.722C835.218 549.097 835.691 549.623 836.028 550.301C836.365 550.979 836.534 551.771 836.534 552.676C836.534 553.578 836.365 554.366 836.028 555.04C835.691 555.714 835.218 556.239 834.608 556.614C833.998 556.989 833.284 557.176 832.466 557.176ZM832.471 555.75C833.002 555.75 833.441 555.61 833.79 555.33C834.138 555.049 834.396 554.676 834.562 554.21C834.733 553.744 834.818 553.231 834.818 552.67C834.818 552.114 834.733 551.602 834.562 551.136C834.396 550.667 834.138 550.29 833.79 550.006C833.441 549.722 833.002 549.58 832.471 549.58C831.937 549.58 831.494 549.722 831.142 550.006C830.793 550.29 830.534 550.667 830.363 551.136C830.197 551.602 830.113 552.114 830.113 552.67C830.113 553.231 830.197 553.744 830.363 554.21C830.534 554.676 830.793 555.049 831.142 555.33C831.494 555.61 831.937 555.75 832.471 555.75ZM845.759 548.273L842.594 557H840.776L837.606 548.273H839.43L841.64 554.989H841.731L843.935 548.273H845.759ZM850.98 557.176C850.12 557.176 849.38 556.992 848.759 556.625C848.141 556.254 847.664 555.733 847.327 555.062C846.994 554.388 846.827 553.598 846.827 552.693C846.827 551.799 846.994 551.011 847.327 550.33C847.664 549.648 848.134 549.116 848.736 548.733C849.342 548.35 850.05 548.159 850.861 548.159C851.353 548.159 851.831 548.241 852.293 548.403C852.755 548.566 853.17 548.822 853.537 549.17C853.905 549.519 854.194 549.972 854.406 550.528C854.619 551.081 854.725 551.754 854.725 552.545V553.148H847.787V551.875H853.06C853.06 551.428 852.969 551.032 852.787 550.688C852.605 550.339 852.35 550.064 852.02 549.864C851.694 549.663 851.312 549.562 850.872 549.562C850.395 549.562 849.978 549.68 849.622 549.915C849.27 550.146 848.997 550.449 848.804 550.824C848.615 551.195 848.52 551.598 848.52 552.034V553.028C848.52 553.612 848.622 554.108 848.827 554.517C849.035 554.926 849.325 555.239 849.696 555.455C850.067 555.667 850.501 555.773 850.997 555.773C851.319 555.773 851.613 555.727 851.878 555.636C852.143 555.542 852.372 555.402 852.566 555.216C852.759 555.03 852.906 554.801 853.009 554.528L854.617 554.818C854.488 555.292 854.257 555.706 853.923 556.062C853.594 556.415 853.179 556.689 852.679 556.886C852.183 557.08 851.617 557.176 850.98 557.176ZM865.067 557H861.3V545.364H865.187C866.327 545.364 867.306 545.597 868.124 546.062C868.942 546.525 869.569 547.189 870.005 548.057C870.444 548.92 870.664 549.956 870.664 551.165C870.664 552.377 870.442 553.419 869.999 554.29C869.56 555.161 868.923 555.831 868.09 556.301C867.257 556.767 866.249 557 865.067 557ZM863.056 555.466H864.971C865.857 555.466 866.594 555.299 867.181 554.966C867.768 554.629 868.207 554.142 868.499 553.506C868.791 552.866 868.937 552.085 868.937 551.165C868.937 550.252 868.791 549.477 868.499 548.841C868.211 548.205 867.781 547.722 867.209 547.392C866.637 547.062 865.927 546.898 865.079 546.898H863.056V555.466ZM878.399 553.381V548.273H880.104V557H878.433V555.489H878.342C878.142 555.955 877.82 556.343 877.376 556.653C876.937 556.96 876.39 557.114 875.734 557.114C875.174 557.114 874.678 556.991 874.246 556.744C873.818 556.494 873.481 556.125 873.234 555.636C872.992 555.148 872.871 554.544 872.871 553.824V548.273H874.57V553.619C874.57 554.214 874.734 554.687 875.064 555.04C875.394 555.392 875.822 555.568 876.348 555.568C876.666 555.568 876.983 555.489 877.297 555.33C877.615 555.17 877.878 554.93 878.087 554.608C878.299 554.286 878.403 553.877 878.399 553.381ZM882.546 557V548.273H884.188V549.659H884.279C884.438 549.189 884.719 548.82 885.12 548.551C885.526 548.278 885.984 548.142 886.495 548.142C886.601 548.142 886.726 548.146 886.87 548.153C887.018 548.161 887.134 548.17 887.217 548.182V549.807C887.149 549.788 887.027 549.767 886.853 549.744C886.679 549.718 886.505 549.705 886.331 549.705C885.929 549.705 885.571 549.79 885.257 549.96C884.946 550.127 884.7 550.36 884.518 550.659C884.336 550.955 884.245 551.292 884.245 551.67V557H882.546ZM891.309 557.193C890.756 557.193 890.256 557.091 889.809 556.886C889.362 556.678 889.008 556.377 888.746 555.983C888.489 555.589 888.36 555.106 888.36 554.534C888.36 554.042 888.455 553.636 888.644 553.318C888.833 553 889.089 552.748 889.411 552.562C889.733 552.377 890.093 552.237 890.491 552.142C890.888 552.047 891.294 551.975 891.706 551.926C892.229 551.866 892.653 551.816 892.979 551.778C893.305 551.737 893.542 551.67 893.689 551.58C893.837 551.489 893.911 551.341 893.911 551.136V551.097C893.911 550.6 893.771 550.216 893.491 549.943C893.214 549.67 892.801 549.534 892.252 549.534C891.68 549.534 891.229 549.661 890.9 549.915C890.574 550.165 890.348 550.443 890.223 550.75L888.627 550.386C888.816 549.856 889.093 549.428 889.456 549.102C889.824 548.773 890.246 548.534 890.723 548.386C891.201 548.235 891.703 548.159 892.229 548.159C892.578 548.159 892.947 548.201 893.337 548.284C893.731 548.364 894.098 548.511 894.439 548.727C894.784 548.943 895.066 549.252 895.286 549.653C895.506 550.051 895.616 550.568 895.616 551.205V557H893.956V555.807H893.888C893.778 556.027 893.614 556.242 893.394 556.455C893.174 556.667 892.892 556.843 892.547 556.983C892.203 557.123 891.79 557.193 891.309 557.193ZM891.678 555.83C892.148 555.83 892.549 555.737 892.883 555.551C893.22 555.366 893.475 555.123 893.65 554.824C893.828 554.521 893.917 554.197 893.917 553.852V552.727C893.856 552.788 893.739 552.845 893.564 552.898C893.394 552.947 893.199 552.991 892.979 553.028C892.759 553.062 892.545 553.095 892.337 553.125C892.129 553.152 891.955 553.174 891.814 553.193C891.485 553.235 891.184 553.305 890.911 553.403C890.642 553.502 890.426 553.644 890.263 553.83C890.104 554.011 890.025 554.254 890.025 554.557C890.025 554.977 890.18 555.295 890.491 555.511C890.801 555.723 891.197 555.83 891.678 555.83ZM902.112 548.273V549.636H897.345V548.273H902.112ZM898.624 546.182H900.322V554.438C900.322 554.767 900.372 555.015 900.47 555.182C900.569 555.345 900.695 555.456 900.851 555.517C901.01 555.574 901.182 555.602 901.368 555.602C901.504 555.602 901.624 555.593 901.726 555.574C901.828 555.555 901.908 555.54 901.964 555.528L902.271 556.932C902.173 556.97 902.033 557.008 901.851 557.045C901.669 557.087 901.442 557.11 901.169 557.114C900.722 557.121 900.305 557.042 899.919 556.875C899.533 556.708 899.22 556.451 898.981 556.102C898.743 555.754 898.624 555.316 898.624 554.79V546.182ZM904.151 557V548.273H905.85V557H904.151ZM905.009 546.926C904.714 546.926 904.46 546.828 904.248 546.631C904.04 546.43 903.936 546.191 903.936 545.915C903.936 545.634 904.04 545.396 904.248 545.199C904.46 544.998 904.714 544.898 905.009 544.898C905.305 544.898 905.557 544.998 905.765 545.199C905.977 545.396 906.083 545.634 906.083 545.915C906.083 546.191 905.977 546.43 905.765 546.631C905.557 546.828 905.305 546.926 905.009 546.926ZM911.972 557.176C911.154 557.176 910.44 556.989 909.83 556.614C909.22 556.239 908.747 555.714 908.409 555.04C908.072 554.366 907.904 553.578 907.904 552.676C907.904 551.771 908.072 550.979 908.409 550.301C908.747 549.623 909.22 549.097 909.83 548.722C910.44 548.347 911.154 548.159 911.972 548.159C912.79 548.159 913.504 548.347 914.114 548.722C914.724 549.097 915.197 549.623 915.534 550.301C915.872 550.979 916.04 551.771 916.04 552.676C916.04 553.578 915.872 554.366 915.534 555.04C915.197 555.714 914.724 556.239 914.114 556.614C913.504 556.989 912.79 557.176 911.972 557.176ZM911.978 555.75C912.508 555.75 912.947 555.61 913.296 555.33C913.644 555.049 913.902 554.676 914.069 554.21C914.239 553.744 914.324 553.231 914.324 552.67C914.324 552.114 914.239 551.602 914.069 551.136C913.902 550.667 913.644 550.29 913.296 550.006C912.947 549.722 912.508 549.58 911.978 549.58C911.444 549.58 911 549.722 910.648 550.006C910.3 550.29 910.04 550.667 909.87 551.136C909.703 551.602 909.62 552.114 909.62 552.67C909.62 553.231 909.703 553.744 909.87 554.21C910.04 554.676 910.3 555.049 910.648 555.33C911 555.61 911.444 555.75 911.978 555.75ZM919.795 551.818V557H918.096V548.273H919.727V549.693H919.835C920.036 549.231 920.35 548.86 920.778 548.58C921.21 548.299 921.754 548.159 922.409 548.159C923.004 548.159 923.524 548.284 923.971 548.534C924.418 548.78 924.765 549.148 925.011 549.636C925.257 550.125 925.381 550.729 925.381 551.449V557H923.682V551.653C923.682 551.021 923.517 550.527 923.187 550.17C922.858 549.811 922.405 549.631 921.829 549.631C921.435 549.631 921.085 549.716 920.778 549.886C920.475 550.057 920.235 550.307 920.057 550.636C919.882 550.962 919.795 551.356 919.795 551.818ZM935.6 557.165C934.819 557.165 934.147 557.023 933.583 556.739C933.022 556.455 932.59 556.068 932.287 555.58C931.984 555.087 931.833 554.53 931.833 553.909C931.833 553.436 931.931 553.015 932.128 552.648C932.325 552.277 932.6 551.934 932.952 551.619C933.304 551.305 933.711 550.989 934.174 550.67L936.049 549.347C936.367 549.138 936.615 548.919 936.793 548.688C936.971 548.453 937.06 548.163 937.06 547.818C937.06 547.545 936.942 547.284 936.708 547.034C936.473 546.784 936.158 546.659 935.764 546.659C935.492 546.659 935.251 546.725 935.043 546.858C934.838 546.991 934.677 547.161 934.56 547.369C934.446 547.574 934.389 547.79 934.389 548.017C934.389 548.282 934.461 548.549 934.605 548.818C934.753 549.087 934.942 549.366 935.174 549.653C935.405 549.937 935.647 550.233 935.901 550.54L941.304 557H939.384L934.912 551.744C934.537 551.301 934.189 550.884 933.867 550.494C933.545 550.1 933.283 549.703 933.083 549.301C932.886 548.896 932.787 548.458 932.787 547.989C932.787 547.455 932.908 546.981 933.151 546.568C933.397 546.152 933.74 545.826 934.179 545.591C934.619 545.356 935.134 545.239 935.725 545.239C936.323 545.239 936.836 545.356 937.264 545.591C937.696 545.822 938.028 546.131 938.259 546.517C938.494 546.9 938.611 547.318 938.611 547.773C938.611 548.326 938.473 548.814 938.196 549.239C937.924 549.659 937.547 550.045 937.066 550.398L934.73 552.119C934.276 552.453 933.96 552.782 933.781 553.108C933.607 553.43 933.52 553.682 933.52 553.864C933.52 554.197 933.605 554.506 933.776 554.79C933.95 555.074 934.192 555.301 934.503 555.472C934.817 555.642 935.185 555.727 935.605 555.727C936.037 555.727 936.458 555.634 936.867 555.449C937.28 555.259 937.653 554.989 937.986 554.636C938.323 554.284 938.59 553.862 938.787 553.369C938.984 552.877 939.083 552.326 939.083 551.716H940.617C940.617 552.466 940.531 553.1 940.361 553.619C940.191 554.134 939.984 554.555 939.742 554.881C939.503 555.203 939.278 555.455 939.066 555.636C938.997 555.697 938.933 555.758 938.872 555.818C938.812 555.879 938.747 555.939 938.679 556C938.285 556.398 937.808 556.691 937.247 556.881C936.691 557.07 936.141 557.165 935.6 557.165ZM956.991 549.148H955.218C955.15 548.769 955.023 548.436 954.837 548.148C954.652 547.86 954.424 547.616 954.155 547.415C953.887 547.214 953.585 547.062 953.252 546.96C952.923 546.858 952.572 546.807 952.201 546.807C951.53 546.807 950.93 546.975 950.4 547.312C949.873 547.65 949.457 548.144 949.15 548.795C948.847 549.447 948.695 550.242 948.695 551.182C948.695 552.129 948.847 552.928 949.15 553.58C949.457 554.231 949.875 554.723 950.405 555.057C950.936 555.39 951.532 555.557 952.195 555.557C952.563 555.557 952.911 555.508 953.241 555.409C953.574 555.307 953.875 555.157 954.144 554.96C954.413 554.763 954.64 554.523 954.826 554.239C955.015 553.951 955.146 553.621 955.218 553.25L956.991 553.256C956.896 553.828 956.712 554.354 956.44 554.835C956.171 555.312 955.824 555.725 955.4 556.074C954.979 556.419 954.498 556.686 953.957 556.875C953.415 557.064 952.824 557.159 952.184 557.159C951.176 557.159 950.279 556.92 949.491 556.443C948.703 555.962 948.082 555.275 947.627 554.381C947.176 553.487 946.951 552.42 946.951 551.182C946.951 549.939 947.178 548.873 947.633 547.983C948.087 547.089 948.708 546.403 949.496 545.926C950.284 545.445 951.18 545.205 952.184 545.205C952.801 545.205 953.377 545.294 953.911 545.472C954.449 545.646 954.932 545.903 955.36 546.244C955.788 546.581 956.142 546.994 956.423 547.483C956.703 547.968 956.892 548.523 956.991 549.148ZM962.791 557.176C961.973 557.176 961.259 556.989 960.649 556.614C960.039 556.239 959.566 555.714 959.229 555.04C958.892 554.366 958.723 553.578 958.723 552.676C958.723 551.771 958.892 550.979 959.229 550.301C959.566 549.623 960.039 549.097 960.649 548.722C961.259 548.347 961.973 548.159 962.791 548.159C963.609 548.159 964.324 548.347 964.933 548.722C965.543 549.097 966.017 549.623 966.354 550.301C966.691 550.979 966.859 551.771 966.859 552.676C966.859 553.578 966.691 554.366 966.354 555.04C966.017 555.714 965.543 556.239 964.933 556.614C964.324 556.989 963.609 557.176 962.791 557.176ZM962.797 555.75C963.327 555.75 963.767 555.61 964.115 555.33C964.464 555.049 964.721 554.676 964.888 554.21C965.058 553.744 965.144 553.231 965.144 552.67C965.144 552.114 965.058 551.602 964.888 551.136C964.721 550.667 964.464 550.29 964.115 550.006C963.767 549.722 963.327 549.58 962.797 549.58C962.263 549.58 961.82 549.722 961.467 550.006C961.119 550.29 960.859 550.667 960.689 551.136C960.522 551.602 960.439 552.114 960.439 552.67C960.439 553.231 960.522 553.744 960.689 554.21C960.859 554.676 961.119 555.049 961.467 555.33C961.82 555.61 962.263 555.75 962.797 555.75ZM970.615 551.818V557H968.916V548.273H970.546V549.693H970.654C970.855 549.231 971.17 548.86 971.598 548.58C972.029 548.299 972.573 548.159 973.228 548.159C973.823 548.159 974.344 548.284 974.791 548.534C975.238 548.78 975.584 549.148 975.831 549.636C976.077 550.125 976.2 550.729 976.2 551.449V557H974.501V551.653C974.501 551.021 974.336 550.527 974.007 550.17C973.677 549.811 973.225 549.631 972.649 549.631C972.255 549.631 971.904 549.716 971.598 549.886C971.295 550.057 971.054 550.307 970.876 550.636C970.702 550.962 970.615 551.356 970.615 551.818ZM982.712 548.273V549.636H977.945V548.273H982.712ZM979.224 546.182H980.922V554.438C980.922 554.767 980.972 555.015 981.07 555.182C981.169 555.345 981.295 555.456 981.451 555.517C981.61 555.574 981.782 555.602 981.968 555.602C982.104 555.602 982.224 555.593 982.326 555.574C982.428 555.555 982.508 555.54 982.564 555.528L982.871 556.932C982.773 556.97 982.633 557.008 982.451 557.045C982.269 557.087 982.042 557.11 981.769 557.114C981.322 557.121 980.905 557.042 980.519 556.875C980.133 556.708 979.82 556.451 979.581 556.102C979.343 555.754 979.224 555.316 979.224 554.79V546.182ZM987.291 557.193C986.738 557.193 986.238 557.091 985.791 556.886C985.344 556.678 984.99 556.377 984.729 555.983C984.471 555.589 984.342 555.106 984.342 554.534C984.342 554.042 984.437 553.636 984.626 553.318C984.816 553 985.071 552.748 985.393 552.562C985.715 552.377 986.075 552.237 986.473 552.142C986.871 552.047 987.276 551.975 987.689 551.926C988.212 551.866 988.636 551.816 988.962 551.778C989.287 551.737 989.524 551.67 989.672 551.58C989.82 551.489 989.893 551.341 989.893 551.136V551.097C989.893 550.6 989.753 550.216 989.473 549.943C989.196 549.67 988.784 549.534 988.234 549.534C987.662 549.534 987.212 549.661 986.882 549.915C986.556 550.165 986.331 550.443 986.206 550.75L984.609 550.386C984.799 549.856 985.075 549.428 985.439 549.102C985.806 548.773 986.229 548.534 986.706 548.386C987.183 548.235 987.685 548.159 988.212 548.159C988.56 548.159 988.929 548.201 989.32 548.284C989.714 548.364 990.081 548.511 990.422 548.727C990.767 548.943 991.049 549.252 991.268 549.653C991.488 550.051 991.598 550.568 991.598 551.205V557H989.939V555.807H989.871C989.761 556.027 989.596 556.242 989.376 556.455C989.157 556.667 988.875 556.843 988.53 556.983C988.185 557.123 987.772 557.193 987.291 557.193ZM987.661 555.83C988.13 555.83 988.532 555.737 988.865 555.551C989.202 555.366 989.458 555.123 989.632 554.824C989.81 554.521 989.899 554.197 989.899 553.852V552.727C989.839 552.788 989.721 552.845 989.547 552.898C989.376 552.947 989.181 552.991 988.962 553.028C988.742 553.062 988.528 553.095 988.32 553.125C988.111 553.152 987.937 553.174 987.797 553.193C987.467 553.235 987.166 553.305 986.893 553.403C986.625 553.502 986.409 553.644 986.246 553.83C986.087 554.011 986.007 554.254 986.007 554.557C986.007 554.977 986.162 555.295 986.473 555.511C986.784 555.723 987.179 555.83 987.661 555.83ZM994.021 557V548.273H995.72V557H994.021ZM994.879 546.926C994.583 546.926 994.33 546.828 994.117 546.631C993.909 546.43 993.805 546.191 993.805 545.915C993.805 545.634 993.909 545.396 994.117 545.199C994.33 544.998 994.583 544.898 994.879 544.898C995.174 544.898 995.426 544.998 995.634 545.199C995.847 545.396 995.953 545.634 995.953 545.915C995.953 546.191 995.847 546.43 995.634 546.631C995.426 546.828 995.174 546.926 994.879 546.926ZM999.864 551.818V557H998.165V548.273H999.796V549.693H999.904C1000.1 549.231 1000.42 548.86 1000.85 548.58C1001.28 548.299 1001.82 548.159 1002.48 548.159C1003.07 548.159 1003.59 548.284 1004.04 548.534C1004.49 548.78 1004.83 549.148 1005.08 549.636C1005.33 550.125 1005.45 550.729 1005.45 551.449V557H1003.75V551.653C1003.75 551.021 1003.59 550.527 1003.26 550.17C1002.93 549.811 1002.47 549.631 1001.9 549.631C1001.5 549.631 1001.15 549.716 1000.85 549.886C1000.54 550.057 1000.3 550.307 1000.13 550.636C999.951 550.962 999.864 551.356 999.864 551.818ZM1011.65 557.176C1010.79 557.176 1010.05 556.992 1009.43 556.625C1008.81 556.254 1008.33 555.733 1008 555.062C1007.66 554.388 1007.5 553.598 1007.5 552.693C1007.5 551.799 1007.66 551.011 1008 550.33C1008.33 549.648 1008.8 549.116 1009.4 548.733C1010.01 548.35 1010.72 548.159 1011.53 548.159C1012.02 548.159 1012.5 548.241 1012.96 548.403C1013.42 548.566 1013.84 548.822 1014.21 549.17C1014.57 549.519 1014.86 549.972 1015.08 550.528C1015.29 551.081 1015.39 551.754 1015.39 552.545V553.148H1008.46V551.875H1013.73C1013.73 551.428 1013.64 551.032 1013.46 550.688C1013.27 550.339 1013.02 550.064 1012.69 549.864C1012.36 549.663 1011.98 549.562 1011.54 549.562C1011.06 549.562 1010.65 549.68 1010.29 549.915C1009.94 550.146 1009.67 550.449 1009.47 550.824C1009.28 551.195 1009.19 551.598 1009.19 552.034V553.028C1009.19 553.612 1009.29 554.108 1009.5 554.517C1009.7 554.926 1009.99 555.239 1010.36 555.455C1010.74 555.667 1011.17 555.773 1011.67 555.773C1011.99 555.773 1012.28 555.727 1012.55 555.636C1012.81 555.542 1013.04 555.402 1013.23 555.216C1013.43 555.03 1013.58 554.801 1013.68 554.528L1015.29 554.818C1015.16 555.292 1014.93 555.706 1014.59 556.062C1014.26 556.415 1013.85 556.689 1013.35 556.886C1012.85 557.08 1012.29 557.176 1011.65 557.176ZM1017.44 557V548.273H1019.08V549.659H1019.17C1019.33 549.189 1019.61 548.82 1020.01 548.551C1020.42 548.278 1020.88 548.142 1021.39 548.142C1021.49 548.142 1021.62 548.146 1021.76 548.153C1021.91 548.161 1022.03 548.17 1022.11 548.182V549.807C1022.04 549.788 1021.92 549.767 1021.75 549.744C1021.57 549.718 1021.4 549.705 1021.22 549.705C1020.82 549.705 1020.46 549.79 1020.15 549.96C1019.84 550.127 1019.59 550.36 1019.41 550.659C1019.23 550.955 1019.14 551.292 1019.14 551.67V557H1017.44ZM1030.28 550.403L1028.74 550.676C1028.67 550.479 1028.57 550.292 1028.43 550.114C1028.3 549.936 1028.11 549.79 1027.88 549.676C1027.64 549.562 1027.35 549.506 1026.99 549.506C1026.51 549.506 1026.11 549.614 1025.79 549.83C1025.47 550.042 1025.31 550.316 1025.31 550.653C1025.31 550.945 1025.42 551.18 1025.63 551.358C1025.85 551.536 1026.2 551.682 1026.68 551.795L1028.06 552.114C1028.87 552.299 1029.46 552.585 1029.86 552.972C1030.25 553.358 1030.45 553.86 1030.45 554.477C1030.45 555 1030.3 555.466 1029.99 555.875C1029.7 556.28 1029.28 556.598 1028.74 556.83C1028.2 557.061 1027.59 557.176 1026.88 557.176C1025.9 557.176 1025.11 556.968 1024.49 556.551C1023.87 556.131 1023.49 555.534 1023.35 554.761L1024.99 554.511C1025.1 554.939 1025.31 555.263 1025.63 555.483C1025.94 555.699 1026.36 555.807 1026.87 555.807C1027.43 555.807 1027.87 555.691 1028.2 555.46C1028.54 555.225 1028.7 554.939 1028.7 554.602C1028.7 554.33 1028.6 554.1 1028.4 553.915C1028.2 553.729 1027.89 553.589 1027.47 553.494L1025.99 553.17C1025.18 552.985 1024.58 552.689 1024.19 552.284C1023.8 551.879 1023.61 551.366 1023.61 550.744C1023.61 550.229 1023.75 549.778 1024.04 549.392C1024.33 549.006 1024.73 548.705 1025.23 548.489C1025.74 548.269 1026.32 548.159 1026.98 548.159C1027.92 548.159 1028.66 548.364 1029.2 548.773C1029.75 549.178 1030.1 549.722 1030.28 550.403ZM1036.87 560.273V548.273H1038.53V549.688H1038.67C1038.77 549.506 1038.91 549.295 1039.1 549.057C1039.28 548.818 1039.54 548.61 1039.87 548.432C1040.2 548.25 1040.64 548.159 1041.18 548.159C1041.88 548.159 1042.51 548.337 1043.06 548.693C1043.62 549.049 1044.05 549.562 1044.37 550.233C1044.68 550.903 1044.84 551.71 1044.84 552.653C1044.84 553.597 1044.69 554.405 1044.37 555.08C1044.06 555.75 1043.63 556.267 1043.08 556.631C1042.53 556.991 1041.9 557.17 1041.2 557.17C1040.66 557.17 1040.23 557.081 1039.89 556.903C1039.56 556.725 1039.3 556.517 1039.11 556.278C1038.92 556.04 1038.77 555.828 1038.67 555.642H1038.57V560.273H1036.87ZM1038.54 552.636C1038.54 553.25 1038.63 553.788 1038.8 554.25C1038.98 554.712 1039.24 555.074 1039.58 555.335C1039.91 555.593 1040.33 555.722 1040.81 555.722C1041.32 555.722 1041.75 555.587 1042.09 555.318C1042.43 555.045 1042.69 554.676 1042.86 554.21C1043.04 553.744 1043.13 553.22 1043.13 552.636C1043.13 552.061 1043.04 551.544 1042.87 551.085C1042.7 550.627 1042.44 550.265 1042.09 550C1041.75 549.735 1041.33 549.602 1040.81 549.602C1040.32 549.602 1039.91 549.729 1039.56 549.983C1039.23 550.237 1038.97 550.591 1038.8 551.045C1038.62 551.5 1038.54 552.03 1038.54 552.636ZM1050.67 557.176C1049.81 557.176 1049.07 556.992 1048.45 556.625C1047.83 556.254 1047.35 555.733 1047.01 555.062C1046.68 554.388 1046.51 553.598 1046.51 552.693C1046.51 551.799 1046.68 551.011 1047.01 550.33C1047.35 549.648 1047.82 549.116 1048.42 548.733C1049.03 548.35 1049.74 548.159 1050.55 548.159C1051.04 548.159 1051.52 548.241 1051.98 548.403C1052.44 548.566 1052.86 548.822 1053.22 549.17C1053.59 549.519 1053.88 549.972 1054.09 550.528C1054.31 551.081 1054.41 551.754 1054.41 552.545V553.148H1047.47V551.875H1052.75C1052.75 551.428 1052.66 551.032 1052.47 550.688C1052.29 550.339 1052.04 550.064 1051.71 549.864C1051.38 549.663 1051 549.562 1050.56 549.562C1050.08 549.562 1049.67 549.68 1049.31 549.915C1048.96 550.146 1048.68 550.449 1048.49 550.824C1048.3 551.195 1048.21 551.598 1048.21 552.034V553.028C1048.21 553.612 1048.31 554.108 1048.51 554.517C1048.72 554.926 1049.01 555.239 1049.38 555.455C1049.75 555.667 1050.19 555.773 1050.68 555.773C1051.01 555.773 1051.3 555.727 1051.57 555.636C1051.83 555.542 1052.06 555.402 1052.25 555.216C1052.45 555.03 1052.59 554.801 1052.7 554.528L1054.3 554.818C1054.18 555.292 1053.94 555.706 1053.61 556.062C1053.28 556.415 1052.87 556.689 1052.37 556.886C1051.87 557.08 1051.3 557.176 1050.67 557.176ZM1056.46 557V548.273H1058.1V549.659H1058.19C1058.35 549.189 1058.63 548.82 1059.03 548.551C1059.44 548.278 1059.89 548.142 1060.41 548.142C1060.51 548.142 1060.64 548.146 1060.78 548.153C1060.93 548.161 1061.04 548.17 1061.13 548.182V549.807C1061.06 549.788 1060.94 549.767 1060.76 549.744C1060.59 549.718 1060.42 549.705 1060.24 549.705C1059.84 549.705 1059.48 549.79 1059.17 549.96C1058.86 550.127 1058.61 550.36 1058.43 550.659C1058.25 550.955 1058.16 551.292 1058.16 551.67V557H1056.46ZM1067.29 545.364H1069.42L1073.12 554.409H1073.26L1076.96 545.364H1079.1V557H1077.42V548.58H1077.32L1073.89 556.983H1072.5L1069.07 548.574H1068.96V557H1067.29V545.364ZM1085.35 557.176C1084.53 557.176 1083.82 556.989 1083.21 556.614C1082.6 556.239 1082.12 555.714 1081.79 555.04C1081.45 554.366 1081.28 553.578 1081.28 552.676C1081.28 551.771 1081.45 550.979 1081.79 550.301C1082.12 549.623 1082.6 549.097 1083.21 548.722C1083.82 548.347 1084.53 548.159 1085.35 548.159C1086.17 548.159 1086.88 548.347 1087.49 548.722C1088.1 549.097 1088.57 549.623 1088.91 550.301C1089.25 550.979 1089.42 551.771 1089.42 552.676C1089.42 553.578 1089.25 554.366 1088.91 555.04C1088.57 555.714 1088.1 556.239 1087.49 556.614C1086.88 556.989 1086.17 557.176 1085.35 557.176ZM1085.35 555.75C1085.88 555.75 1086.32 555.61 1086.67 555.33C1087.02 555.049 1087.28 554.676 1087.44 554.21C1087.61 553.744 1087.7 553.231 1087.7 552.67C1087.7 552.114 1087.61 551.602 1087.44 551.136C1087.28 550.667 1087.02 550.29 1086.67 550.006C1086.32 549.722 1085.88 549.58 1085.35 549.58C1084.82 549.58 1084.38 549.722 1084.02 550.006C1083.68 550.29 1083.42 550.667 1083.25 551.136C1083.08 551.602 1083 552.114 1083 552.67C1083 553.231 1083.08 553.744 1083.25 554.21C1083.42 554.676 1083.68 555.049 1084.02 555.33C1084.38 555.61 1084.82 555.75 1085.35 555.75ZM1093.17 551.818V557H1091.47V548.273H1093.1V549.693H1093.21C1093.41 549.231 1093.73 548.86 1094.15 548.58C1094.59 548.299 1095.13 548.159 1095.78 548.159C1096.38 548.159 1096.9 548.284 1097.35 548.534C1097.79 548.78 1098.14 549.148 1098.39 549.636C1098.63 550.125 1098.76 550.729 1098.76 551.449V557H1097.06V551.653C1097.06 551.021 1096.89 550.527 1096.56 550.17C1096.23 549.811 1095.78 549.631 1095.2 549.631C1094.81 549.631 1094.46 549.716 1094.15 549.886C1093.85 550.057 1093.61 550.307 1093.43 550.636C1093.26 550.962 1093.17 551.356 1093.17 551.818ZM1105.27 548.273V549.636H1100.5V548.273H1105.27ZM1101.78 546.182H1103.48V554.438C1103.48 554.767 1103.53 555.015 1103.63 555.182C1103.72 555.345 1103.85 555.456 1104.01 555.517C1104.17 555.574 1104.34 555.602 1104.52 555.602C1104.66 555.602 1104.78 555.593 1104.88 555.574C1104.98 555.555 1105.06 555.54 1105.12 555.528L1105.43 556.932C1105.33 556.97 1105.19 557.008 1105.01 557.045C1104.83 557.087 1104.6 557.11 1104.33 557.114C1103.88 557.121 1103.46 557.042 1103.08 556.875C1102.69 556.708 1102.38 556.451 1102.14 556.102C1101.9 555.754 1101.78 555.316 1101.78 554.79V546.182ZM1109.19 551.818V557H1107.5V545.364H1109.17V549.693H1109.28C1109.48 549.223 1109.8 548.85 1110.22 548.574C1110.64 548.297 1111.19 548.159 1111.86 548.159C1112.46 548.159 1112.99 548.282 1113.43 548.528C1113.88 548.775 1114.23 549.142 1114.48 549.631C1114.73 550.116 1114.85 550.722 1114.85 551.449V557H1113.15V551.653C1113.15 551.013 1112.99 550.517 1112.66 550.165C1112.33 549.809 1111.87 549.631 1111.28 549.631C1110.88 549.631 1110.52 549.716 1110.21 549.886C1109.89 550.057 1109.64 550.307 1109.46 550.636C1109.28 550.962 1109.19 551.356 1109.19 551.818Z" fill="black"/>
<rect x="760" y="282" width="229" height="230" rx="14" fill="white"/>
<path d="M775.705 301.875V300.364H784.71V301.875H781.08V312H779.33V301.875H775.705ZM788.423 306.818V312H786.724V300.364H788.4V304.693H788.508C788.713 304.223 789.025 303.85 789.446 303.574C789.866 303.297 790.415 303.159 791.093 303.159C791.692 303.159 792.214 303.282 792.661 303.528C793.112 303.775 793.461 304.142 793.707 304.631C793.957 305.116 794.082 305.722 794.082 306.449V312H792.383V306.653C792.383 306.013 792.218 305.517 791.889 305.165C791.559 304.809 791.101 304.631 790.514 304.631C790.112 304.631 789.752 304.716 789.434 304.886C789.12 305.057 788.872 305.307 788.69 305.636C788.512 305.962 788.423 306.356 788.423 306.818ZM796.509 312V303.273H798.151V304.659H798.242C798.401 304.189 798.681 303.82 799.083 303.551C799.488 303.278 799.946 303.142 800.458 303.142C800.564 303.142 800.689 303.146 800.833 303.153C800.981 303.161 801.096 303.17 801.179 303.182V304.807C801.111 304.788 800.99 304.767 800.816 304.744C800.641 304.718 800.467 304.705 800.293 304.705C799.891 304.705 799.534 304.79 799.219 304.96C798.909 305.127 798.662 305.36 798.481 305.659C798.299 305.955 798.208 306.292 798.208 306.67V312H796.509ZM806.173 312.176C805.355 312.176 804.641 311.989 804.031 311.614C803.421 311.239 802.948 310.714 802.611 310.04C802.274 309.366 802.105 308.578 802.105 307.676C802.105 306.771 802.274 305.979 802.611 305.301C802.948 304.623 803.421 304.097 804.031 303.722C804.641 303.347 805.355 303.159 806.173 303.159C806.991 303.159 807.705 303.347 808.315 303.722C808.925 304.097 809.399 304.623 809.736 305.301C810.073 305.979 810.241 306.771 810.241 307.676C810.241 308.578 810.073 309.366 809.736 310.04C809.399 310.714 808.925 311.239 808.315 311.614C807.705 311.989 806.991 312.176 806.173 312.176ZM806.179 310.75C806.709 310.75 807.149 310.61 807.497 310.33C807.846 310.049 808.103 309.676 808.27 309.21C808.44 308.744 808.525 308.231 808.525 307.67C808.525 307.114 808.44 306.602 808.27 306.136C808.103 305.667 807.846 305.29 807.497 305.006C807.149 304.722 806.709 304.58 806.179 304.58C805.645 304.58 805.202 304.722 804.849 305.006C804.501 305.29 804.241 305.667 804.071 306.136C803.904 306.602 803.821 307.114 803.821 307.67C803.821 308.231 803.904 308.744 804.071 309.21C804.241 309.676 804.501 310.049 804.849 310.33C805.202 310.61 805.645 310.75 806.179 310.75ZM817.826 308.381V303.273H819.531V312H817.86V310.489H817.769C817.569 310.955 817.247 311.343 816.803 311.653C816.364 311.96 815.817 312.114 815.161 312.114C814.601 312.114 814.104 311.991 813.673 311.744C813.245 311.494 812.908 311.125 812.661 310.636C812.419 310.148 812.298 309.544 812.298 308.824V303.273H813.997V308.619C813.997 309.214 814.161 309.687 814.491 310.04C814.82 310.392 815.248 310.568 815.775 310.568C816.093 310.568 816.409 310.489 816.724 310.33C817.042 310.17 817.305 309.93 817.514 309.608C817.726 309.286 817.83 308.877 817.826 308.381ZM825.632 315.455C824.939 315.455 824.343 315.364 823.843 315.182C823.346 315 822.941 314.759 822.627 314.46C822.312 314.161 822.077 313.833 821.922 313.477L823.382 312.875C823.485 313.042 823.621 313.218 823.791 313.403C823.966 313.593 824.201 313.754 824.496 313.886C824.795 314.019 825.18 314.085 825.649 314.085C826.293 314.085 826.826 313.928 827.246 313.614C827.666 313.303 827.877 312.807 827.877 312.125V310.409H827.769C827.666 310.595 827.519 310.801 827.326 311.028C827.136 311.256 826.875 311.453 826.541 311.619C826.208 311.786 825.774 311.869 825.24 311.869C824.551 311.869 823.93 311.708 823.377 311.386C822.827 311.061 822.392 310.581 822.07 309.949C821.752 309.312 821.593 308.53 821.593 307.602C821.593 306.674 821.75 305.879 822.064 305.216C822.382 304.553 822.818 304.045 823.371 303.693C823.924 303.337 824.551 303.159 825.252 303.159C825.793 303.159 826.231 303.25 826.564 303.432C826.898 303.61 827.157 303.818 827.343 304.057C827.532 304.295 827.678 304.506 827.78 304.688H827.905V303.273H829.57V312.193C829.57 312.943 829.396 313.559 829.047 314.04C828.699 314.521 828.227 314.877 827.632 315.108C827.041 315.339 826.375 315.455 825.632 315.455ZM825.615 310.46C826.104 310.46 826.517 310.347 826.854 310.119C827.195 309.888 827.452 309.559 827.627 309.131C827.805 308.699 827.894 308.182 827.894 307.58C827.894 306.992 827.807 306.475 827.632 306.028C827.458 305.581 827.202 305.233 826.865 304.983C826.528 304.729 826.112 304.602 825.615 304.602C825.104 304.602 824.678 304.735 824.337 305C823.996 305.261 823.738 305.617 823.564 306.068C823.394 306.519 823.309 307.023 823.309 307.58C823.309 308.152 823.396 308.653 823.57 309.085C823.744 309.517 824.002 309.854 824.343 310.097C824.687 310.339 825.112 310.46 825.615 310.46ZM833.707 306.818V312H832.008V300.364H833.684V304.693H833.792C833.997 304.223 834.309 303.85 834.73 303.574C835.15 303.297 835.7 303.159 836.378 303.159C836.976 303.159 837.499 303.282 837.946 303.528C838.397 303.775 838.745 304.142 838.991 304.631C839.241 305.116 839.366 305.722 839.366 306.449V312H837.667V306.653C837.667 306.013 837.503 305.517 837.173 305.165C836.844 304.809 836.385 304.631 835.798 304.631C835.397 304.631 835.037 304.716 834.719 304.886C834.404 305.057 834.156 305.307 833.974 305.636C833.796 305.962 833.707 306.356 833.707 306.818ZM841.793 315.273V303.273H843.452V304.688H843.594C843.693 304.506 843.835 304.295 844.021 304.057C844.206 303.818 844.464 303.61 844.793 303.432C845.123 303.25 845.558 303.159 846.1 303.159C846.805 303.159 847.433 303.337 847.986 303.693C848.54 304.049 848.973 304.562 849.288 305.233C849.606 305.903 849.765 306.71 849.765 307.653C849.765 308.597 849.608 309.405 849.293 310.08C848.979 310.75 848.547 311.267 847.998 311.631C847.449 311.991 846.822 312.17 846.117 312.17C845.587 312.17 845.153 312.081 844.816 311.903C844.483 311.725 844.221 311.517 844.032 311.278C843.843 311.04 843.697 310.828 843.594 310.642H843.492V315.273H841.793ZM843.458 307.636C843.458 308.25 843.547 308.788 843.725 309.25C843.903 309.712 844.161 310.074 844.498 310.335C844.835 310.593 845.248 310.722 845.736 310.722C846.244 310.722 846.668 310.587 847.009 310.318C847.35 310.045 847.608 309.676 847.782 309.21C847.96 308.744 848.049 308.22 848.049 307.636C848.049 307.061 847.962 306.544 847.788 306.085C847.617 305.627 847.36 305.265 847.015 305C846.674 304.735 846.248 304.602 845.736 304.602C845.244 304.602 844.827 304.729 844.486 304.983C844.149 305.237 843.894 305.591 843.719 306.045C843.545 306.5 843.458 307.03 843.458 307.636ZM857.357 308.381V303.273H859.061V312H857.391V310.489H857.3C857.099 310.955 856.777 311.343 856.334 311.653C855.895 311.96 855.347 312.114 854.692 312.114C854.131 312.114 853.635 311.991 853.203 311.744C852.775 311.494 852.438 311.125 852.192 310.636C851.95 310.148 851.828 309.544 851.828 308.824V303.273H853.527V308.619C853.527 309.214 853.692 309.687 854.021 310.04C854.351 310.392 854.779 310.568 855.306 310.568C855.624 310.568 855.94 310.489 856.254 310.33C856.573 310.17 856.836 309.93 857.044 309.608C857.256 309.286 857.36 308.877 857.357 308.381ZM865.578 303.273V304.636H860.811V303.273H865.578ZM862.089 301.182H863.788V309.438C863.788 309.767 863.837 310.015 863.936 310.182C864.034 310.345 864.161 310.456 864.316 310.517C864.476 310.574 864.648 310.602 864.833 310.602C864.97 310.602 865.089 310.593 865.191 310.574C865.294 310.555 865.373 310.54 865.43 310.528L865.737 311.932C865.638 311.97 865.498 312.008 865.316 312.045C865.135 312.087 864.907 312.11 864.635 312.114C864.188 312.121 863.771 312.042 863.385 311.875C862.998 311.708 862.686 311.451 862.447 311.102C862.208 310.754 862.089 310.316 862.089 309.79V301.182Z" fill="black"/>
<rect x="1004" y="282" width="539" height="230" rx="14" fill="white"/>
<path d="M1250.7 301.875V300.364H1259.71V301.875H1256.08V312H1254.33V301.875H1250.7ZM1263.42 306.818V312H1261.72V300.364H1263.4V304.693H1263.51C1263.71 304.223 1264.03 303.85 1264.45 303.574C1264.87 303.297 1265.42 303.159 1266.09 303.159C1266.69 303.159 1267.21 303.282 1267.66 303.528C1268.11 303.775 1268.46 304.142 1268.71 304.631C1268.96 305.116 1269.08 305.722 1269.08 306.449V312H1267.38V306.653C1267.38 306.013 1267.22 305.517 1266.89 305.165C1266.56 304.809 1266.1 304.631 1265.51 304.631C1265.11 304.631 1264.75 304.716 1264.43 304.886C1264.12 305.057 1263.87 305.307 1263.69 305.636C1263.51 305.962 1263.42 306.356 1263.42 306.818ZM1271.51 312V303.273H1273.21V312H1271.51ZM1272.37 301.926C1272.07 301.926 1271.82 301.828 1271.61 301.631C1271.4 301.43 1271.29 301.191 1271.29 300.915C1271.29 300.634 1271.4 300.396 1271.61 300.199C1271.82 299.998 1272.07 299.898 1272.37 299.898C1272.66 299.898 1272.91 299.998 1273.12 300.199C1273.33 300.396 1273.44 300.634 1273.44 300.915C1273.44 301.191 1273.33 301.43 1273.12 301.631C1272.91 301.828 1272.66 301.926 1272.37 301.926ZM1282.19 305.403L1280.65 305.676C1280.59 305.479 1280.49 305.292 1280.35 305.114C1280.21 304.936 1280.02 304.79 1279.79 304.676C1279.55 304.562 1279.26 304.506 1278.91 304.506C1278.43 304.506 1278.03 304.614 1277.7 304.83C1277.38 305.042 1277.22 305.316 1277.22 305.653C1277.22 305.945 1277.33 306.18 1277.55 306.358C1277.76 306.536 1278.11 306.682 1278.59 306.795L1279.98 307.114C1280.78 307.299 1281.38 307.585 1281.77 307.972C1282.17 308.358 1282.36 308.86 1282.36 309.477C1282.36 310 1282.21 310.466 1281.91 310.875C1281.61 311.28 1281.19 311.598 1280.65 311.83C1280.12 312.061 1279.5 312.176 1278.8 312.176C1277.82 312.176 1277.02 311.968 1276.4 311.551C1275.79 311.131 1275.41 310.534 1275.27 309.761L1276.91 309.511C1277.01 309.939 1277.22 310.263 1277.54 310.483C1277.86 310.699 1278.27 310.807 1278.78 310.807C1279.34 310.807 1279.79 310.691 1280.12 310.46C1280.45 310.225 1280.62 309.939 1280.62 309.602C1280.62 309.33 1280.52 309.1 1280.31 308.915C1280.11 308.729 1279.8 308.589 1279.39 308.494L1277.91 308.17C1277.09 307.985 1276.49 307.689 1276.1 307.284C1275.72 306.879 1275.52 306.366 1275.52 305.744C1275.52 305.229 1275.67 304.778 1275.95 304.392C1276.24 304.006 1276.64 303.705 1277.15 303.489C1277.66 303.269 1278.24 303.159 1278.89 303.159C1279.84 303.159 1280.58 303.364 1281.12 303.773C1281.66 304.178 1282.02 304.722 1282.19 305.403ZM1288.79 312V303.273H1290.42V304.693H1290.52C1290.71 304.212 1291 303.837 1291.42 303.568C1291.83 303.295 1292.32 303.159 1292.9 303.159C1293.48 303.159 1293.97 303.295 1294.37 303.568C1294.76 303.841 1295.06 304.216 1295.25 304.693H1295.34C1295.55 304.227 1295.88 303.856 1296.33 303.58C1296.79 303.299 1297.33 303.159 1297.96 303.159C1298.75 303.159 1299.39 303.407 1299.89 303.903C1300.4 304.4 1300.65 305.148 1300.65 306.148V312H1298.95V306.307C1298.95 305.716 1298.79 305.288 1298.47 305.023C1298.15 304.758 1297.76 304.625 1297.31 304.625C1296.76 304.625 1296.33 304.795 1296.02 305.136C1295.72 305.473 1295.56 305.907 1295.56 306.438V312H1293.87V306.199C1293.87 305.725 1293.72 305.345 1293.43 305.057C1293.13 304.769 1292.75 304.625 1292.27 304.625C1291.95 304.625 1291.66 304.71 1291.38 304.881C1291.11 305.047 1290.9 305.28 1290.73 305.58C1290.57 305.879 1290.48 306.225 1290.48 306.619V312H1288.79ZM1306.76 312.176C1305.94 312.176 1305.23 311.989 1304.62 311.614C1304.01 311.239 1303.54 310.714 1303.2 310.04C1302.86 309.366 1302.69 308.578 1302.69 307.676C1302.69 306.771 1302.86 305.979 1303.2 305.301C1303.54 304.623 1304.01 304.097 1304.62 303.722C1305.23 303.347 1305.94 303.159 1306.76 303.159C1307.58 303.159 1308.29 303.347 1308.9 303.722C1309.51 304.097 1309.99 304.623 1310.33 305.301C1310.66 305.979 1310.83 306.771 1310.83 307.676C1310.83 308.578 1310.66 309.366 1310.33 310.04C1309.99 310.714 1309.51 311.239 1308.9 311.614C1308.29 311.989 1307.58 312.176 1306.76 312.176ZM1306.77 310.75C1307.3 310.75 1307.74 310.61 1308.09 310.33C1308.43 310.049 1308.69 309.676 1308.86 309.21C1309.03 308.744 1309.11 308.231 1309.11 307.67C1309.11 307.114 1309.03 306.602 1308.86 306.136C1308.69 305.667 1308.43 305.29 1308.09 305.006C1307.74 304.722 1307.3 304.58 1306.77 304.58C1306.23 304.58 1305.79 304.722 1305.44 305.006C1305.09 305.29 1304.83 305.667 1304.66 306.136C1304.49 306.602 1304.41 307.114 1304.41 307.67C1304.41 308.231 1304.49 308.744 1304.66 309.21C1304.83 309.676 1305.09 310.049 1305.44 310.33C1305.79 310.61 1306.23 310.75 1306.77 310.75ZM1314.59 306.818V312H1312.89V303.273H1314.52V304.693H1314.63C1314.83 304.231 1315.14 303.86 1315.57 303.58C1316 303.299 1316.54 303.159 1317.2 303.159C1317.79 303.159 1318.32 303.284 1318.76 303.534C1319.21 303.78 1319.56 304.148 1319.8 304.636C1320.05 305.125 1320.17 305.729 1320.17 306.449V312H1318.47V306.653C1318.47 306.021 1318.31 305.527 1317.98 305.17C1317.65 304.811 1317.2 304.631 1316.62 304.631C1316.23 304.631 1315.88 304.716 1315.57 304.886C1315.27 305.057 1315.03 305.307 1314.85 305.636C1314.67 305.962 1314.59 306.356 1314.59 306.818ZM1326.68 303.273V304.636H1321.92V303.273H1326.68ZM1323.19 301.182H1324.89V309.438C1324.89 309.767 1324.94 310.015 1325.04 310.182C1325.14 310.345 1325.27 310.456 1325.42 310.517C1325.58 310.574 1325.75 310.602 1325.94 310.602C1326.08 310.602 1326.19 310.593 1326.3 310.574C1326.4 310.555 1326.48 310.54 1326.54 310.528L1326.84 311.932C1326.74 311.97 1326.6 312.008 1326.42 312.045C1326.24 312.087 1326.01 312.11 1325.74 312.114C1325.29 312.121 1324.88 312.042 1324.49 311.875C1324.1 311.708 1323.79 311.451 1323.55 311.102C1323.31 310.754 1323.19 310.316 1323.19 309.79V301.182ZM1330.61 306.818V312H1328.91V300.364H1330.59V304.693H1330.69C1330.9 304.223 1331.21 303.85 1331.63 303.574C1332.05 303.297 1332.6 303.159 1333.28 303.159C1333.88 303.159 1334.4 303.282 1334.85 303.528C1335.3 303.775 1335.65 304.142 1335.89 304.631C1336.14 305.116 1336.27 305.722 1336.27 306.449V312H1334.57V306.653C1334.57 306.013 1334.4 305.517 1334.07 305.165C1333.75 304.809 1333.29 304.631 1332.7 304.631C1332.3 304.631 1331.94 304.716 1331.62 304.886C1331.31 305.057 1331.06 305.307 1330.88 305.636C1330.7 305.962 1330.61 306.356 1330.61 306.818Z" fill="black"/>
<path d="M1020.28 312V300.364H1027.57V301.875H1022.03V305.42H1027.19V306.926H1022.03V310.489H1027.64V312H1020.28ZM1034.1 303.273V304.636H1029.16V303.273H1034.1ZM1030.52 312V302.261C1030.52 301.716 1030.64 301.263 1030.87 300.903C1031.11 300.54 1031.43 300.269 1031.82 300.091C1032.22 299.909 1032.65 299.818 1033.11 299.818C1033.45 299.818 1033.74 299.847 1033.98 299.903C1034.22 299.956 1034.4 300.006 1034.52 300.051L1034.12 301.426C1034.04 301.403 1033.94 301.377 1033.82 301.347C1033.69 301.312 1033.54 301.295 1033.36 301.295C1032.95 301.295 1032.65 301.398 1032.48 301.602C1032.3 301.807 1032.22 302.102 1032.22 302.489V312H1030.52ZM1040.16 303.273V304.636H1035.23V303.273H1040.16ZM1036.58 312V302.261C1036.58 301.716 1036.7 301.263 1036.94 300.903C1037.18 300.54 1037.5 300.269 1037.89 300.091C1038.28 299.909 1038.71 299.818 1039.17 299.818C1039.51 299.818 1039.81 299.847 1040.05 299.903C1040.29 299.956 1040.47 300.006 1040.59 300.051L1040.19 301.426C1040.11 301.403 1040.01 301.377 1039.88 301.347C1039.76 301.312 1039.61 301.295 1039.43 301.295C1039.02 301.295 1038.72 301.398 1038.54 301.602C1038.37 301.807 1038.28 302.102 1038.28 302.489V312H1036.58ZM1042.08 312V303.273H1043.77V312H1042.08ZM1042.93 301.926C1042.64 301.926 1042.38 301.828 1042.17 301.631C1041.96 301.43 1041.86 301.191 1041.86 300.915C1041.86 300.634 1041.96 300.396 1042.17 300.199C1042.38 299.998 1042.64 299.898 1042.93 299.898C1043.23 299.898 1043.48 299.998 1043.69 300.199C1043.9 300.396 1044.01 300.634 1044.01 300.915C1044.01 301.191 1043.9 301.43 1043.69 301.631C1043.48 301.828 1043.23 301.926 1042.93 301.926ZM1049.9 312.176C1049.05 312.176 1048.32 311.985 1047.71 311.602C1047.11 311.216 1046.64 310.684 1046.32 310.006C1045.99 309.328 1045.83 308.551 1045.83 307.676C1045.83 306.79 1045.99 306.008 1046.33 305.33C1046.66 304.648 1047.13 304.116 1047.74 303.733C1048.34 303.35 1049.06 303.159 1049.88 303.159C1050.54 303.159 1051.13 303.282 1051.65 303.528C1052.17 303.771 1052.59 304.112 1052.91 304.551C1053.23 304.991 1053.42 305.504 1053.48 306.091H1051.83C1051.74 305.682 1051.53 305.33 1051.2 305.034C1050.88 304.739 1050.45 304.591 1049.91 304.591C1049.43 304.591 1049.02 304.716 1048.66 304.966C1048.31 305.212 1048.04 305.564 1047.84 306.023C1047.64 306.477 1047.54 307.015 1047.54 307.636C1047.54 308.273 1047.64 308.822 1047.83 309.284C1048.03 309.746 1048.3 310.104 1048.65 310.358C1049.01 310.612 1049.43 310.739 1049.91 310.739C1050.23 310.739 1050.52 310.68 1050.78 310.562C1051.05 310.441 1051.27 310.269 1051.45 310.045C1051.63 309.822 1051.76 309.553 1051.83 309.239H1053.48C1053.42 309.803 1053.24 310.307 1052.93 310.75C1052.62 311.193 1052.21 311.542 1051.7 311.795C1051.19 312.049 1050.59 312.176 1049.9 312.176ZM1055.46 312V303.273H1057.16V312H1055.46ZM1056.32 301.926C1056.02 301.926 1055.77 301.828 1055.55 301.631C1055.35 301.43 1055.24 301.191 1055.24 300.915C1055.24 300.634 1055.35 300.396 1055.55 300.199C1055.77 299.998 1056.02 299.898 1056.32 299.898C1056.61 299.898 1056.86 299.998 1057.07 300.199C1057.28 300.396 1057.39 300.634 1057.39 300.915C1057.39 301.191 1057.28 301.43 1057.07 301.631C1056.86 301.828 1056.61 301.926 1056.32 301.926ZM1063.36 312.176C1062.5 312.176 1061.76 311.992 1061.14 311.625C1060.52 311.254 1060.05 310.733 1059.71 310.062C1059.38 309.388 1059.21 308.598 1059.21 307.693C1059.21 306.799 1059.38 306.011 1059.71 305.33C1060.05 304.648 1060.52 304.116 1061.12 303.733C1061.73 303.35 1062.43 303.159 1063.24 303.159C1063.74 303.159 1064.21 303.241 1064.68 303.403C1065.14 303.566 1065.55 303.822 1065.92 304.17C1066.29 304.519 1066.58 304.972 1066.79 305.528C1067 306.081 1067.11 306.754 1067.11 307.545V308.148H1060.17V306.875H1065.44C1065.44 306.428 1065.35 306.032 1065.17 305.688C1064.99 305.339 1064.73 305.064 1064.4 304.864C1064.08 304.663 1063.69 304.562 1063.26 304.562C1062.78 304.562 1062.36 304.68 1062.01 304.915C1061.65 305.146 1061.38 305.449 1061.19 305.824C1061 306.195 1060.9 306.598 1060.9 307.034V308.028C1060.9 308.612 1061.01 309.108 1061.21 309.517C1061.42 309.926 1061.71 310.239 1062.08 310.455C1062.45 310.667 1062.88 310.773 1063.38 310.773C1063.7 310.773 1064 310.727 1064.26 310.636C1064.53 310.542 1064.76 310.402 1064.95 310.216C1065.14 310.03 1065.29 309.801 1065.39 309.528L1067 309.818C1066.87 310.292 1066.64 310.706 1066.31 311.062C1065.98 311.415 1065.56 311.689 1065.06 311.886C1064.57 312.08 1064 312.176 1063.36 312.176ZM1070.85 306.818V312H1069.15V303.273H1070.78V304.693H1070.89C1071.09 304.231 1071.41 303.86 1071.83 303.58C1072.27 303.299 1072.81 303.159 1073.47 303.159C1074.06 303.159 1074.58 303.284 1075.03 303.534C1075.47 303.78 1075.82 304.148 1076.07 304.636C1076.31 305.125 1076.44 305.729 1076.44 306.449V312H1074.74V306.653C1074.74 306.021 1074.57 305.527 1074.24 305.17C1073.91 304.811 1073.46 304.631 1072.89 304.631C1072.49 304.631 1072.14 304.716 1071.83 304.886C1071.53 305.057 1071.29 305.307 1071.11 305.636C1070.94 305.962 1070.85 306.356 1070.85 306.818ZM1082.55 312.176C1081.71 312.176 1080.98 311.985 1080.37 311.602C1079.76 311.216 1079.3 310.684 1078.97 310.006C1078.65 309.328 1078.48 308.551 1078.48 307.676C1078.48 306.79 1078.65 306.008 1078.98 305.33C1079.32 304.648 1079.79 304.116 1080.39 303.733C1081 303.35 1081.71 303.159 1082.53 303.159C1083.2 303.159 1083.79 303.282 1084.31 303.528C1084.83 303.771 1085.24 304.112 1085.56 304.551C1085.88 304.991 1086.08 305.504 1086.14 306.091H1084.48C1084.39 305.682 1084.18 305.33 1083.86 305.034C1083.54 304.739 1083.1 304.591 1082.56 304.591C1082.09 304.591 1081.67 304.716 1081.32 304.966C1080.97 305.212 1080.69 305.564 1080.49 306.023C1080.3 306.477 1080.2 307.015 1080.2 307.636C1080.2 308.273 1080.3 308.822 1080.49 309.284C1080.68 309.746 1080.95 310.104 1081.31 310.358C1081.66 310.612 1082.08 310.739 1082.56 310.739C1082.88 310.739 1083.18 310.68 1083.44 310.562C1083.7 310.441 1083.92 310.269 1084.1 310.045C1084.28 309.822 1084.41 309.553 1084.48 309.239H1086.14C1086.08 309.803 1085.89 310.307 1085.59 310.75C1085.28 311.193 1084.87 311.542 1084.35 311.795C1083.84 312.049 1083.24 312.176 1082.55 312.176ZM1089.19 315.273C1088.93 315.273 1088.7 315.252 1088.49 315.21C1088.29 315.172 1088.13 315.131 1088.03 315.085L1088.44 313.693C1088.75 313.777 1089.02 313.813 1089.27 313.801C1089.51 313.79 1089.72 313.699 1089.91 313.528C1090.1 313.358 1090.26 313.08 1090.41 312.693L1090.62 312.114L1087.43 303.273H1089.24L1091.45 310.045H1091.55L1093.76 303.273H1095.58L1091.98 313.165C1091.82 313.619 1091.6 314.004 1091.35 314.318C1091.09 314.636 1090.78 314.875 1090.43 315.034C1090.07 315.193 1089.66 315.273 1089.19 315.273Z" fill="black"/>
<g filter="url(#filter0_d_202_571)">
<rect x="37" y="136" width="289" height="130" rx="10" fill="white"/>
</g>
<g filter="url(#filter1_d_202_571)">
<rect x="1254" y="136" width="289" height="130" rx="10" fill="white"/>
</g>
<g filter="url(#filter2_d_202_571)">
<rect x="949" y="136" width="289" height="130" rx="10" fill="white"/>
</g>
<g filter="url(#filter3_d_202_571)">
<rect x="645" y="136" width="289" height="130" rx="10" fill="white"/>
</g>
<g filter="url(#filter4_d_202_571)">
<rect x="341" y="136" width="289" height="130" rx="10" fill="white"/>
</g>
<path d="M45.2955 67.7273H50.4545L57.3636 84.5909H57.6364L64.5455 67.7273H69.7045V91H65.6591V75.0114H65.4432L59.0114 90.9318H55.9886L49.5568 74.9773H49.3409V91H45.2955V67.7273ZM77.6041 91H73.1041L81.2973 67.7273H86.5018L94.7064 91H90.2064L83.9905 72.5H83.8086L77.6041 91ZM77.7518 81.875H90.0245V85.2614H77.7518V81.875ZM98.0917 91V67.7273H106.819C108.607 67.7273 110.107 68.0379 111.319 68.6591C112.539 69.2803 113.459 70.1515 114.08 71.2727C114.709 72.3864 115.024 73.6856 115.024 75.1705C115.024 76.6629 114.705 77.9583 114.069 79.0568C113.44 80.1477 112.512 80.9924 111.285 81.5909C110.058 82.1818 108.55 82.4773 106.762 82.4773H100.546V78.9773H106.194C107.239 78.9773 108.095 78.8333 108.762 78.5455C109.429 78.25 109.921 77.822 110.239 77.2614C110.565 76.6932 110.728 75.9962 110.728 75.1705C110.728 74.3447 110.565 73.6402 110.239 73.0568C109.914 72.4659 109.417 72.0189 108.751 71.7159C108.084 71.4053 107.224 71.25 106.171 71.25H102.308V91H98.0917ZM110.114 80.4545L115.876 91H111.171L105.512 80.4545H110.114ZM123.44 67.7273V91H119.224V67.7273H123.44ZM127.303 71.2614V67.7273H145.871V71.2614H138.678V91H134.496V71.2614H127.303ZM153.986 67.7273V91H149.77V67.7273H153.986ZM158.872 67.7273H164.031L170.94 84.5909H171.213L178.122 67.7273H183.281V91H179.235V75.0114H179.019L172.588 90.9318H169.565L163.133 74.9773H162.917V91H158.872V67.7273ZM188.192 91V67.7273H203.328V71.2614H192.408V77.5795H202.544V81.1136H192.408V87.4659H203.419V91H188.192ZM216.207 91V67.7273H220.423V87.4659H230.673V91H216.207ZM254.541 79.3636C254.541 81.8712 254.071 84.0189 253.132 85.8068C252.2 87.5871 250.927 88.9508 249.314 89.8977C247.708 90.8447 245.886 91.3182 243.848 91.3182C241.81 91.3182 239.984 90.8447 238.37 89.8977C236.764 88.9432 235.492 87.5758 234.552 85.7955C233.62 84.0076 233.155 81.8636 233.155 79.3636C233.155 76.8561 233.62 74.7121 234.552 72.9318C235.492 71.1439 236.764 69.7765 238.37 68.8295C239.984 67.8826 241.81 67.4091 243.848 67.4091C245.886 67.4091 247.708 67.8826 249.314 68.8295C250.927 69.7765 252.2 71.1439 253.132 72.9318C254.071 74.7121 254.541 76.8561 254.541 79.3636ZM250.302 79.3636C250.302 77.5985 250.026 76.1098 249.473 74.8977C248.927 73.678 248.17 72.7576 247.2 72.1364C246.23 71.5076 245.113 71.1932 243.848 71.1932C242.583 71.1932 241.465 71.5076 240.495 72.1364C239.526 72.7576 238.764 73.678 238.211 74.8977C237.666 76.1098 237.393 77.5985 237.393 79.3636C237.393 81.1288 237.666 82.6212 238.211 83.8409C238.764 85.053 239.526 85.9735 240.495 86.6023C241.465 87.2235 242.583 87.5341 243.848 87.5341C245.113 87.5341 246.23 87.2235 247.2 86.6023C248.17 85.9735 248.927 85.053 249.473 83.8409C250.026 82.6212 250.302 81.1288 250.302 79.3636ZM274.438 75.1591C274.248 74.5455 273.987 73.9962 273.654 73.5114C273.328 73.0189 272.934 72.5985 272.472 72.25C272.017 71.9015 271.494 71.6402 270.904 71.4659C270.313 71.2841 269.669 71.1932 268.972 71.1932C267.722 71.1932 266.608 71.5076 265.631 72.1364C264.654 72.7652 263.885 73.6894 263.324 74.9091C262.771 76.1212 262.494 77.5985 262.494 79.3409C262.494 81.0985 262.771 82.5871 263.324 83.8068C263.877 85.0265 264.646 85.9545 265.631 86.5909C266.616 87.2197 267.76 87.5341 269.063 87.5341C270.244 87.5341 271.267 87.3068 272.131 86.8523C273.002 86.3977 273.672 85.7538 274.142 84.9205C274.612 84.0795 274.847 83.0947 274.847 81.9659L275.801 82.1136H269.483V78.8182H278.926V81.6136C278.926 83.6061 278.502 85.3295 277.654 86.7841C276.805 88.2386 275.638 89.3598 274.154 90.1477C272.669 90.928 270.964 91.3182 269.04 91.3182C266.896 91.3182 265.013 90.8371 263.392 89.875C261.779 88.9053 260.517 87.5303 259.608 85.75C258.707 83.9621 258.256 81.8409 258.256 79.3864C258.256 77.5076 258.521 75.8295 259.051 74.3523C259.589 72.875 260.339 71.6212 261.301 70.5909C262.263 69.553 263.392 68.7652 264.688 68.2273C265.983 67.6818 267.392 67.4091 268.915 67.4091C270.203 67.4091 271.404 67.5985 272.517 67.9773C273.631 68.3485 274.619 68.8788 275.483 69.5682C276.354 70.2576 277.07 71.0758 277.631 72.0227C278.191 72.9697 278.559 74.0152 278.733 75.1591H274.438ZM287.539 67.7273V91H283.323V67.7273H287.539ZM305.072 74.125C304.966 73.1326 304.519 72.3598 303.731 71.8068C302.951 71.2538 301.936 70.9773 300.686 70.9773C299.807 70.9773 299.053 71.1098 298.424 71.375C297.795 71.6402 297.314 72 296.981 72.4545C296.648 72.9091 296.477 73.428 296.47 74.0114C296.47 74.4962 296.58 74.9167 296.799 75.2727C297.026 75.6288 297.333 75.9318 297.72 76.1818C298.106 76.4242 298.534 76.6288 299.004 76.7955C299.473 76.9621 299.947 77.1023 300.424 77.2159L302.606 77.7614C303.485 77.9659 304.33 78.2424 305.14 78.5909C305.958 78.9394 306.689 79.3788 307.333 79.9091C307.985 80.4394 308.5 81.0795 308.879 81.8295C309.258 82.5795 309.447 83.4583 309.447 84.4659C309.447 85.8295 309.098 87.0303 308.401 88.0682C307.705 89.0985 306.697 89.9053 305.379 90.4886C304.068 91.0644 302.481 91.3523 300.617 91.3523C298.807 91.3523 297.235 91.072 295.901 90.5114C294.576 89.9508 293.538 89.1326 292.788 88.0568C292.045 86.9811 291.644 85.6705 291.583 84.125H295.731C295.792 84.9356 296.042 85.6098 296.481 86.1477C296.92 86.6856 297.492 87.0871 298.197 87.3523C298.909 87.6174 299.705 87.75 300.583 87.75C301.5 87.75 302.303 87.6136 302.992 87.3409C303.689 87.0606 304.235 86.6742 304.629 86.1818C305.023 85.6818 305.223 85.0985 305.231 84.4318C305.223 83.8258 305.045 83.3258 304.697 82.9318C304.348 82.5303 303.86 82.197 303.231 81.9318C302.61 81.6591 301.883 81.4167 301.049 81.2045L298.401 80.5227C296.485 80.0303 294.97 79.2841 293.856 78.2841C292.75 77.2765 292.197 75.9394 292.197 74.2727C292.197 72.9015 292.568 71.7008 293.311 70.6705C294.061 69.6402 295.08 68.8409 296.367 68.2727C297.655 67.697 299.114 67.4091 300.742 67.4091C302.394 67.4091 303.841 67.697 305.083 68.2727C306.333 68.8409 307.314 69.6326 308.026 70.6477C308.739 71.6553 309.106 72.8144 309.129 74.125H305.072ZM312.503 71.2614V67.7273H331.071V71.2614H323.878V91H319.696V71.2614H312.503ZM339.186 67.7273V91H334.97V67.7273H339.186ZM363.992 75.5795H359.742C359.621 74.8826 359.397 74.2652 359.072 73.7273C358.746 73.1818 358.341 72.7197 357.856 72.3409C357.371 71.9621 356.818 71.678 356.197 71.4886C355.583 71.2917 354.92 71.1932 354.208 71.1932C352.943 71.1932 351.822 71.5114 350.844 72.1477C349.867 72.7765 349.102 73.7008 348.549 74.9205C347.996 76.1326 347.719 77.6136 347.719 79.3636C347.719 81.1439 347.996 82.6439 348.549 83.8636C349.11 85.0758 349.875 85.9924 350.844 86.6136C351.822 87.2273 352.939 87.5341 354.197 87.5341C354.894 87.5341 355.545 87.4432 356.151 87.2614C356.765 87.072 357.314 86.7955 357.799 86.4318C358.291 86.0682 358.704 85.6212 359.038 85.0909C359.379 84.5606 359.613 83.9545 359.742 83.2727L363.992 83.2955C363.833 84.4015 363.488 85.4394 362.958 86.4091C362.435 87.3788 361.75 88.2348 360.901 88.9773C360.053 89.7121 359.06 90.2879 357.924 90.7045C356.788 91.1136 355.526 91.3182 354.14 91.3182C352.094 91.3182 350.269 90.8447 348.663 89.8977C347.057 88.9508 345.791 87.5833 344.867 85.7955C343.943 84.0076 343.481 81.8636 343.481 79.3636C343.481 76.8561 343.947 74.7121 344.879 72.9318C345.81 71.1439 347.079 69.7765 348.685 68.8295C350.291 67.8826 352.11 67.4091 354.14 67.4091C355.435 67.4091 356.64 67.5909 357.754 67.9545C358.867 68.3182 359.86 68.8523 360.731 69.5568C361.602 70.2538 362.318 71.1098 362.879 72.125C363.447 73.1326 363.818 74.2841 363.992 75.5795ZM380.821 74.125C380.715 73.1326 380.268 72.3598 379.48 71.8068C378.699 71.2538 377.684 70.9773 376.434 70.9773C375.556 70.9773 374.802 71.1098 374.173 71.375C373.544 71.6402 373.063 72 372.73 72.4545C372.396 72.9091 372.226 73.428 372.218 74.0114C372.218 74.4962 372.328 74.9167 372.548 75.2727C372.775 75.6288 373.082 75.9318 373.468 76.1818C373.855 76.4242 374.283 76.6288 374.753 76.7955C375.222 76.9621 375.696 77.1023 376.173 77.2159L378.355 77.7614C379.234 77.9659 380.078 78.2424 380.889 78.5909C381.707 78.9394 382.438 79.3788 383.082 79.9091C383.734 80.4394 384.249 81.0795 384.628 81.8295C385.006 82.5795 385.196 83.4583 385.196 84.4659C385.196 85.8295 384.847 87.0303 384.15 88.0682C383.453 89.0985 382.446 89.9053 381.128 90.4886C379.817 91.0644 378.23 91.3523 376.366 91.3523C374.556 91.3523 372.984 91.072 371.65 90.5114C370.324 89.9508 369.287 89.1326 368.537 88.0568C367.794 86.9811 367.393 85.6705 367.332 84.125H371.48C371.54 84.9356 371.79 85.6098 372.23 86.1477C372.669 86.6856 373.241 87.0871 373.946 87.3523C374.658 87.6174 375.453 87.75 376.332 87.75C377.249 87.75 378.052 87.6136 378.741 87.3409C379.438 87.0606 379.984 86.6742 380.378 86.1818C380.771 85.6818 380.972 85.0985 380.98 84.4318C380.972 83.8258 380.794 83.3258 380.446 82.9318C380.097 82.5303 379.609 82.197 378.98 81.9318C378.359 81.6591 377.631 81.4167 376.798 81.2045L374.15 80.5227C372.234 80.0303 370.718 79.2841 369.605 78.2841C368.499 77.2765 367.946 75.9394 367.946 74.2727C367.946 72.9015 368.317 71.7008 369.059 70.6705C369.809 69.6402 370.828 68.8409 372.116 68.2727C373.404 67.697 374.862 67.4091 376.491 67.4091C378.143 67.4091 379.59 67.697 380.832 68.2727C382.082 68.8409 383.063 69.6326 383.775 70.6477C384.487 71.6553 384.855 72.8144 384.878 74.125H380.821Z" fill="white"/>
<rect x="1319.65" y="57" width="223.353" height="48" rx="24" fill="white"/>
<path d="M1343.28 88H1339.52V76.3636H1343.4C1344.54 76.3636 1345.52 76.5966 1346.34 77.0625C1347.16 77.5246 1347.78 78.1894 1348.22 79.0568C1348.66 79.9205 1348.88 80.9564 1348.88 82.1648C1348.88 83.3769 1348.66 84.4186 1348.21 85.2898C1347.78 86.161 1347.14 86.8314 1346.31 87.3011C1345.47 87.767 1344.46 88 1343.28 88ZM1341.27 86.4659H1343.19C1344.07 86.4659 1344.81 86.2992 1345.4 85.9659C1345.98 85.6288 1346.42 85.142 1346.71 84.5057C1347.01 83.8655 1347.15 83.0852 1347.15 82.1648C1347.15 81.2519 1347.01 80.4773 1346.71 79.8409C1346.43 79.2045 1346 78.7216 1345.42 78.392C1344.85 78.0625 1344.14 77.8977 1343.29 77.8977H1341.27V86.4659ZM1353.47 88.1932C1352.91 88.1932 1352.41 88.0909 1351.97 87.8864C1351.52 87.678 1351.16 87.3769 1350.9 86.983C1350.65 86.589 1350.52 86.1061 1350.52 85.5341C1350.52 85.0417 1350.61 84.6364 1350.8 84.3182C1350.99 84 1351.25 83.7481 1351.57 83.5625C1351.89 83.3769 1352.25 83.2367 1352.65 83.142C1353.05 83.0473 1353.45 82.9754 1353.86 82.9261C1354.39 82.8655 1354.81 82.8163 1355.14 82.7784C1355.46 82.7367 1355.7 82.6705 1355.85 82.5795C1355.99 82.4886 1356.07 82.3409 1356.07 82.1364V82.0966C1356.07 81.6004 1355.93 81.2159 1355.65 80.9432C1355.37 80.6705 1354.96 80.5341 1354.41 80.5341C1353.84 80.5341 1353.39 80.661 1353.06 80.9148C1352.73 81.1648 1352.51 81.4432 1352.38 81.75L1350.78 81.3864C1350.97 80.8561 1351.25 80.428 1351.61 80.1023C1351.98 79.7727 1352.4 79.5341 1352.88 79.3864C1353.36 79.2348 1353.86 79.1591 1354.39 79.1591C1354.73 79.1591 1355.1 79.2008 1355.49 79.2841C1355.89 79.3636 1356.26 79.5114 1356.6 79.7273C1356.94 79.9432 1357.22 80.2519 1357.44 80.6534C1357.66 81.0511 1357.77 81.5682 1357.77 82.2045V88H1356.11V86.8068H1356.05C1355.94 87.0265 1355.77 87.2424 1355.55 87.4545C1355.33 87.6667 1355.05 87.8428 1354.7 87.983C1354.36 88.1231 1353.95 88.1932 1353.47 88.1932ZM1353.84 86.8295C1354.31 86.8295 1354.71 86.7367 1355.04 86.5511C1355.38 86.3655 1355.63 86.1231 1355.81 85.8239C1355.98 85.5208 1356.07 85.197 1356.07 84.8523V83.7273C1356.01 83.7879 1355.9 83.8447 1355.72 83.8977C1355.55 83.947 1355.36 83.9905 1355.14 84.0284C1354.92 84.0625 1354.7 84.0947 1354.49 84.125C1354.29 84.1515 1354.11 84.1742 1353.97 84.1932C1353.64 84.2348 1353.34 84.3049 1353.07 84.4034C1352.8 84.5019 1352.58 84.6439 1352.42 84.8295C1352.26 85.0114 1352.18 85.2538 1352.18 85.5568C1352.18 85.9773 1352.34 86.2955 1352.65 86.5114C1352.96 86.7235 1353.35 86.8295 1353.84 86.8295ZM1364.11 79.2727V80.6364H1359.34V79.2727H1364.11ZM1360.62 77.1818H1362.32V85.4375C1362.32 85.767 1362.37 86.0152 1362.47 86.1818C1362.57 86.3447 1362.69 86.4564 1362.85 86.517C1363.01 86.5739 1363.18 86.6023 1363.37 86.6023C1363.5 86.6023 1363.62 86.5928 1363.72 86.5739C1363.83 86.5549 1363.9 86.5398 1363.96 86.5284L1364.27 87.9318C1364.17 87.9697 1364.03 88.0076 1363.85 88.0455C1363.67 88.0871 1363.44 88.1098 1363.17 88.1136C1362.72 88.1212 1362.3 88.0417 1361.92 87.875C1361.53 87.7083 1361.22 87.4508 1360.98 87.1023C1360.74 86.7538 1360.62 86.3163 1360.62 85.7898V77.1818ZM1369.66 88.1761C1368.8 88.1761 1368.06 87.9924 1367.43 87.625C1366.82 87.2538 1366.34 86.733 1366 86.0625C1365.67 85.3883 1365.5 84.5985 1365.5 83.6932C1365.5 82.7992 1365.67 82.0114 1366 81.3295C1366.34 80.6477 1366.81 80.1155 1367.41 79.733C1368.02 79.3504 1368.73 79.1591 1369.54 79.1591C1370.03 79.1591 1370.51 79.2405 1370.97 79.4034C1371.43 79.5663 1371.85 79.822 1372.21 80.1705C1372.58 80.5189 1372.87 80.9716 1373.08 81.5284C1373.29 82.0814 1373.4 82.7538 1373.4 83.5455V84.1477H1366.46V82.875H1371.74C1371.74 82.428 1371.64 82.0322 1371.46 81.6875C1371.28 81.339 1371.03 81.0644 1370.7 80.8636C1370.37 80.6629 1369.99 80.5625 1369.55 80.5625C1369.07 80.5625 1368.65 80.6799 1368.3 80.9148C1367.95 81.1458 1367.67 81.4489 1367.48 81.8239C1367.29 82.1951 1367.2 82.5985 1367.2 83.0341V84.0284C1367.2 84.6117 1367.3 85.108 1367.5 85.517C1367.71 85.9261 1368 86.2386 1368.37 86.4545C1368.74 86.6667 1369.18 86.7727 1369.67 86.7727C1370 86.7727 1370.29 86.7273 1370.55 86.6364C1370.82 86.5417 1371.05 86.4015 1371.24 86.2159C1371.43 86.0303 1371.58 85.8011 1371.68 85.5284L1373.29 85.8182C1373.16 86.2917 1372.93 86.7064 1372.6 87.0625C1372.27 87.4148 1371.86 87.6894 1371.36 87.8864C1370.86 88.0795 1370.29 88.1761 1369.66 88.1761Z" fill="#060606"/>
<rect x="1083" y="57" width="223.353" height="48" rx="24" fill="white"/>
<path d="M1102.87 88V76.3636H1107.02C1107.92 76.3636 1108.66 76.5189 1109.26 76.8295C1109.86 77.1402 1110.3 77.5701 1110.6 78.1193C1110.9 78.6648 1111.04 79.2955 1111.04 80.0114C1111.04 80.7235 1110.89 81.3504 1110.59 81.892C1110.3 82.4299 1109.85 82.8485 1109.25 83.1477C1108.66 83.447 1107.91 83.5966 1107.01 83.5966H1103.87V82.0852H1106.85C1107.42 82.0852 1107.88 82.0038 1108.24 81.8409C1108.6 81.678 1108.86 81.4413 1109.03 81.1307C1109.19 80.8201 1109.28 80.447 1109.28 80.0114C1109.28 79.572 1109.19 79.1913 1109.02 78.8693C1108.85 78.5473 1108.59 78.3011 1108.23 78.1307C1107.87 77.9564 1107.41 77.8693 1106.83 77.8693H1104.62V88H1102.87ZM1108.61 82.75L1111.49 88H1109.49L1106.67 82.75H1108.61ZM1116.7 88.1761C1115.84 88.1761 1115.1 87.9924 1114.47 87.625C1113.86 87.2538 1113.38 86.733 1113.04 86.0625C1112.71 85.3883 1112.54 84.5985 1112.54 83.6932C1112.54 82.7992 1112.71 82.0114 1113.04 81.3295C1113.38 80.6477 1113.85 80.1155 1114.45 79.733C1115.06 79.3504 1115.77 79.1591 1116.58 79.1591C1117.07 79.1591 1117.55 79.2405 1118.01 79.4034C1118.47 79.5663 1118.88 79.822 1119.25 80.1705C1119.62 80.5189 1119.91 80.9716 1120.12 81.5284C1120.33 82.0814 1120.44 82.7538 1120.44 83.5455V84.1477H1113.5V82.875H1118.77C1118.77 82.428 1118.68 82.0322 1118.5 81.6875C1118.32 81.339 1118.06 81.0644 1117.74 80.8636C1117.41 80.6629 1117.03 80.5625 1116.59 80.5625C1116.11 80.5625 1115.69 80.6799 1115.34 80.9148C1114.99 81.1458 1114.71 81.4489 1114.52 81.8239C1114.33 82.1951 1114.24 82.5985 1114.24 83.0341V84.0284C1114.24 84.6117 1114.34 85.108 1114.54 85.517C1114.75 85.9261 1115.04 86.2386 1115.41 86.4545C1115.78 86.6667 1116.22 86.7727 1116.71 86.7727C1117.03 86.7727 1117.33 86.7273 1117.59 86.6364C1117.86 86.5417 1118.09 86.4015 1118.28 86.2159C1118.47 86.0303 1118.62 85.8011 1118.72 85.5284L1120.33 85.8182C1120.2 86.2917 1119.97 86.7064 1119.64 87.0625C1119.31 87.4148 1118.89 87.6894 1118.39 87.8864C1117.9 88.0795 1117.33 88.1761 1116.7 88.1761ZM1125.98 91.4545C1125.29 91.4545 1124.69 91.3636 1124.19 91.1818C1123.7 91 1123.29 90.7595 1122.98 90.4602C1122.66 90.161 1122.43 89.8333 1122.27 89.4773L1123.73 88.875C1123.84 89.0417 1123.97 89.2178 1124.14 89.4034C1124.32 89.5928 1124.55 89.7538 1124.85 89.8864C1125.15 90.0189 1125.53 90.0852 1126 90.0852C1126.64 90.0852 1127.18 89.928 1127.6 89.6136C1128.02 89.303 1128.23 88.8068 1128.23 88.125V86.4091H1128.12C1128.02 86.5947 1127.87 86.8011 1127.68 87.0284C1127.49 87.2557 1127.23 87.4527 1126.89 87.6193C1126.56 87.786 1126.13 87.8693 1125.59 87.8693C1124.9 87.8693 1124.28 87.7083 1123.73 87.3864C1123.18 87.0606 1122.74 86.5814 1122.42 85.9489C1122.1 85.3125 1121.94 84.5303 1121.94 83.6023C1121.94 82.6742 1122.1 81.8788 1122.42 81.2159C1122.73 80.553 1123.17 80.0455 1123.72 79.6932C1124.28 79.3371 1124.9 79.1591 1125.6 79.1591C1126.14 79.1591 1126.58 79.25 1126.92 79.4318C1127.25 79.6098 1127.51 79.8182 1127.69 80.0568C1127.88 80.2955 1128.03 80.5057 1128.13 80.6875H1128.26V79.2727H1129.92V88.1932C1129.92 88.9432 1129.75 89.5587 1129.4 90.0398C1129.05 90.5208 1128.58 90.8769 1127.98 91.108C1127.39 91.339 1126.73 91.4545 1125.98 91.4545ZM1125.97 86.4602C1126.46 86.4602 1126.87 86.3466 1127.21 86.1193C1127.55 85.8883 1127.8 85.5587 1127.98 85.1307C1128.16 84.6989 1128.25 84.1818 1128.25 83.5795C1128.25 82.9924 1128.16 82.4754 1127.98 82.0284C1127.81 81.5814 1127.55 81.233 1127.22 80.983C1126.88 80.7292 1126.46 80.6023 1125.97 80.6023C1125.46 80.6023 1125.03 80.7348 1124.69 81C1124.35 81.2614 1124.09 81.6174 1123.92 82.0682C1123.75 82.5189 1123.66 83.0227 1123.66 83.5795C1123.66 84.1515 1123.75 84.6534 1123.92 85.0852C1124.1 85.517 1124.35 85.8542 1124.69 86.0966C1125.04 86.339 1125.46 86.4602 1125.97 86.4602ZM1132.2 88V79.2727H1133.9V88H1132.2ZM1133.06 77.9261C1132.76 77.9261 1132.51 77.8277 1132.3 77.6307C1132.09 77.4299 1131.98 77.1913 1131.98 76.9148C1131.98 76.6345 1132.09 76.3958 1132.3 76.1989C1132.51 75.9981 1132.76 75.8977 1133.06 75.8977C1133.35 75.8977 1133.6 75.9981 1133.81 76.1989C1134.03 76.3958 1134.13 76.6345 1134.13 76.9148C1134.13 77.1913 1134.03 77.4299 1133.81 77.6307C1133.6 77.8277 1133.35 77.9261 1133.06 77.9261ZM1139.86 88.1761C1139.04 88.1761 1138.33 87.9886 1137.72 87.6136C1137.11 87.2386 1136.63 86.714 1136.3 86.0398C1135.96 85.3655 1135.79 84.5777 1135.79 83.6761C1135.79 82.7708 1135.96 81.9792 1136.3 81.3011C1136.63 80.6231 1137.11 80.0966 1137.72 79.7216C1138.33 79.3466 1139.04 79.1591 1139.86 79.1591C1140.68 79.1591 1141.39 79.3466 1142 79.7216C1142.61 80.0966 1143.09 80.6231 1143.42 81.3011C1143.76 81.9792 1143.93 82.7708 1143.93 83.6761C1143.93 84.5777 1143.76 85.3655 1143.42 86.0398C1143.09 86.714 1142.61 87.2386 1142 87.6136C1141.39 87.9886 1140.68 88.1761 1139.86 88.1761ZM1139.87 86.75C1140.4 86.75 1140.84 86.6098 1141.18 86.3295C1141.53 86.0492 1141.79 85.6761 1141.96 85.2102C1142.13 84.7443 1142.21 84.2311 1142.21 83.6705C1142.21 83.1136 1142.13 82.6023 1141.96 82.1364C1141.79 81.6667 1141.53 81.2898 1141.18 81.0057C1140.84 80.7216 1140.4 80.5795 1139.87 80.5795C1139.33 80.5795 1138.89 80.7216 1138.54 81.0057C1138.19 81.2898 1137.93 81.6667 1137.76 82.1364C1137.59 82.6023 1137.51 83.1136 1137.51 83.6705C1137.51 84.2311 1137.59 84.7443 1137.76 85.2102C1137.93 85.6761 1138.19 86.0492 1138.54 86.3295C1138.89 86.6098 1139.33 86.75 1139.87 86.75ZM1147.52 82.8182V88H1145.82V79.2727H1147.46V80.6932H1147.56C1147.76 80.2311 1148.08 79.8598 1148.51 79.5795C1148.94 79.2992 1149.48 79.1591 1150.14 79.1591C1150.73 79.1591 1151.25 79.2841 1151.7 79.5341C1152.15 79.7803 1152.49 80.1477 1152.74 80.6364C1152.99 81.125 1153.11 81.7292 1153.11 82.4489V88H1151.41V82.6534C1151.41 82.0208 1151.25 81.5265 1150.92 81.1705C1150.59 80.8106 1150.13 80.6307 1149.56 80.6307C1149.16 80.6307 1148.81 80.7159 1148.51 80.8864C1148.2 81.0568 1147.96 81.3068 1147.78 81.6364C1147.61 81.9621 1147.52 82.3561 1147.52 82.8182Z" fill="#060606"/>
<path d="M53.2784 312V300.364H57.5398C58.3655 300.364 59.0492 300.5 59.5909 300.773C60.1326 301.042 60.5379 301.407 60.8068 301.869C61.0758 302.328 61.2102 302.845 61.2102 303.42C61.2102 303.905 61.1212 304.314 60.9432 304.648C60.7652 304.977 60.5265 305.242 60.2273 305.443C59.9318 305.64 59.6061 305.784 59.25 305.875V305.989C59.6364 306.008 60.0133 306.133 60.3807 306.364C60.7519 306.591 61.0587 306.915 61.3011 307.335C61.5436 307.756 61.6648 308.267 61.6648 308.869C61.6648 309.464 61.5246 309.998 61.2443 310.472C60.9678 310.941 60.5398 311.314 59.9602 311.591C59.3807 311.864 58.6402 312 57.7386 312H53.2784ZM55.0341 310.494H57.5682C58.4091 310.494 59.0114 310.331 59.375 310.006C59.7386 309.68 59.9205 309.273 59.9205 308.784C59.9205 308.417 59.8277 308.08 59.642 307.773C59.4564 307.466 59.1913 307.222 58.8466 307.04C58.5057 306.858 58.1004 306.767 57.6307 306.767H55.0341V310.494ZM55.0341 305.398H57.3864C57.7803 305.398 58.1345 305.322 58.4489 305.17C58.767 305.019 59.0189 304.807 59.2045 304.534C59.3939 304.258 59.4886 303.932 59.4886 303.557C59.4886 303.076 59.3201 302.672 58.983 302.347C58.6458 302.021 58.1288 301.858 57.4318 301.858H55.0341V305.398ZM67.4469 312.176C66.6288 312.176 65.9147 311.989 65.3049 311.614C64.695 311.239 64.2216 310.714 63.8844 310.04C63.5473 309.366 63.3787 308.578 63.3787 307.676C63.3787 306.771 63.5473 305.979 63.8844 305.301C64.2216 304.623 64.695 304.097 65.3049 303.722C65.9147 303.347 66.6288 303.159 67.4469 303.159C68.2651 303.159 68.9791 303.347 69.589 303.722C70.1988 304.097 70.6723 304.623 71.0094 305.301C71.3466 305.979 71.5151 306.771 71.5151 307.676C71.5151 308.578 71.3466 309.366 71.0094 310.04C70.6723 310.714 70.1988 311.239 69.589 311.614C68.9791 311.989 68.2651 312.176 67.4469 312.176ZM67.4526 310.75C67.9829 310.75 68.4223 310.61 68.7708 310.33C69.1193 310.049 69.3769 309.676 69.5435 309.21C69.714 308.744 69.7992 308.231 69.7992 307.67C69.7992 307.114 69.714 306.602 69.5435 306.136C69.3769 305.667 69.1193 305.29 68.7708 305.006C68.4223 304.722 67.9829 304.58 67.4526 304.58C66.9185 304.58 66.4753 304.722 66.1231 305.006C65.7746 305.29 65.5151 305.667 65.3447 306.136C65.178 306.602 65.0947 307.114 65.0947 307.67C65.0947 308.231 65.178 308.744 65.3447 309.21C65.5151 309.676 65.7746 310.049 66.1231 310.33C66.4753 310.61 66.9185 310.75 67.4526 310.75ZM77.6453 303.273V304.636H72.8782V303.273H77.6453ZM74.1566 301.182H75.8555V309.438C75.8555 309.767 75.9048 310.015 76.0032 310.182C76.1017 310.345 76.2286 310.456 76.3839 310.517C76.543 310.574 76.7154 310.602 76.901 310.602C77.0373 310.602 77.1566 310.593 77.2589 310.574C77.3612 310.555 77.4407 310.54 77.4976 310.528L77.8044 311.932C77.7059 311.97 77.5657 312.008 77.3839 312.045C77.2021 312.087 76.9748 312.11 76.7021 312.114C76.2551 312.121 75.8385 312.042 75.4521 311.875C75.0657 311.708 74.7532 311.451 74.5146 311.102C74.276 310.754 74.1566 310.316 74.1566 309.79V301.182ZM83.7584 303.273V304.636H78.9914V303.273H83.7584ZM80.2698 301.182H81.9686V309.438C81.9686 309.767 82.0179 310.015 82.1164 310.182C82.2148 310.345 82.3417 310.456 82.497 310.517C82.6561 310.574 82.8285 310.602 83.0141 310.602C83.1505 310.602 83.2698 310.593 83.372 310.574C83.4743 310.555 83.5539 310.54 83.6107 310.528L83.9175 311.932C83.819 311.97 83.6789 312.008 83.497 312.045C83.3152 312.087 83.088 312.11 82.8152 312.114C82.3683 312.121 81.9516 312.042 81.5652 311.875C81.1789 311.708 80.8664 311.451 80.6277 311.102C80.3891 310.754 80.2698 310.316 80.2698 309.79V301.182ZM87.684 300.364V312H85.9852V300.364H87.684ZM93.8909 312.176C93.0311 312.176 92.2905 311.992 91.6693 311.625C91.0519 311.254 90.5746 310.733 90.2375 310.062C89.9042 309.388 89.7375 308.598 89.7375 307.693C89.7375 306.799 89.9042 306.011 90.2375 305.33C90.5746 304.648 91.0443 304.116 91.6466 303.733C92.2527 303.35 92.961 303.159 93.7716 303.159C94.264 303.159 94.7413 303.241 95.2034 303.403C95.6655 303.566 96.0803 303.822 96.4477 304.17C96.8152 304.519 97.1049 304.972 97.317 305.528C97.5292 306.081 97.6352 306.754 97.6352 307.545V308.148H90.6977V306.875H95.9705C95.9705 306.428 95.8795 306.032 95.6977 305.688C95.5159 305.339 95.2602 305.064 94.9307 304.864C94.6049 304.663 94.2223 304.562 93.783 304.562C93.3057 304.562 92.889 304.68 92.533 304.915C92.1807 305.146 91.908 305.449 91.7148 305.824C91.5254 306.195 91.4307 306.598 91.4307 307.034V308.028C91.4307 308.612 91.533 309.108 91.7375 309.517C91.9458 309.926 92.2356 310.239 92.6068 310.455C92.978 310.667 93.4117 310.773 93.908 310.773C94.2299 310.773 94.5235 310.727 94.7886 310.636C95.0538 310.542 95.283 310.402 95.4761 310.216C95.6693 310.03 95.817 309.801 95.9193 309.528L97.5273 309.818C97.3985 310.292 97.1674 310.706 96.8341 311.062C96.5045 311.415 96.0898 311.689 95.5898 311.886C95.0936 312.08 94.5273 312.176 93.8909 312.176ZM101.379 306.818V312H99.6802V303.273H101.311V304.693H101.419C101.62 304.231 101.934 303.86 102.362 303.58C102.794 303.299 103.337 303.159 103.993 303.159C104.587 303.159 105.108 303.284 105.555 303.534C106.002 303.78 106.349 304.148 106.595 304.636C106.841 305.125 106.964 305.729 106.964 306.449V312H105.265V306.653C105.265 306.021 105.101 305.527 104.771 305.17C104.442 304.811 103.989 304.631 103.413 304.631C103.019 304.631 102.669 304.716 102.362 304.886C102.059 305.057 101.818 305.307 101.64 305.636C101.466 305.962 101.379 306.356 101.379 306.818ZM113.164 312.176C112.304 312.176 111.564 311.992 110.942 311.625C110.325 311.254 109.848 310.733 109.511 310.062C109.177 309.388 109.011 308.598 109.011 307.693C109.011 306.799 109.177 306.011 109.511 305.33C109.848 304.648 110.317 304.116 110.92 303.733C111.526 303.35 112.234 303.159 113.045 303.159C113.537 303.159 114.014 303.241 114.477 303.403C114.939 303.566 115.353 303.822 115.721 304.17C116.088 304.519 116.378 304.972 116.59 305.528C116.802 306.081 116.908 306.754 116.908 307.545V308.148H109.971V306.875H115.244C115.244 306.428 115.153 306.032 114.971 305.688C114.789 305.339 114.533 305.064 114.204 304.864C113.878 304.663 113.495 304.562 113.056 304.562C112.579 304.562 112.162 304.68 111.806 304.915C111.454 305.146 111.181 305.449 110.988 305.824C110.799 306.195 110.704 306.598 110.704 307.034V308.028C110.704 308.612 110.806 309.108 111.011 309.517C111.219 309.926 111.509 310.239 111.88 310.455C112.251 310.667 112.685 310.773 113.181 310.773C113.503 310.773 113.797 310.727 114.062 310.636C114.327 310.542 114.556 310.402 114.749 310.216C114.942 310.03 115.09 309.801 115.192 309.528L116.8 309.818C116.672 310.292 116.441 310.706 116.107 311.062C115.778 311.415 115.363 311.689 114.863 311.886C114.367 312.08 113.8 312.176 113.164 312.176ZM122.629 312.176C121.785 312.176 121.057 311.985 120.448 311.602C119.842 311.216 119.376 310.684 119.05 310.006C118.724 309.328 118.561 308.551 118.561 307.676C118.561 306.79 118.728 306.008 119.061 305.33C119.395 304.648 119.864 304.116 120.47 303.733C121.076 303.35 121.79 303.159 122.612 303.159C123.275 303.159 123.866 303.282 124.385 303.528C124.904 303.771 125.323 304.112 125.641 304.551C125.963 304.991 126.154 305.504 126.215 306.091H124.561C124.47 305.682 124.262 305.33 123.936 305.034C123.614 304.739 123.182 304.591 122.641 304.591C122.167 304.591 121.753 304.716 121.396 304.966C121.044 305.212 120.77 305.564 120.573 306.023C120.376 306.477 120.277 307.015 120.277 307.636C120.277 308.273 120.374 308.822 120.567 309.284C120.76 309.746 121.033 310.104 121.385 310.358C121.741 310.612 122.16 310.739 122.641 310.739C122.963 310.739 123.254 310.68 123.516 310.562C123.781 310.441 124.003 310.269 124.181 310.045C124.362 309.822 124.489 309.553 124.561 309.239H126.215C126.154 309.803 125.97 310.307 125.664 310.75C125.357 311.193 124.946 311.542 124.431 311.795C123.919 312.049 123.319 312.176 122.629 312.176ZM129.754 309.04L129.743 306.966H130.038L133.515 303.273H135.549L131.583 307.477H131.316L129.754 309.04ZM128.191 312V300.364H129.89V312H128.191ZM133.703 312L130.578 307.852L131.748 306.665L135.788 312H133.703ZM143.797 305.403L142.258 305.676C142.193 305.479 142.091 305.292 141.951 305.114C141.814 304.936 141.629 304.79 141.394 304.676C141.159 304.562 140.866 304.506 140.513 304.506C140.032 304.506 139.631 304.614 139.309 304.83C138.987 305.042 138.826 305.316 138.826 305.653C138.826 305.945 138.934 306.18 139.15 306.358C139.366 306.536 139.714 306.682 140.195 306.795L141.582 307.114C142.385 307.299 142.983 307.585 143.377 307.972C143.771 308.358 143.968 308.86 143.968 309.477C143.968 310 143.816 310.466 143.513 310.875C143.214 311.28 142.796 311.598 142.258 311.83C141.724 312.061 141.104 312.176 140.4 312.176C139.422 312.176 138.625 311.968 138.008 311.551C137.39 311.131 137.011 310.534 136.871 309.761L138.513 309.511C138.616 309.939 138.826 310.263 139.144 310.483C139.462 310.699 139.877 310.807 140.388 310.807C140.945 310.807 141.39 310.691 141.724 310.46C142.057 310.225 142.224 309.939 142.224 309.602C142.224 309.33 142.121 309.1 141.917 308.915C141.716 308.729 141.407 308.589 140.991 308.494L139.513 308.17C138.699 307.985 138.097 307.689 137.707 307.284C137.32 306.879 137.127 306.366 137.127 305.744C137.127 305.229 137.271 304.778 137.559 304.392C137.847 304.006 138.244 303.705 138.752 303.489C139.26 303.269 139.841 303.159 140.496 303.159C141.439 303.159 142.182 303.364 142.724 303.773C143.265 304.178 143.623 304.722 143.797 305.403Z" fill="black"/>
<defs>
<filter id="filter0_d_202_571" x="35" y="136" width="297" height="138" filterUnits="userSpaceOnUse" color-interpolation-filters="sRGB">
<feFlood flood-opacity="0" result="BackgroundImageFix"/>
<feColorMatrix in="SourceAlpha" type="matrix" values="0 0 0 0 0 0 0 0 0 0 0 0 0 0 0 0 0 0 127 0" result="hardAlpha"/>
<feOffset dx="2" dy="4"/>
<feGaussianBlur stdDeviation="2"/>
<feComposite in2="hardAlpha" operator="out"/>
<feColorMatrix type="matrix" values="0 0 0 0 0.604167 0 0 0 0 0.604167 0 0 0 0 0.604167 0 0 0 1 0"/>
<feBlend mode="normal" in2="BackgroundImageFix" result="effect1_dropShadow_202_571"/>
<feBlend mode="normal" in="SourceGraphic" in2="effect1_dropShadow_202_571" result="shape"/>
</filter>
<filter id="filter1_d_202_571" x="1252" y="136" width="297" height="138" filterUnits="userSpaceOnUse" color-interpolation-filters="sRGB">
<feFlood flood-opacity="0" result="BackgroundImageFix"/>
<feColorMatrix in="SourceAlpha" type="matrix" values="0 0 0 0 0 0 0 0 0 0 0 0 0 0 0 0 0 0 127 0" result="hardAlpha"/>
<feOffset dx="2" dy="4"/>
<feGaussianBlur stdDeviation="2"/>
<feComposite in2="hardAlpha" operator="out"/>
<feColorMatrix type="matrix" values="0 0 0 0 0.604167 0 0 0 0 0.604167 0 0 0 0 0.604167 0 0 0 1 0"/>
<feBlend mode="normal" in2="BackgroundImageFix" result="effect1_dropShadow_202_571"/>
<feBlend mode="normal" in="SourceGraphic" in2="effect1_dropShadow_202_571" result="shape"/>
</filter>
<filter id="filter2_d_202_571" x="947" y="136" width="297" height="138" filterUnits="userSpaceOnUse" color-interpolation-filters="sRGB">
<feFlood flood-opacity="0" result="BackgroundImageFix"/>
<feColorMatrix in="SourceAlpha" type="matrix" values="0 0 0 0 0 0 0 0 0 0 0 0 0 0 0 0 0 0 127 0" result="hardAlpha"/>
<feOffset dx="2" dy="4"/>
<feGaussianBlur stdDeviation="2"/>
<feComposite in2="hardAlpha" operator="out"/>
<feColorMatrix type="matrix" values="0 0 0 0 0.604167 0 0 0 0 0.604167 0 0 0 0 0.604167 0 0 0 1 0"/>
<feBlend mode="normal" in2="BackgroundImageFix" result="effect1_dropShadow_202_571"/>
<feBlend mode="normal" in="SourceGraphic" in2="effect1_dropShadow_202_571" result="shape"/>
</filter>
<filter id="filter3_d_202_571" x="643" y="136" width="297" height="138" filterUnits="userSpaceOnUse" color-interpolation-filters="sRGB">
<feFlood flood-opacity="0" result="BackgroundImageFix"/>
<feColorMatrix in="SourceAlpha" type="matrix" values="0 0 0 0 0 0 0 0 0 0 0 0 0 0 0 0 0 0 127 0" result="hardAlpha"/>
<feOffset dx="2" dy="4"/>
<feGaussianBlur stdDeviation="2"/>
<feComposite in2="hardAlpha" operator="out"/>
<feColorMatrix type="matrix" values="0 0 0 0 0.604167 0 0 0 0 0.604167 0 0 0 0 0.604167 0 0 0 1 0"/>
<feBlend mode="normal" in2="BackgroundImageFix" result="effect1_dropShadow_202_571"/>
<feBlend mode="normal" in="SourceGraphic" in2="effect1_dropShadow_202_571" result="shape"/>
</filter>
<filter id="filter4_d_202_571" x="339" y="136" width="297" height="138" filterUnits="userSpaceOnUse" color-interpolation-filters="sRGB">
<feFlood flood-opacity="0" result="BackgroundImageFix"/>
<feColorMatrix in="SourceAlpha" type="matrix" values="0 0 0 0 0 0 0 0 0 0 0 0 0 0 0 0 0 0 127 0" result="hardAlpha"/>
<feOffset dx="2" dy="4"/>
<feGaussianBlur stdDeviation="2"/>
<feComposite in2="hardAlpha" operator="out"/>
<feColorMatrix type="matrix" values="0 0 0 0 0.604167 0 0 0 0 0.604167 0 0 0 0 0.604167 0 0 0 1 0"/>
<feBlend mode="normal" in2="BackgroundImageFix" result="effect1_dropShadow_202_571"/>
<feBlend mode="normal" in="SourceGraphic" in2="effect1_dropShadow_202_571" result="shape"/>
</filter>
</defs>
</svg>
