<svg width="1580" height="908" viewBox="0 0 1580 908" fill="none" xmlns="http://www.w3.org/2000/svg">
<rect width="1580" height="908" fill="white"/>
<rect x="23" y="22" width="1536" height="864" rx="10" fill="#EBDFD7"/>
<rect x="22" y="22" width="1536" height="118" rx="10" fill="#060606"/>
<rect x="37" y="156" width="709" height="350" rx="14" fill="white"/>
<rect x="761" y="156" width="782" height="715" rx="14" fill="white"/>
<path d="M776.705 185.875V184.364H785.71V185.875H782.08V196H780.33V185.875H776.705ZM790.22 196.176C789.36 196.176 788.619 195.992 787.998 195.625C787.381 195.254 786.903 194.733 786.566 194.062C786.233 193.388 786.066 192.598 786.066 191.693C786.066 190.799 786.233 190.011 786.566 189.33C786.903 188.648 787.373 188.116 787.975 187.733C788.581 187.35 789.29 187.159 790.1 187.159C790.593 187.159 791.07 187.241 791.532 187.403C791.994 187.566 792.409 187.822 792.776 188.17C793.144 188.519 793.434 188.972 793.646 189.528C793.858 190.081 793.964 190.754 793.964 191.545V192.148H787.026V190.875H792.299C792.299 190.428 792.208 190.032 792.026 189.688C791.845 189.339 791.589 189.064 791.259 188.864C790.934 188.663 790.551 188.562 790.112 188.562C789.634 188.562 789.218 188.68 788.862 188.915C788.509 189.146 788.237 189.449 788.044 189.824C787.854 190.195 787.759 190.598 787.759 191.034V192.028C787.759 192.612 787.862 193.108 788.066 193.517C788.275 193.926 788.564 194.239 788.936 194.455C789.307 194.667 789.74 194.773 790.237 194.773C790.559 194.773 790.852 194.727 791.117 194.636C791.383 194.542 791.612 194.402 791.805 194.216C791.998 194.03 792.146 193.801 792.248 193.528L793.856 193.818C793.727 194.292 793.496 194.706 793.163 195.062C792.833 195.415 792.419 195.689 791.919 195.886C791.422 196.08 790.856 196.176 790.22 196.176ZM796.009 196V187.273H797.651V188.659H797.742C797.901 188.189 798.181 187.82 798.583 187.551C798.988 187.278 799.446 187.142 799.958 187.142C800.064 187.142 800.189 187.146 800.333 187.153C800.481 187.161 800.596 187.17 800.679 187.182V188.807C800.611 188.788 800.49 188.767 800.316 188.744C800.141 188.718 799.967 188.705 799.793 188.705C799.391 188.705 799.034 188.79 798.719 188.96C798.409 189.127 798.162 189.36 797.981 189.659C797.799 189.955 797.708 190.292 797.708 190.67V196H796.009ZM802.31 196V187.273H803.94V188.693H804.048C804.23 188.212 804.527 187.837 804.94 187.568C805.353 187.295 805.847 187.159 806.423 187.159C807.007 187.159 807.495 187.295 807.889 187.568C808.287 187.841 808.58 188.216 808.77 188.693H808.861C809.069 188.227 809.4 187.856 809.855 187.58C810.31 187.299 810.851 187.159 811.48 187.159C812.272 187.159 812.917 187.407 813.417 187.903C813.921 188.4 814.173 189.148 814.173 190.148V196H812.474V190.307C812.474 189.716 812.313 189.288 811.991 189.023C811.669 188.758 811.285 188.625 810.838 188.625C810.285 188.625 809.855 188.795 809.548 189.136C809.241 189.473 809.088 189.907 809.088 190.438V196H807.395V190.199C807.395 189.725 807.247 189.345 806.952 189.057C806.656 188.769 806.272 188.625 805.798 188.625C805.476 188.625 805.179 188.71 804.906 188.881C804.637 189.047 804.419 189.28 804.253 189.58C804.09 189.879 804.008 190.225 804.008 190.619V196H802.31ZM816.61 196V187.273H818.309V196H816.61ZM817.468 185.926C817.173 185.926 816.919 185.828 816.707 185.631C816.498 185.43 816.394 185.191 816.394 184.915C816.394 184.634 816.498 184.396 816.707 184.199C816.919 183.998 817.173 183.898 817.468 183.898C817.764 183.898 818.015 183.998 818.224 184.199C818.436 184.396 818.542 184.634 818.542 184.915C818.542 185.191 818.436 185.43 818.224 185.631C818.015 185.828 817.764 185.926 817.468 185.926ZM822.453 190.818V196H820.755V187.273H822.385V188.693H822.493C822.694 188.231 823.008 187.86 823.436 187.58C823.868 187.299 824.412 187.159 825.067 187.159C825.662 187.159 826.183 187.284 826.63 187.534C827.077 187.78 827.423 188.148 827.669 188.636C827.916 189.125 828.039 189.729 828.039 190.449V196H826.34V190.653C826.34 190.021 826.175 189.527 825.845 189.17C825.516 188.811 825.063 188.631 824.487 188.631C824.094 188.631 823.743 188.716 823.436 188.886C823.133 189.057 822.893 189.307 822.715 189.636C822.541 189.962 822.453 190.356 822.453 190.818ZM833.017 196.193C832.464 196.193 831.964 196.091 831.517 195.886C831.07 195.678 830.716 195.377 830.454 194.983C830.197 194.589 830.068 194.106 830.068 193.534C830.068 193.042 830.163 192.636 830.352 192.318C830.541 192 830.797 191.748 831.119 191.562C831.441 191.377 831.801 191.237 832.199 191.142C832.596 191.047 833.002 190.975 833.415 190.926C833.937 190.866 834.362 190.816 834.687 190.778C835.013 190.737 835.25 190.67 835.397 190.58C835.545 190.489 835.619 190.341 835.619 190.136V190.097C835.619 189.6 835.479 189.216 835.199 188.943C834.922 188.67 834.509 188.534 833.96 188.534C833.388 188.534 832.937 188.661 832.608 188.915C832.282 189.165 832.057 189.443 831.932 189.75L830.335 189.386C830.524 188.856 830.801 188.428 831.165 188.102C831.532 187.773 831.954 187.534 832.432 187.386C832.909 187.235 833.411 187.159 833.937 187.159C834.286 187.159 834.655 187.201 835.045 187.284C835.439 187.364 835.807 187.511 836.147 187.727C836.492 187.943 836.774 188.252 836.994 188.653C837.214 189.051 837.324 189.568 837.324 190.205V196H835.665V194.807H835.596C835.487 195.027 835.322 195.242 835.102 195.455C834.882 195.667 834.6 195.843 834.255 195.983C833.911 196.123 833.498 196.193 833.017 196.193ZM833.386 194.83C833.856 194.83 834.257 194.737 834.591 194.551C834.928 194.366 835.183 194.123 835.358 193.824C835.536 193.521 835.625 193.197 835.625 192.852V191.727C835.564 191.788 835.447 191.845 835.272 191.898C835.102 191.947 834.907 191.991 834.687 192.028C834.468 192.062 834.254 192.095 834.045 192.125C833.837 192.152 833.663 192.174 833.522 192.193C833.193 192.235 832.892 192.305 832.619 192.403C832.35 192.502 832.134 192.644 831.971 192.83C831.812 193.011 831.733 193.254 831.733 193.557C831.733 193.977 831.888 194.295 832.199 194.511C832.509 194.723 832.905 194.83 833.386 194.83ZM841.445 184.364V196H839.746V184.364H841.445ZM850.431 189.403L848.891 189.676C848.826 189.479 848.724 189.292 848.584 189.114C848.448 188.936 848.262 188.79 848.027 188.676C847.792 188.562 847.499 188.506 847.146 188.506C846.665 188.506 846.264 188.614 845.942 188.83C845.62 189.042 845.459 189.316 845.459 189.653C845.459 189.945 845.567 190.18 845.783 190.358C845.999 190.536 846.347 190.682 846.828 190.795L848.215 191.114C849.018 191.299 849.616 191.585 850.01 191.972C850.404 192.358 850.601 192.86 850.601 193.477C850.601 194 850.45 194.466 850.146 194.875C849.847 195.28 849.429 195.598 848.891 195.83C848.357 196.061 847.737 196.176 847.033 196.176C846.056 196.176 845.258 195.968 844.641 195.551C844.023 195.131 843.645 194.534 843.504 193.761L845.146 193.511C845.249 193.939 845.459 194.263 845.777 194.483C846.095 194.699 846.51 194.807 847.021 194.807C847.578 194.807 848.023 194.691 848.357 194.46C848.69 194.225 848.857 193.939 848.857 193.602C848.857 193.33 848.754 193.1 848.55 192.915C848.349 192.729 848.04 192.589 847.624 192.494L846.146 192.17C845.332 191.985 844.73 191.689 844.34 191.284C843.953 190.879 843.76 190.366 843.76 189.744C843.76 189.229 843.904 188.778 844.192 188.392C844.48 188.006 844.878 187.705 845.385 187.489C845.893 187.269 846.474 187.159 847.129 187.159C848.073 187.159 848.815 187.364 849.357 187.773C849.898 188.178 850.256 188.722 850.431 189.403Z" fill="black"/>
<rect x="37" y="521" width="709" height="350" rx="14" fill="white"/>
<path d="M52.7045 540.875V539.364H61.7102V540.875H58.0795V551H56.3295V540.875H52.7045ZM66.2197 551.176C65.3598 551.176 64.6193 550.992 63.9981 550.625C63.3806 550.254 62.9034 549.733 62.5662 549.062C62.2329 548.388 62.0662 547.598 62.0662 546.693C62.0662 545.799 62.2329 545.011 62.5662 544.33C62.9034 543.648 63.3731 543.116 63.9753 542.733C64.5814 542.35 65.2897 542.159 66.1003 542.159C66.5928 542.159 67.07 542.241 67.5322 542.403C67.9943 542.566 68.4091 542.822 68.7765 543.17C69.1439 543.519 69.4337 543.972 69.6458 544.528C69.8579 545.081 69.964 545.754 69.964 546.545V547.148H63.0265V545.875H68.2992C68.2992 545.428 68.2083 545.032 68.0265 544.688C67.8447 544.339 67.589 544.064 67.2594 543.864C66.9337 543.663 66.5511 543.562 66.1117 543.562C65.6344 543.562 65.2178 543.68 64.8617 543.915C64.5094 544.146 64.2367 544.449 64.0435 544.824C63.8541 545.195 63.7594 545.598 63.7594 546.034V547.028C63.7594 547.612 63.8617 548.108 64.0662 548.517C64.2746 548.926 64.5644 549.239 64.9356 549.455C65.3068 549.667 65.7405 549.773 66.2367 549.773C66.5587 549.773 66.8522 549.727 67.1174 549.636C67.3825 549.542 67.6117 549.402 67.8049 549.216C67.9981 549.03 68.1458 548.801 68.2481 548.528L69.856 548.818C69.7272 549.292 69.4962 549.706 69.1628 550.062C68.8333 550.415 68.4185 550.689 67.9185 550.886C67.4223 551.08 66.856 551.176 66.2197 551.176ZM72.0089 551V542.273H73.651V543.659H73.7419C73.901 543.189 74.1813 542.82 74.5828 542.551C74.9881 542.278 75.4464 542.142 75.9578 542.142C76.0638 542.142 76.1888 542.146 76.3328 542.153C76.4805 542.161 76.596 542.17 76.6794 542.182V543.807C76.6112 543.788 76.49 543.767 76.3157 543.744C76.1415 543.718 75.9673 543.705 75.793 543.705C75.3915 543.705 75.0335 543.79 74.7191 543.96C74.4085 544.127 74.1623 544.36 73.9805 544.659C73.7987 544.955 73.7078 545.292 73.7078 545.67V551H72.0089ZM78.3095 551V542.273H79.9402V543.693H80.0482C80.23 543.212 80.5273 542.837 80.9402 542.568C81.3531 542.295 81.8474 542.159 82.4232 542.159C83.0065 542.159 83.4952 542.295 83.8891 542.568C84.2868 542.841 84.5804 543.216 84.7698 543.693H84.8607C85.069 543.227 85.4005 542.856 85.855 542.58C86.3095 542.299 86.8512 542.159 87.48 542.159C88.2717 542.159 88.9175 542.407 89.4175 542.903C89.9213 543.4 90.1732 544.148 90.1732 545.148V551H88.4743V545.307C88.4743 544.716 88.3133 544.288 87.9914 544.023C87.6694 543.758 87.2849 543.625 86.838 543.625C86.2849 543.625 85.855 543.795 85.5482 544.136C85.2414 544.473 85.088 544.907 85.088 545.438V551H83.3948V545.199C83.3948 544.725 83.247 544.345 82.9516 544.057C82.6561 543.769 82.2717 543.625 81.7982 543.625C81.4762 543.625 81.1789 543.71 80.9061 543.881C80.6372 544.047 80.4194 544.28 80.2527 544.58C80.0898 544.879 80.0084 545.225 80.0084 545.619V551H78.3095ZM92.6102 551V542.273H94.309V551H92.6102ZM93.4681 540.926C93.1727 540.926 92.9189 540.828 92.7068 540.631C92.4984 540.43 92.3943 540.191 92.3943 539.915C92.3943 539.634 92.4984 539.396 92.7068 539.199C92.9189 538.998 93.1727 538.898 93.4681 538.898C93.7636 538.898 94.0155 538.998 94.2238 539.199C94.4359 539.396 94.542 539.634 94.542 539.915C94.542 540.191 94.4359 540.43 94.2238 540.631C94.0155 540.828 93.7636 540.926 93.4681 540.926ZM98.4534 545.818V551H96.7545V542.273H98.3852V543.693H98.4932C98.6939 543.231 99.0083 542.86 99.4364 542.58C99.8682 542.299 100.412 542.159 101.067 542.159C101.662 542.159 102.183 542.284 102.63 542.534C103.077 542.78 103.423 543.148 103.669 543.636C103.916 544.125 104.039 544.729 104.039 545.449V551H102.34V545.653C102.34 545.021 102.175 544.527 101.845 544.17C101.516 543.811 101.063 543.631 100.487 543.631C100.094 543.631 99.7432 543.716 99.4364 543.886C99.1333 544.057 98.8928 544.307 98.7148 544.636C98.5405 544.962 98.4534 545.356 98.4534 545.818ZM109.017 551.193C108.464 551.193 107.964 551.091 107.517 550.886C107.07 550.678 106.716 550.377 106.454 549.983C106.197 549.589 106.068 549.106 106.068 548.534C106.068 548.042 106.163 547.636 106.352 547.318C106.541 547 106.797 546.748 107.119 546.562C107.441 546.377 107.801 546.237 108.199 546.142C108.596 546.047 109.002 545.975 109.415 545.926C109.937 545.866 110.362 545.816 110.687 545.778C111.013 545.737 111.25 545.67 111.397 545.58C111.545 545.489 111.619 545.341 111.619 545.136V545.097C111.619 544.6 111.479 544.216 111.199 543.943C110.922 543.67 110.509 543.534 109.96 543.534C109.388 543.534 108.937 543.661 108.608 543.915C108.282 544.165 108.057 544.443 107.932 544.75L106.335 544.386C106.524 543.856 106.801 543.428 107.165 543.102C107.532 542.773 107.954 542.534 108.432 542.386C108.909 542.235 109.411 542.159 109.937 542.159C110.286 542.159 110.655 542.201 111.045 542.284C111.439 542.364 111.807 542.511 112.147 542.727C112.492 542.943 112.774 543.252 112.994 543.653C113.214 544.051 113.324 544.568 113.324 545.205V551H111.665V549.807H111.596C111.487 550.027 111.322 550.242 111.102 550.455C110.882 550.667 110.6 550.843 110.255 550.983C109.911 551.123 109.498 551.193 109.017 551.193ZM109.386 549.83C109.856 549.83 110.257 549.737 110.591 549.551C110.928 549.366 111.183 549.123 111.358 548.824C111.536 548.521 111.625 548.197 111.625 547.852V546.727C111.564 546.788 111.447 546.845 111.272 546.898C111.102 546.947 110.907 546.991 110.687 547.028C110.468 547.062 110.254 547.095 110.045 547.125C109.837 547.152 109.663 547.174 109.522 547.193C109.193 547.235 108.892 547.305 108.619 547.403C108.35 547.502 108.134 547.644 107.971 547.83C107.812 548.011 107.733 548.254 107.733 548.557C107.733 548.977 107.888 549.295 108.199 549.511C108.509 549.723 108.905 549.83 109.386 549.83ZM117.445 539.364V551H115.746V539.364H117.445ZM127.961 551.176C127.117 551.176 126.389 550.985 125.779 550.602C125.173 550.216 124.708 549.684 124.382 549.006C124.056 548.328 123.893 547.551 123.893 546.676C123.893 545.79 124.06 545.008 124.393 544.33C124.726 543.648 125.196 543.116 125.802 542.733C126.408 542.35 127.122 542.159 127.944 542.159C128.607 542.159 129.198 542.282 129.717 542.528C130.236 542.771 130.654 543.112 130.973 543.551C131.295 543.991 131.486 544.504 131.547 545.091H129.893C129.802 544.682 129.594 544.33 129.268 544.034C128.946 543.739 128.514 543.591 127.973 543.591C127.499 543.591 127.084 543.716 126.728 543.966C126.376 544.212 126.101 544.564 125.904 545.023C125.708 545.477 125.609 546.015 125.609 546.636C125.609 547.273 125.706 547.822 125.899 548.284C126.092 548.746 126.365 549.104 126.717 549.358C127.073 549.612 127.492 549.739 127.973 549.739C128.295 549.739 128.586 549.68 128.848 549.562C129.113 549.441 129.334 549.269 129.512 549.045C129.694 548.822 129.821 548.553 129.893 548.239H131.547C131.486 548.803 131.302 549.307 130.995 549.75C130.689 550.193 130.278 550.542 129.762 550.795C129.251 551.049 128.651 551.176 127.961 551.176ZM137.199 551.176C136.381 551.176 135.667 550.989 135.057 550.614C134.448 550.239 133.974 549.714 133.637 549.04C133.3 548.366 133.131 547.578 133.131 546.676C133.131 545.771 133.3 544.979 133.637 544.301C133.974 543.623 134.448 543.097 135.057 542.722C135.667 542.347 136.381 542.159 137.199 542.159C138.018 542.159 138.732 542.347 139.341 542.722C139.951 543.097 140.425 543.623 140.762 544.301C141.099 544.979 141.268 545.771 141.268 546.676C141.268 547.578 141.099 548.366 140.762 549.04C140.425 549.714 139.951 550.239 139.341 550.614C138.732 550.989 138.018 551.176 137.199 551.176ZM137.205 549.75C137.735 549.75 138.175 549.61 138.523 549.33C138.872 549.049 139.129 548.676 139.296 548.21C139.466 547.744 139.552 547.231 139.552 546.67C139.552 546.114 139.466 545.602 139.296 545.136C139.129 544.667 138.872 544.29 138.523 544.006C138.175 543.722 137.735 543.58 137.205 543.58C136.671 543.58 136.228 543.722 135.876 544.006C135.527 544.29 135.268 544.667 135.097 545.136C134.93 545.602 134.847 546.114 134.847 546.67C134.847 547.231 134.93 547.744 135.097 548.21C135.268 548.676 135.527 549.049 135.876 549.33C136.228 549.61 136.671 549.75 137.205 549.75ZM145.023 545.818V551H143.324V542.273H144.955V543.693H145.063C145.263 543.231 145.578 542.86 146.006 542.58C146.438 542.299 146.981 542.159 147.636 542.159C148.231 542.159 148.752 542.284 149.199 542.534C149.646 542.78 149.992 543.148 150.239 543.636C150.485 544.125 150.608 544.729 150.608 545.449V551H148.909V545.653C148.909 545.021 148.744 544.527 148.415 544.17C148.085 543.811 147.633 543.631 147.057 543.631C146.663 543.631 146.313 543.716 146.006 543.886C145.703 544.057 145.462 544.307 145.284 544.636C145.11 544.962 145.023 545.356 145.023 545.818ZM156.706 554.455C156.012 554.455 155.416 554.364 154.916 554.182C154.42 554 154.014 553.759 153.7 553.46C153.385 553.161 153.151 552.833 152.995 552.477L154.456 551.875C154.558 552.042 154.694 552.218 154.865 552.403C155.039 552.593 155.274 552.754 155.569 552.886C155.868 553.019 156.253 553.085 156.723 553.085C157.366 553.085 157.899 552.928 158.319 552.614C158.74 552.303 158.95 551.807 158.95 551.125V549.409H158.842C158.74 549.595 158.592 549.801 158.399 550.028C158.209 550.256 157.948 550.453 157.615 550.619C157.281 550.786 156.848 550.869 156.313 550.869C155.624 550.869 155.003 550.708 154.45 550.386C153.901 550.061 153.465 549.581 153.143 548.949C152.825 548.312 152.666 547.53 152.666 546.602C152.666 545.674 152.823 544.879 153.137 544.216C153.456 543.553 153.891 543.045 154.444 542.693C154.997 542.337 155.624 542.159 156.325 542.159C156.866 542.159 157.304 542.25 157.637 542.432C157.971 542.61 158.23 542.818 158.416 543.057C158.605 543.295 158.751 543.506 158.853 543.688H158.978V542.273H160.643V551.193C160.643 551.943 160.469 552.559 160.12 553.04C159.772 553.521 159.3 553.877 158.706 554.108C158.115 554.339 157.448 554.455 156.706 554.455ZM156.688 549.46C157.177 549.46 157.59 549.347 157.927 549.119C158.268 548.888 158.526 548.559 158.7 548.131C158.878 547.699 158.967 547.182 158.967 546.58C158.967 545.992 158.88 545.475 158.706 545.028C158.531 544.581 158.276 544.233 157.938 543.983C157.601 543.729 157.185 543.602 156.688 543.602C156.177 543.602 155.751 543.735 155.41 544C155.069 544.261 154.812 544.617 154.637 545.068C154.467 545.519 154.382 546.023 154.382 546.58C154.382 547.152 154.469 547.653 154.643 548.085C154.817 548.517 155.075 548.854 155.416 549.097C155.76 549.339 156.185 549.46 156.688 549.46ZM166.843 551.176C165.983 551.176 165.242 550.992 164.621 550.625C164.004 550.254 163.526 549.733 163.189 549.062C162.856 548.388 162.689 547.598 162.689 546.693C162.689 545.799 162.856 545.011 163.189 544.33C163.526 543.648 163.996 543.116 164.598 542.733C165.205 542.35 165.913 542.159 166.723 542.159C167.216 542.159 167.693 542.241 168.155 542.403C168.617 542.566 169.032 542.822 169.4 543.17C169.767 543.519 170.057 543.972 170.269 544.528C170.481 545.081 170.587 545.754 170.587 546.545V547.148H163.65V545.875H168.922C168.922 545.428 168.831 545.032 168.65 544.688C168.468 544.339 168.212 544.064 167.883 543.864C167.557 543.663 167.174 543.562 166.735 543.562C166.258 543.562 165.841 543.68 165.485 543.915C165.133 544.146 164.86 544.449 164.667 544.824C164.477 545.195 164.383 545.598 164.383 546.034V547.028C164.383 547.612 164.485 548.108 164.689 548.517C164.898 548.926 165.187 549.239 165.559 549.455C165.93 549.667 166.364 549.773 166.86 549.773C167.182 549.773 167.475 549.727 167.741 549.636C168.006 549.542 168.235 549.402 168.428 549.216C168.621 549.03 168.769 548.801 168.871 548.528L170.479 548.818C170.35 549.292 170.119 549.706 169.786 550.062C169.456 550.415 169.042 550.689 168.542 550.886C168.045 551.08 167.479 551.176 166.843 551.176ZM179.172 544.403L177.632 544.676C177.568 544.479 177.465 544.292 177.325 544.114C177.189 543.936 177.003 543.79 176.768 543.676C176.534 543.562 176.24 543.506 175.888 543.506C175.407 543.506 175.005 543.614 174.683 543.83C174.361 544.042 174.2 544.316 174.2 544.653C174.2 544.945 174.308 545.18 174.524 545.358C174.74 545.536 175.088 545.682 175.57 545.795L176.956 546.114C177.759 546.299 178.357 546.585 178.751 546.972C179.145 547.358 179.342 547.86 179.342 548.477C179.342 549 179.191 549.466 178.888 549.875C178.588 550.28 178.17 550.598 177.632 550.83C177.098 551.061 176.479 551.176 175.774 551.176C174.797 551.176 173.999 550.968 173.382 550.551C172.765 550.131 172.386 549.534 172.246 548.761L173.888 548.511C173.99 548.939 174.2 549.263 174.518 549.483C174.837 549.699 175.251 549.807 175.763 549.807C176.32 549.807 176.765 549.691 177.098 549.46C177.431 549.225 177.598 548.939 177.598 548.602C177.598 548.33 177.496 548.1 177.291 547.915C177.09 547.729 176.782 547.589 176.365 547.494L174.888 547.17C174.073 546.985 173.471 546.689 173.081 546.284C172.695 545.879 172.501 545.366 172.501 544.744C172.501 544.229 172.645 543.778 172.933 543.392C173.221 543.006 173.619 542.705 174.126 542.489C174.634 542.269 175.215 542.159 175.871 542.159C176.814 542.159 177.556 542.364 178.098 542.773C178.64 543.178 178.998 543.722 179.172 544.403ZM185.444 542.273V543.636H180.677V542.273H185.444ZM181.955 540.182H183.654V548.438C183.654 548.767 183.703 549.015 183.802 549.182C183.9 549.345 184.027 549.456 184.183 549.517C184.342 549.574 184.514 549.602 184.7 549.602C184.836 549.602 184.955 549.593 185.058 549.574C185.16 549.555 185.239 549.54 185.296 549.528L185.603 550.932C185.505 550.97 185.364 551.008 185.183 551.045C185.001 551.087 184.774 551.11 184.501 551.114C184.054 551.121 183.637 551.042 183.251 550.875C182.864 550.708 182.552 550.451 182.313 550.102C182.075 549.754 181.955 549.316 181.955 548.79V540.182ZM187.483 551V542.273H189.182V551H187.483ZM188.341 540.926C188.046 540.926 187.792 540.828 187.58 540.631C187.372 540.43 187.267 540.191 187.267 539.915C187.267 539.634 187.372 539.396 187.58 539.199C187.792 538.998 188.046 538.898 188.341 538.898C188.637 538.898 188.889 538.998 189.097 539.199C189.309 539.396 189.415 539.634 189.415 539.915C189.415 540.191 189.309 540.43 189.097 540.631C188.889 540.828 188.637 540.926 188.341 540.926ZM195.304 551.176C194.486 551.176 193.772 550.989 193.162 550.614C192.552 550.239 192.078 549.714 191.741 549.04C191.404 548.366 191.236 547.578 191.236 546.676C191.236 545.771 191.404 544.979 191.741 544.301C192.078 543.623 192.552 543.097 193.162 542.722C193.772 542.347 194.486 542.159 195.304 542.159C196.122 542.159 196.836 542.347 197.446 542.722C198.056 543.097 198.529 543.623 198.866 544.301C199.203 544.979 199.372 545.771 199.372 546.676C199.372 547.578 199.203 548.366 198.866 549.04C198.529 549.714 198.056 550.239 197.446 550.614C196.836 550.989 196.122 551.176 195.304 551.176ZM195.309 549.75C195.84 549.75 196.279 549.61 196.628 549.33C196.976 549.049 197.234 548.676 197.4 548.21C197.571 547.744 197.656 547.231 197.656 546.67C197.656 546.114 197.571 545.602 197.4 545.136C197.234 544.667 196.976 544.29 196.628 544.006C196.279 543.722 195.84 543.58 195.309 543.58C194.775 543.58 194.332 543.722 193.98 544.006C193.631 544.29 193.372 544.667 193.202 545.136C193.035 545.602 192.952 546.114 192.952 546.67C192.952 547.231 193.035 547.744 193.202 548.21C193.372 548.676 193.631 549.049 193.98 549.33C194.332 549.61 194.775 549.75 195.309 549.75ZM203.127 545.818V551H201.428V542.273H203.059V543.693H203.167C203.368 543.231 203.682 542.86 204.11 542.58C204.542 542.299 205.085 542.159 205.741 542.159C206.335 542.159 206.856 542.284 207.303 542.534C207.75 542.78 208.097 543.148 208.343 543.636C208.589 544.125 208.712 544.729 208.712 545.449V551H207.014V545.653C207.014 545.021 206.849 544.527 206.519 544.17C206.19 543.811 205.737 543.631 205.161 543.631C204.767 543.631 204.417 543.716 204.11 543.886C203.807 544.057 203.567 544.307 203.389 544.636C203.214 544.962 203.127 545.356 203.127 545.818Z" fill="black"/>
<path d="M45.2955 67.7273H50.4545L57.3636 84.5909H57.6364L64.5455 67.7273H69.7045V91H65.6591V75.0114H65.4432L59.0114 90.9318H55.9886L49.5568 74.9773H49.3409V91H45.2955V67.7273ZM77.6041 91H73.1041L81.2973 67.7273H86.5018L94.7064 91H90.2064L83.9905 72.5H83.8086L77.6041 91ZM77.7518 81.875H90.0245V85.2614H77.7518V81.875ZM98.0917 91V67.7273H106.819C108.607 67.7273 110.107 68.0379 111.319 68.6591C112.539 69.2803 113.459 70.1515 114.08 71.2727C114.709 72.3864 115.024 73.6856 115.024 75.1705C115.024 76.6629 114.705 77.9583 114.069 79.0568C113.44 80.1477 112.512 80.9924 111.285 81.5909C110.058 82.1818 108.55 82.4773 106.762 82.4773H100.546V78.9773H106.194C107.239 78.9773 108.095 78.8333 108.762 78.5455C109.429 78.25 109.921 77.822 110.239 77.2614C110.565 76.6932 110.728 75.9962 110.728 75.1705C110.728 74.3447 110.565 73.6402 110.239 73.0568C109.914 72.4659 109.417 72.0189 108.751 71.7159C108.084 71.4053 107.224 71.25 106.171 71.25H102.308V91H98.0917ZM110.114 80.4545L115.876 91H111.171L105.512 80.4545H110.114ZM123.44 67.7273V91H119.224V67.7273H123.44ZM127.303 71.2614V67.7273H145.871V71.2614H138.678V91H134.496V71.2614H127.303ZM153.986 67.7273V91H149.77V67.7273H153.986ZM158.872 67.7273H164.031L170.94 84.5909H171.213L178.122 67.7273H183.281V91H179.235V75.0114H179.019L172.588 90.9318H169.565L163.133 74.9773H162.917V91H158.872V67.7273ZM188.192 91V67.7273H203.328V71.2614H192.408V77.5795H202.544V81.1136H192.408V87.4659H203.419V91H188.192ZM216.207 91V67.7273H220.423V87.4659H230.673V91H216.207ZM254.541 79.3636C254.541 81.8712 254.071 84.0189 253.132 85.8068C252.2 87.5871 250.927 88.9508 249.314 89.8977C247.708 90.8447 245.886 91.3182 243.848 91.3182C241.81 91.3182 239.984 90.8447 238.37 89.8977C236.764 88.9432 235.492 87.5758 234.552 85.7955C233.62 84.0076 233.155 81.8636 233.155 79.3636C233.155 76.8561 233.62 74.7121 234.552 72.9318C235.492 71.1439 236.764 69.7765 238.37 68.8295C239.984 67.8826 241.81 67.4091 243.848 67.4091C245.886 67.4091 247.708 67.8826 249.314 68.8295C250.927 69.7765 252.2 71.1439 253.132 72.9318C254.071 74.7121 254.541 76.8561 254.541 79.3636ZM250.302 79.3636C250.302 77.5985 250.026 76.1098 249.473 74.8977C248.927 73.678 248.17 72.7576 247.2 72.1364C246.23 71.5076 245.113 71.1932 243.848 71.1932C242.583 71.1932 241.465 71.5076 240.495 72.1364C239.526 72.7576 238.764 73.678 238.211 74.8977C237.666 76.1098 237.393 77.5985 237.393 79.3636C237.393 81.1288 237.666 82.6212 238.211 83.8409C238.764 85.053 239.526 85.9735 240.495 86.6023C241.465 87.2235 242.583 87.5341 243.848 87.5341C245.113 87.5341 246.23 87.2235 247.2 86.6023C248.17 85.9735 248.927 85.053 249.473 83.8409C250.026 82.6212 250.302 81.1288 250.302 79.3636ZM274.438 75.1591C274.248 74.5455 273.987 73.9962 273.654 73.5114C273.328 73.0189 272.934 72.5985 272.472 72.25C272.017 71.9015 271.494 71.6402 270.904 71.4659C270.313 71.2841 269.669 71.1932 268.972 71.1932C267.722 71.1932 266.608 71.5076 265.631 72.1364C264.654 72.7652 263.885 73.6894 263.324 74.9091C262.771 76.1212 262.494 77.5985 262.494 79.3409C262.494 81.0985 262.771 82.5871 263.324 83.8068C263.877 85.0265 264.646 85.9545 265.631 86.5909C266.616 87.2197 267.76 87.5341 269.063 87.5341C270.244 87.5341 271.267 87.3068 272.131 86.8523C273.002 86.3977 273.672 85.7538 274.142 84.9205C274.612 84.0795 274.847 83.0947 274.847 81.9659L275.801 82.1136H269.483V78.8182H278.926V81.6136C278.926 83.6061 278.502 85.3295 277.654 86.7841C276.805 88.2386 275.638 89.3598 274.154 90.1477C272.669 90.928 270.964 91.3182 269.04 91.3182C266.896 91.3182 265.013 90.8371 263.392 89.875C261.779 88.9053 260.517 87.5303 259.608 85.75C258.707 83.9621 258.256 81.8409 258.256 79.3864C258.256 77.5076 258.521 75.8295 259.051 74.3523C259.589 72.875 260.339 71.6212 261.301 70.5909C262.263 69.553 263.392 68.7652 264.688 68.2273C265.983 67.6818 267.392 67.4091 268.915 67.4091C270.203 67.4091 271.404 67.5985 272.517 67.9773C273.631 68.3485 274.619 68.8788 275.483 69.5682C276.354 70.2576 277.07 71.0758 277.631 72.0227C278.191 72.9697 278.559 74.0152 278.733 75.1591H274.438ZM287.539 67.7273V91H283.323V67.7273H287.539ZM305.072 74.125C304.966 73.1326 304.519 72.3598 303.731 71.8068C302.951 71.2538 301.936 70.9773 300.686 70.9773C299.807 70.9773 299.053 71.1098 298.424 71.375C297.795 71.6402 297.314 72 296.981 72.4545C296.648 72.9091 296.477 73.428 296.47 74.0114C296.47 74.4962 296.58 74.9167 296.799 75.2727C297.026 75.6288 297.333 75.9318 297.72 76.1818C298.106 76.4242 298.534 76.6288 299.004 76.7955C299.473 76.9621 299.947 77.1023 300.424 77.2159L302.606 77.7614C303.485 77.9659 304.33 78.2424 305.14 78.5909C305.958 78.9394 306.689 79.3788 307.333 79.9091C307.985 80.4394 308.5 81.0795 308.879 81.8295C309.258 82.5795 309.447 83.4583 309.447 84.4659C309.447 85.8295 309.098 87.0303 308.401 88.0682C307.705 89.0985 306.697 89.9053 305.379 90.4886C304.068 91.0644 302.481 91.3523 300.617 91.3523C298.807 91.3523 297.235 91.072 295.901 90.5114C294.576 89.9508 293.538 89.1326 292.788 88.0568C292.045 86.9811 291.644 85.6705 291.583 84.125H295.731C295.792 84.9356 296.042 85.6098 296.481 86.1477C296.92 86.6856 297.492 87.0871 298.197 87.3523C298.909 87.6174 299.705 87.75 300.583 87.75C301.5 87.75 302.303 87.6136 302.992 87.3409C303.689 87.0606 304.235 86.6742 304.629 86.1818C305.023 85.6818 305.223 85.0985 305.231 84.4318C305.223 83.8258 305.045 83.3258 304.697 82.9318C304.348 82.5303 303.86 82.197 303.231 81.9318C302.61 81.6591 301.883 81.4167 301.049 81.2045L298.401 80.5227C296.485 80.0303 294.97 79.2841 293.856 78.2841C292.75 77.2765 292.197 75.9394 292.197 74.2727C292.197 72.9015 292.568 71.7008 293.311 70.6705C294.061 69.6402 295.08 68.8409 296.367 68.2727C297.655 67.697 299.114 67.4091 300.742 67.4091C302.394 67.4091 303.841 67.697 305.083 68.2727C306.333 68.8409 307.314 69.6326 308.026 70.6477C308.739 71.6553 309.106 72.8144 309.129 74.125H305.072ZM312.503 71.2614V67.7273H331.071V71.2614H323.878V91H319.696V71.2614H312.503ZM339.186 67.7273V91H334.97V67.7273H339.186ZM363.992 75.5795H359.742C359.621 74.8826 359.397 74.2652 359.072 73.7273C358.746 73.1818 358.341 72.7197 357.856 72.3409C357.371 71.9621 356.818 71.678 356.197 71.4886C355.583 71.2917 354.92 71.1932 354.208 71.1932C352.943 71.1932 351.822 71.5114 350.844 72.1477C349.867 72.7765 349.102 73.7008 348.549 74.9205C347.996 76.1326 347.719 77.6136 347.719 79.3636C347.719 81.1439 347.996 82.6439 348.549 83.8636C349.11 85.0758 349.875 85.9924 350.844 86.6136C351.822 87.2273 352.939 87.5341 354.197 87.5341C354.894 87.5341 355.545 87.4432 356.151 87.2614C356.765 87.072 357.314 86.7955 357.799 86.4318C358.291 86.0682 358.704 85.6212 359.038 85.0909C359.379 84.5606 359.613 83.9545 359.742 83.2727L363.992 83.2955C363.833 84.4015 363.488 85.4394 362.958 86.4091C362.435 87.3788 361.75 88.2348 360.901 88.9773C360.053 89.7121 359.06 90.2879 357.924 90.7045C356.788 91.1136 355.526 91.3182 354.14 91.3182C352.094 91.3182 350.269 90.8447 348.663 89.8977C347.057 88.9508 345.791 87.5833 344.867 85.7955C343.943 84.0076 343.481 81.8636 343.481 79.3636C343.481 76.8561 343.947 74.7121 344.879 72.9318C345.81 71.1439 347.079 69.7765 348.685 68.8295C350.291 67.8826 352.11 67.4091 354.14 67.4091C355.435 67.4091 356.64 67.5909 357.754 67.9545C358.867 68.3182 359.86 68.8523 360.731 69.5568C361.602 70.2538 362.318 71.1098 362.879 72.125C363.447 73.1326 363.818 74.2841 363.992 75.5795ZM380.821 74.125C380.715 73.1326 380.268 72.3598 379.48 71.8068C378.699 71.2538 377.684 70.9773 376.434 70.9773C375.556 70.9773 374.802 71.1098 374.173 71.375C373.544 71.6402 373.063 72 372.73 72.4545C372.396 72.9091 372.226 73.428 372.218 74.0114C372.218 74.4962 372.328 74.9167 372.548 75.2727C372.775 75.6288 373.082 75.9318 373.468 76.1818C373.855 76.4242 374.283 76.6288 374.753 76.7955C375.222 76.9621 375.696 77.1023 376.173 77.2159L378.355 77.7614C379.234 77.9659 380.078 78.2424 380.889 78.5909C381.707 78.9394 382.438 79.3788 383.082 79.9091C383.734 80.4394 384.249 81.0795 384.628 81.8295C385.006 82.5795 385.196 83.4583 385.196 84.4659C385.196 85.8295 384.847 87.0303 384.15 88.0682C383.453 89.0985 382.446 89.9053 381.128 90.4886C379.817 91.0644 378.23 91.3523 376.366 91.3523C374.556 91.3523 372.984 91.072 371.65 90.5114C370.324 89.9508 369.287 89.1326 368.537 88.0568C367.794 86.9811 367.393 85.6705 367.332 84.125H371.48C371.54 84.9356 371.79 85.6098 372.23 86.1477C372.669 86.6856 373.241 87.0871 373.946 87.3523C374.658 87.6174 375.453 87.75 376.332 87.75C377.249 87.75 378.052 87.6136 378.741 87.3409C379.438 87.0606 379.984 86.6742 380.378 86.1818C380.771 85.6818 380.972 85.0985 380.98 84.4318C380.972 83.8258 380.794 83.3258 380.446 82.9318C380.097 82.5303 379.609 82.197 378.98 81.9318C378.359 81.6591 377.631 81.4167 376.798 81.2045L374.15 80.5227C372.234 80.0303 370.718 79.2841 369.605 78.2841C368.499 77.2765 367.946 75.9394 367.946 74.2727C367.946 72.9015 368.317 71.7008 369.059 70.6705C369.809 69.6402 370.828 68.8409 372.116 68.2727C373.404 67.697 374.862 67.4091 376.491 67.4091C378.143 67.4091 379.59 67.697 380.832 68.2727C382.082 68.8409 383.063 69.6326 383.775 70.6477C384.487 71.6553 384.855 72.8144 384.878 74.125H380.821Z" fill="white"/>
<rect x="1319.65" y="57" width="223.353" height="48" rx="24" fill="white"/>
<path d="M1343.28 88H1339.52V76.3636H1343.4C1344.54 76.3636 1345.52 76.5966 1346.34 77.0625C1347.16 77.5246 1347.78 78.1894 1348.22 79.0568C1348.66 79.9205 1348.88 80.9564 1348.88 82.1648C1348.88 83.3769 1348.66 84.4186 1348.21 85.2898C1347.78 86.161 1347.14 86.8314 1346.31 87.3011C1345.47 87.767 1344.46 88 1343.28 88ZM1341.27 86.4659H1343.19C1344.07 86.4659 1344.81 86.2992 1345.4 85.9659C1345.98 85.6288 1346.42 85.142 1346.71 84.5057C1347.01 83.8655 1347.15 83.0852 1347.15 82.1648C1347.15 81.2519 1347.01 80.4773 1346.71 79.8409C1346.43 79.2045 1346 78.7216 1345.42 78.392C1344.85 78.0625 1344.14 77.8977 1343.29 77.8977H1341.27V86.4659ZM1353.47 88.1932C1352.91 88.1932 1352.41 88.0909 1351.97 87.8864C1351.52 87.678 1351.16 87.3769 1350.9 86.983C1350.65 86.589 1350.52 86.1061 1350.52 85.5341C1350.52 85.0417 1350.61 84.6364 1350.8 84.3182C1350.99 84 1351.25 83.7481 1351.57 83.5625C1351.89 83.3769 1352.25 83.2367 1352.65 83.142C1353.05 83.0473 1353.45 82.9754 1353.86 82.9261C1354.39 82.8655 1354.81 82.8163 1355.14 82.7784C1355.46 82.7367 1355.7 82.6705 1355.85 82.5795C1355.99 82.4886 1356.07 82.3409 1356.07 82.1364V82.0966C1356.07 81.6004 1355.93 81.2159 1355.65 80.9432C1355.37 80.6705 1354.96 80.5341 1354.41 80.5341C1353.84 80.5341 1353.39 80.661 1353.06 80.9148C1352.73 81.1648 1352.51 81.4432 1352.38 81.75L1350.78 81.3864C1350.97 80.8561 1351.25 80.428 1351.61 80.1023C1351.98 79.7727 1352.4 79.5341 1352.88 79.3864C1353.36 79.2348 1353.86 79.1591 1354.39 79.1591C1354.73 79.1591 1355.1 79.2008 1355.49 79.2841C1355.89 79.3636 1356.26 79.5114 1356.6 79.7273C1356.94 79.9432 1357.22 80.2519 1357.44 80.6534C1357.66 81.0511 1357.77 81.5682 1357.77 82.2045V88H1356.11V86.8068H1356.05C1355.94 87.0265 1355.77 87.2424 1355.55 87.4545C1355.33 87.6667 1355.05 87.8428 1354.7 87.983C1354.36 88.1231 1353.95 88.1932 1353.47 88.1932ZM1353.84 86.8295C1354.31 86.8295 1354.71 86.7367 1355.04 86.5511C1355.38 86.3655 1355.63 86.1231 1355.81 85.8239C1355.98 85.5208 1356.07 85.197 1356.07 84.8523V83.7273C1356.01 83.7879 1355.9 83.8447 1355.72 83.8977C1355.55 83.947 1355.36 83.9905 1355.14 84.0284C1354.92 84.0625 1354.7 84.0947 1354.49 84.125C1354.29 84.1515 1354.11 84.1742 1353.97 84.1932C1353.64 84.2348 1353.34 84.3049 1353.07 84.4034C1352.8 84.5019 1352.58 84.6439 1352.42 84.8295C1352.26 85.0114 1352.18 85.2538 1352.18 85.5568C1352.18 85.9773 1352.34 86.2955 1352.65 86.5114C1352.96 86.7235 1353.35 86.8295 1353.84 86.8295ZM1364.11 79.2727V80.6364H1359.34V79.2727H1364.11ZM1360.62 77.1818H1362.32V85.4375C1362.32 85.767 1362.37 86.0152 1362.47 86.1818C1362.57 86.3447 1362.69 86.4564 1362.85 86.517C1363.01 86.5739 1363.18 86.6023 1363.37 86.6023C1363.5 86.6023 1363.62 86.5928 1363.72 86.5739C1363.83 86.5549 1363.9 86.5398 1363.96 86.5284L1364.27 87.9318C1364.17 87.9697 1364.03 88.0076 1363.85 88.0455C1363.67 88.0871 1363.44 88.1098 1363.17 88.1136C1362.72 88.1212 1362.3 88.0417 1361.92 87.875C1361.53 87.7083 1361.22 87.4508 1360.98 87.1023C1360.74 86.7538 1360.62 86.3163 1360.62 85.7898V77.1818ZM1369.66 88.1761C1368.8 88.1761 1368.06 87.9924 1367.43 87.625C1366.82 87.2538 1366.34 86.733 1366 86.0625C1365.67 85.3883 1365.5 84.5985 1365.5 83.6932C1365.5 82.7992 1365.67 82.0114 1366 81.3295C1366.34 80.6477 1366.81 80.1155 1367.41 79.733C1368.02 79.3504 1368.73 79.1591 1369.54 79.1591C1370.03 79.1591 1370.51 79.2405 1370.97 79.4034C1371.43 79.5663 1371.85 79.822 1372.21 80.1705C1372.58 80.5189 1372.87 80.9716 1373.08 81.5284C1373.29 82.0814 1373.4 82.7538 1373.4 83.5455V84.1477H1366.46V82.875H1371.74C1371.74 82.428 1371.64 82.0322 1371.46 81.6875C1371.28 81.339 1371.03 81.0644 1370.7 80.8636C1370.37 80.6629 1369.99 80.5625 1369.55 80.5625C1369.07 80.5625 1368.65 80.6799 1368.3 80.9148C1367.95 81.1458 1367.67 81.4489 1367.48 81.8239C1367.29 82.1951 1367.2 82.5985 1367.2 83.0341V84.0284C1367.2 84.6117 1367.3 85.108 1367.5 85.517C1367.71 85.9261 1368 86.2386 1368.37 86.4545C1368.74 86.6667 1369.18 86.7727 1369.67 86.7727C1370 86.7727 1370.29 86.7273 1370.55 86.6364C1370.82 86.5417 1371.05 86.4015 1371.24 86.2159C1371.43 86.0303 1371.58 85.8011 1371.68 85.5284L1373.29 85.8182C1373.16 86.2917 1372.93 86.7064 1372.6 87.0625C1372.27 87.4148 1371.86 87.6894 1371.36 87.8864C1370.86 88.0795 1370.29 88.1761 1369.66 88.1761Z" fill="#060606"/>
<rect x="1083" y="57" width="223.353" height="48" rx="24" fill="white"/>
<path d="M1102.87 88V76.3636H1107.02C1107.92 76.3636 1108.66 76.5189 1109.26 76.8295C1109.86 77.1402 1110.3 77.5701 1110.6 78.1193C1110.9 78.6648 1111.04 79.2955 1111.04 80.0114C1111.04 80.7235 1110.89 81.3504 1110.59 81.892C1110.3 82.4299 1109.85 82.8485 1109.25 83.1477C1108.66 83.447 1107.91 83.5966 1107.01 83.5966H1103.87V82.0852H1106.85C1107.42 82.0852 1107.88 82.0038 1108.24 81.8409C1108.6 81.678 1108.86 81.4413 1109.03 81.1307C1109.19 80.8201 1109.28 80.447 1109.28 80.0114C1109.28 79.572 1109.19 79.1913 1109.02 78.8693C1108.85 78.5473 1108.59 78.3011 1108.23 78.1307C1107.87 77.9564 1107.41 77.8693 1106.83 77.8693H1104.62V88H1102.87ZM1108.61 82.75L1111.49 88H1109.49L1106.67 82.75H1108.61ZM1116.7 88.1761C1115.84 88.1761 1115.1 87.9924 1114.47 87.625C1113.86 87.2538 1113.38 86.733 1113.04 86.0625C1112.71 85.3883 1112.54 84.5985 1112.54 83.6932C1112.54 82.7992 1112.71 82.0114 1113.04 81.3295C1113.38 80.6477 1113.85 80.1155 1114.45 79.733C1115.06 79.3504 1115.77 79.1591 1116.58 79.1591C1117.07 79.1591 1117.55 79.2405 1118.01 79.4034C1118.47 79.5663 1118.88 79.822 1119.25 80.1705C1119.62 80.5189 1119.91 80.9716 1120.12 81.5284C1120.33 82.0814 1120.44 82.7538 1120.44 83.5455V84.1477H1113.5V82.875H1118.77C1118.77 82.428 1118.68 82.0322 1118.5 81.6875C1118.32 81.339 1118.06 81.0644 1117.74 80.8636C1117.41 80.6629 1117.03 80.5625 1116.59 80.5625C1116.11 80.5625 1115.69 80.6799 1115.34 80.9148C1114.99 81.1458 1114.71 81.4489 1114.52 81.8239C1114.33 82.1951 1114.24 82.5985 1114.24 83.0341V84.0284C1114.24 84.6117 1114.34 85.108 1114.54 85.517C1114.75 85.9261 1115.04 86.2386 1115.41 86.4545C1115.78 86.6667 1116.22 86.7727 1116.71 86.7727C1117.03 86.7727 1117.33 86.7273 1117.59 86.6364C1117.86 86.5417 1118.09 86.4015 1118.28 86.2159C1118.47 86.0303 1118.62 85.8011 1118.72 85.5284L1120.33 85.8182C1120.2 86.2917 1119.97 86.7064 1119.64 87.0625C1119.31 87.4148 1118.89 87.6894 1118.39 87.8864C1117.9 88.0795 1117.33 88.1761 1116.7 88.1761ZM1125.98 91.4545C1125.29 91.4545 1124.69 91.3636 1124.19 91.1818C1123.7 91 1123.29 90.7595 1122.98 90.4602C1122.66 90.161 1122.43 89.8333 1122.27 89.4773L1123.73 88.875C1123.84 89.0417 1123.97 89.2178 1124.14 89.4034C1124.32 89.5928 1124.55 89.7538 1124.85 89.8864C1125.15 90.0189 1125.53 90.0852 1126 90.0852C1126.64 90.0852 1127.18 89.928 1127.6 89.6136C1128.02 89.303 1128.23 88.8068 1128.23 88.125V86.4091H1128.12C1128.02 86.5947 1127.87 86.8011 1127.68 87.0284C1127.49 87.2557 1127.23 87.4527 1126.89 87.6193C1126.56 87.786 1126.13 87.8693 1125.59 87.8693C1124.9 87.8693 1124.28 87.7083 1123.73 87.3864C1123.18 87.0606 1122.74 86.5814 1122.42 85.9489C1122.1 85.3125 1121.94 84.5303 1121.94 83.6023C1121.94 82.6742 1122.1 81.8788 1122.42 81.2159C1122.73 80.553 1123.17 80.0455 1123.72 79.6932C1124.28 79.3371 1124.9 79.1591 1125.6 79.1591C1126.14 79.1591 1126.58 79.25 1126.92 79.4318C1127.25 79.6098 1127.51 79.8182 1127.69 80.0568C1127.88 80.2955 1128.03 80.5057 1128.13 80.6875H1128.26V79.2727H1129.92V88.1932C1129.92 88.9432 1129.75 89.5587 1129.4 90.0398C1129.05 90.5208 1128.58 90.8769 1127.98 91.108C1127.39 91.339 1126.73 91.4545 1125.98 91.4545ZM1125.97 86.4602C1126.46 86.4602 1126.87 86.3466 1127.21 86.1193C1127.55 85.8883 1127.8 85.5587 1127.98 85.1307C1128.16 84.6989 1128.25 84.1818 1128.25 83.5795C1128.25 82.9924 1128.16 82.4754 1127.98 82.0284C1127.81 81.5814 1127.55 81.233 1127.22 80.983C1126.88 80.7292 1126.46 80.6023 1125.97 80.6023C1125.46 80.6023 1125.03 80.7348 1124.69 81C1124.35 81.2614 1124.09 81.6174 1123.92 82.0682C1123.75 82.5189 1123.66 83.0227 1123.66 83.5795C1123.66 84.1515 1123.75 84.6534 1123.92 85.0852C1124.1 85.517 1124.35 85.8542 1124.69 86.0966C1125.04 86.339 1125.46 86.4602 1125.97 86.4602ZM1132.2 88V79.2727H1133.9V88H1132.2ZM1133.06 77.9261C1132.76 77.9261 1132.51 77.8277 1132.3 77.6307C1132.09 77.4299 1131.98 77.1913 1131.98 76.9148C1131.98 76.6345 1132.09 76.3958 1132.3 76.1989C1132.51 75.9981 1132.76 75.8977 1133.06 75.8977C1133.35 75.8977 1133.6 75.9981 1133.81 76.1989C1134.03 76.3958 1134.13 76.6345 1134.13 76.9148C1134.13 77.1913 1134.03 77.4299 1133.81 77.6307C1133.6 77.8277 1133.35 77.9261 1133.06 77.9261ZM1139.86 88.1761C1139.04 88.1761 1138.33 87.9886 1137.72 87.6136C1137.11 87.2386 1136.63 86.714 1136.3 86.0398C1135.96 85.3655 1135.79 84.5777 1135.79 83.6761C1135.79 82.7708 1135.96 81.9792 1136.3 81.3011C1136.63 80.6231 1137.11 80.0966 1137.72 79.7216C1138.33 79.3466 1139.04 79.1591 1139.86 79.1591C1140.68 79.1591 1141.39 79.3466 1142 79.7216C1142.61 80.0966 1143.09 80.6231 1143.42 81.3011C1143.76 81.9792 1143.93 82.7708 1143.93 83.6761C1143.93 84.5777 1143.76 85.3655 1143.42 86.0398C1143.09 86.714 1142.61 87.2386 1142 87.6136C1141.39 87.9886 1140.68 88.1761 1139.86 88.1761ZM1139.87 86.75C1140.4 86.75 1140.84 86.6098 1141.18 86.3295C1141.53 86.0492 1141.79 85.6761 1141.96 85.2102C1142.13 84.7443 1142.21 84.2311 1142.21 83.6705C1142.21 83.1136 1142.13 82.6023 1141.96 82.1364C1141.79 81.6667 1141.53 81.2898 1141.18 81.0057C1140.84 80.7216 1140.4 80.5795 1139.87 80.5795C1139.33 80.5795 1138.89 80.7216 1138.54 81.0057C1138.19 81.2898 1137.93 81.6667 1137.76 82.1364C1137.59 82.6023 1137.51 83.1136 1137.51 83.6705C1137.51 84.2311 1137.59 84.7443 1137.76 85.2102C1137.93 85.6761 1138.19 86.0492 1138.54 86.3295C1138.89 86.6098 1139.33 86.75 1139.87 86.75ZM1147.52 82.8182V88H1145.82V79.2727H1147.46V80.6932H1147.56C1147.76 80.2311 1148.08 79.8598 1148.51 79.5795C1148.94 79.2992 1149.48 79.1591 1150.14 79.1591C1150.73 79.1591 1151.25 79.2841 1151.7 79.5341C1152.15 79.7803 1152.49 80.1477 1152.74 80.6364C1152.99 81.125 1153.11 81.7292 1153.11 82.4489V88H1151.41V82.6534C1151.41 82.0208 1151.25 81.5265 1150.92 81.1705C1150.59 80.8106 1150.13 80.6307 1149.56 80.6307C1149.16 80.6307 1148.81 80.7159 1148.51 80.8864C1148.2 81.0568 1147.96 81.3068 1147.78 81.6364C1147.61 81.9621 1147.52 82.3561 1147.52 82.8182Z" fill="#060606"/>
<path d="M52.7045 175.875V174.364H61.7102V175.875H58.0795V186H56.3295V175.875H52.7045ZM66.1344 186.176C65.3163 186.176 64.6022 185.989 63.9924 185.614C63.3825 185.239 62.9091 184.714 62.5719 184.04C62.2348 183.366 62.0662 182.578 62.0662 181.676C62.0662 180.771 62.2348 179.979 62.5719 179.301C62.9091 178.623 63.3825 178.097 63.9924 177.722C64.6022 177.347 65.3163 177.159 66.1344 177.159C66.9526 177.159 67.6666 177.347 68.2765 177.722C68.8863 178.097 69.3598 178.623 69.6969 179.301C70.0341 179.979 70.2026 180.771 70.2026 181.676C70.2026 182.578 70.0341 183.366 69.6969 184.04C69.3598 184.714 68.8863 185.239 68.2765 185.614C67.6666 185.989 66.9526 186.176 66.1344 186.176ZM66.1401 184.75C66.6704 184.75 67.1098 184.61 67.4583 184.33C67.8068 184.049 68.0644 183.676 68.231 183.21C68.4015 182.744 68.4867 182.231 68.4867 181.67C68.4867 181.114 68.4015 180.602 68.231 180.136C68.0644 179.667 67.8068 179.29 67.4583 179.006C67.1098 178.722 66.6704 178.58 66.1401 178.58C65.606 178.58 65.1628 178.722 64.8106 179.006C64.4621 179.29 64.2026 179.667 64.0322 180.136C63.8655 180.602 63.7822 181.114 63.7822 181.67C63.7822 182.231 63.8655 182.744 64.0322 183.21C64.2026 183.676 64.4621 184.049 64.8106 184.33C65.1628 184.61 65.606 184.75 66.1401 184.75ZM72.2589 189.273V177.273H73.918V178.688H74.0601C74.1585 178.506 74.3006 178.295 74.4862 178.057C74.6718 177.818 74.9294 177.61 75.2589 177.432C75.5885 177.25 76.0241 177.159 76.5657 177.159C77.2703 177.159 77.8991 177.337 78.4521 177.693C79.0051 178.049 79.4388 178.562 79.7532 179.233C80.0714 179.903 80.2305 180.71 80.2305 181.653C80.2305 182.597 80.0733 183.405 79.7589 184.08C79.4445 184.75 79.0127 185.267 78.4635 185.631C77.9142 185.991 77.2873 186.17 76.5828 186.17C76.0525 186.17 75.6188 186.081 75.2816 185.903C74.9483 185.725 74.687 185.517 74.4976 185.278C74.3082 185.04 74.1623 184.828 74.0601 184.642H73.9578V189.273H72.2589ZM73.9237 181.636C73.9237 182.25 74.0127 182.788 74.1907 183.25C74.3688 183.712 74.6263 184.074 74.9635 184.335C75.3006 184.593 75.7135 184.722 76.2021 184.722C76.7097 184.722 77.1339 184.587 77.4748 184.318C77.8157 184.045 78.0733 183.676 78.2476 183.21C78.4256 182.744 78.5146 182.22 78.5146 181.636C78.5146 181.061 78.4275 180.544 78.2532 180.085C78.0828 179.627 77.8252 179.265 77.4805 179C77.1396 178.735 76.7135 178.602 76.2021 178.602C75.7097 178.602 75.293 178.729 74.9521 178.983C74.615 179.237 74.3593 179.591 74.1851 180.045C74.0108 180.5 73.9237 181.03 73.9237 181.636ZM91.0803 174.364V186H89.319V176.125H89.2508L86.4667 177.943V176.261L89.3701 174.364H91.0803ZM98.4392 186.193C97.5415 186.189 96.7744 185.953 96.1381 185.483C95.5017 185.013 95.015 184.33 94.6778 183.432C94.3407 182.534 94.1722 181.453 94.1722 180.188C94.1722 178.926 94.3407 177.848 94.6778 176.955C95.0187 176.061 95.5074 175.379 96.1437 174.909C96.7839 174.439 97.5491 174.205 98.4392 174.205C99.3294 174.205 100.093 174.441 100.729 174.915C101.365 175.384 101.852 176.066 102.189 176.96C102.53 177.85 102.701 178.926 102.701 180.188C102.701 181.456 102.532 182.54 102.195 183.438C101.858 184.331 101.371 185.015 100.735 185.489C100.098 185.958 99.3331 186.193 98.4392 186.193ZM98.4392 184.676C99.2271 184.676 99.8426 184.292 100.286 183.523C100.733 182.754 100.956 181.642 100.956 180.188C100.956 179.222 100.854 178.405 100.649 177.739C100.449 177.068 100.159 176.561 99.7801 176.216C99.4051 175.867 98.9581 175.693 98.4392 175.693C97.6551 175.693 97.0396 176.08 96.5926 176.852C96.1456 177.625 95.9203 178.737 95.9165 180.188C95.9165 181.157 96.0169 181.977 96.2176 182.648C96.4222 183.314 96.7119 183.82 97.0869 184.165C97.4619 184.506 97.9127 184.676 98.4392 184.676ZM109.43 186V174.364H111.129V178.688H111.231C111.329 178.506 111.471 178.295 111.657 178.057C111.843 177.818 112.1 177.61 112.43 177.432C112.759 177.25 113.195 177.159 113.736 177.159C114.441 177.159 115.07 177.337 115.623 177.693C116.176 178.049 116.61 178.562 116.924 179.233C117.242 179.903 117.401 180.71 117.401 181.653C117.401 182.597 117.244 183.405 116.93 184.08C116.615 184.75 116.183 185.267 115.634 185.631C115.085 185.991 114.458 186.17 113.754 186.17C113.223 186.17 112.79 186.081 112.452 185.903C112.119 185.725 111.858 185.517 111.668 185.278C111.479 185.04 111.333 184.828 111.231 184.642H111.089V186H109.43ZM111.094 181.636C111.094 182.25 111.183 182.788 111.361 183.25C111.54 183.712 111.797 184.074 112.134 184.335C112.471 184.593 112.884 184.722 113.373 184.722C113.88 184.722 114.305 184.587 114.646 184.318C114.986 184.045 115.244 183.676 115.418 183.21C115.596 182.744 115.685 182.22 115.685 181.636C115.685 181.061 115.598 180.544 115.424 180.085C115.254 179.627 114.996 179.265 114.651 179C114.31 178.735 113.884 178.602 113.373 178.602C112.88 178.602 112.464 178.729 112.123 178.983C111.786 179.237 111.53 179.591 111.356 180.045C111.182 180.5 111.094 181.03 111.094 181.636ZM123.145 186.176C122.327 186.176 121.613 185.989 121.003 185.614C120.393 185.239 119.92 184.714 119.583 184.04C119.245 183.366 119.077 182.578 119.077 181.676C119.077 180.771 119.245 179.979 119.583 179.301C119.92 178.623 120.393 178.097 121.003 177.722C121.613 177.347 122.327 177.159 123.145 177.159C123.963 177.159 124.677 177.347 125.287 177.722C125.897 178.097 126.37 178.623 126.708 179.301C127.045 179.979 127.213 180.771 127.213 181.676C127.213 182.578 127.045 183.366 126.708 184.04C126.37 184.714 125.897 185.239 125.287 185.614C124.677 185.989 123.963 186.176 123.145 186.176ZM123.151 184.75C123.681 184.75 124.12 184.61 124.469 184.33C124.817 184.049 125.075 183.676 125.242 183.21C125.412 182.744 125.497 182.231 125.497 181.67C125.497 181.114 125.412 180.602 125.242 180.136C125.075 179.667 124.817 179.29 124.469 179.006C124.12 178.722 123.681 178.58 123.151 178.58C122.617 178.58 122.173 178.722 121.821 179.006C121.473 179.29 121.213 179.667 121.043 180.136C120.876 180.602 120.793 181.114 120.793 181.67C120.793 182.231 120.876 182.744 121.043 183.21C121.213 183.676 121.473 184.049 121.821 184.33C122.173 184.61 122.617 184.75 123.151 184.75ZM133.343 177.273V178.636H128.576V177.273H133.343ZM129.855 175.182H131.554V183.438C131.554 183.767 131.603 184.015 131.701 184.182C131.8 184.345 131.927 184.456 132.082 184.517C132.241 184.574 132.413 184.602 132.599 184.602C132.735 184.602 132.855 184.593 132.957 184.574C133.059 184.555 133.139 184.54 133.196 184.528L133.503 185.932C133.404 185.97 133.264 186.008 133.082 186.045C132.9 186.087 132.673 186.11 132.4 186.114C131.953 186.121 131.537 186.042 131.15 185.875C130.764 185.708 130.451 185.451 130.213 185.102C129.974 184.754 129.855 184.316 129.855 183.79V175.182ZM139.457 177.273V178.636H134.689V177.273H139.457ZM135.968 175.182H137.667V183.438C137.667 183.767 137.716 184.015 137.814 184.182C137.913 184.345 138.04 184.456 138.195 184.517C138.354 184.574 138.527 184.602 138.712 184.602C138.849 184.602 138.968 184.593 139.07 184.574C139.172 184.555 139.252 184.54 139.309 184.528L139.616 185.932C139.517 185.97 139.377 186.008 139.195 186.045C139.013 186.087 138.786 186.11 138.513 186.114C138.066 186.121 137.65 186.042 137.263 185.875C136.877 185.708 136.564 185.451 136.326 185.102C136.087 184.754 135.968 184.316 135.968 183.79V175.182ZM143.382 174.364V186H141.683V174.364H143.382ZM149.589 186.176C148.729 186.176 147.989 185.992 147.367 185.625C146.75 185.254 146.273 184.733 145.936 184.062C145.602 183.388 145.436 182.598 145.436 181.693C145.436 180.799 145.602 180.011 145.936 179.33C146.273 178.648 146.742 178.116 147.345 177.733C147.951 177.35 148.659 177.159 149.47 177.159C149.962 177.159 150.439 177.241 150.902 177.403C151.364 177.566 151.778 177.822 152.146 178.17C152.513 178.519 152.803 178.972 153.015 179.528C153.227 180.081 153.333 180.754 153.333 181.545V182.148H146.396V180.875H151.669C151.669 180.428 151.578 180.032 151.396 179.688C151.214 179.339 150.958 179.064 150.629 178.864C150.303 178.663 149.92 178.562 149.481 178.562C149.004 178.562 148.587 178.68 148.231 178.915C147.879 179.146 147.606 179.449 147.413 179.824C147.224 180.195 147.129 180.598 147.129 181.034V182.028C147.129 182.612 147.231 183.108 147.436 183.517C147.644 183.926 147.934 184.239 148.305 184.455C148.676 184.667 149.11 184.773 149.606 184.773C149.928 184.773 150.222 184.727 150.487 184.636C150.752 184.542 150.981 184.402 151.174 184.216C151.367 184.03 151.515 183.801 151.617 183.528L153.225 183.818C153.097 184.292 152.866 184.706 152.532 185.062C152.203 185.415 151.788 185.689 151.288 185.886C150.792 186.08 150.225 186.176 149.589 186.176ZM157.077 180.818V186H155.378V177.273H157.009V178.693H157.117C157.318 178.231 157.632 177.86 158.06 177.58C158.492 177.299 159.035 177.159 159.691 177.159C160.285 177.159 160.806 177.284 161.253 177.534C161.7 177.78 162.047 178.148 162.293 178.636C162.539 179.125 162.662 179.729 162.662 180.449V186H160.964V180.653C160.964 180.021 160.799 179.527 160.469 179.17C160.14 178.811 159.687 178.631 159.111 178.631C158.717 178.631 158.367 178.716 158.06 178.886C157.757 179.057 157.517 179.307 157.339 179.636C157.164 179.962 157.077 180.356 157.077 180.818ZM168.862 186.176C168.002 186.176 167.262 185.992 166.641 185.625C166.023 185.254 165.546 184.733 165.209 184.062C164.875 183.388 164.709 182.598 164.709 181.693C164.709 180.799 164.875 180.011 165.209 179.33C165.546 178.648 166.016 178.116 166.618 177.733C167.224 177.35 167.932 177.159 168.743 177.159C169.235 177.159 169.713 177.241 170.175 177.403C170.637 177.566 171.052 177.822 171.419 178.17C171.786 178.519 172.076 178.972 172.288 179.528C172.5 180.081 172.606 180.754 172.606 181.545V182.148H165.669V180.875H170.942C170.942 180.428 170.851 180.032 170.669 179.688C170.487 179.339 170.231 179.064 169.902 178.864C169.576 178.663 169.194 178.562 168.754 178.562C168.277 178.562 167.86 178.68 167.504 178.915C167.152 179.146 166.879 179.449 166.686 179.824C166.497 180.195 166.402 180.598 166.402 181.034V182.028C166.402 182.612 166.504 183.108 166.709 183.517C166.917 183.926 167.207 184.239 167.578 184.455C167.949 184.667 168.383 184.773 168.879 184.773C169.201 184.773 169.495 184.727 169.76 184.636C170.025 184.542 170.254 184.402 170.447 184.216C170.641 184.03 170.788 183.801 170.891 183.528L172.499 183.818C172.37 184.292 172.139 184.706 171.805 185.062C171.476 185.415 171.061 185.689 170.561 185.886C170.065 186.08 169.499 186.176 168.862 186.176ZM178.328 186.176C177.483 186.176 176.756 185.985 176.146 185.602C175.54 185.216 175.074 184.684 174.748 184.006C174.422 183.328 174.259 182.551 174.259 181.676C174.259 180.79 174.426 180.008 174.759 179.33C175.093 178.648 175.562 178.116 176.168 177.733C176.775 177.35 177.489 177.159 178.311 177.159C178.973 177.159 179.564 177.282 180.083 177.528C180.602 177.771 181.021 178.112 181.339 178.551C181.661 178.991 181.852 179.504 181.913 180.091H180.259C180.168 179.682 179.96 179.33 179.634 179.034C179.312 178.739 178.881 178.591 178.339 178.591C177.865 178.591 177.451 178.716 177.095 178.966C176.742 179.212 176.468 179.564 176.271 180.023C176.074 180.477 175.975 181.015 175.975 181.636C175.975 182.273 176.072 182.822 176.265 183.284C176.458 183.746 176.731 184.104 177.083 184.358C177.439 184.612 177.858 184.739 178.339 184.739C178.661 184.739 178.953 184.68 179.214 184.562C179.479 184.441 179.701 184.269 179.879 184.045C180.061 183.822 180.187 183.553 180.259 183.239H181.913C181.852 183.803 181.668 184.307 181.362 184.75C181.055 185.193 180.644 185.542 180.129 185.795C179.617 186.049 179.017 186.176 178.328 186.176ZM185.452 183.04L185.441 180.966H185.736L189.213 177.273H191.247L187.282 181.477H187.015L185.452 183.04ZM183.89 186V174.364H185.588V186H183.89ZM189.401 186L186.276 181.852L187.446 180.665L191.486 186H189.401ZM199.496 179.403L197.956 179.676C197.891 179.479 197.789 179.292 197.649 179.114C197.513 178.936 197.327 178.79 197.092 178.676C196.857 178.562 196.564 178.506 196.211 178.506C195.73 178.506 195.329 178.614 195.007 178.83C194.685 179.042 194.524 179.316 194.524 179.653C194.524 179.945 194.632 180.18 194.848 180.358C195.064 180.536 195.412 180.682 195.893 180.795L197.28 181.114C198.083 181.299 198.681 181.585 199.075 181.972C199.469 182.358 199.666 182.86 199.666 183.477C199.666 184 199.515 184.466 199.211 184.875C198.912 185.28 198.494 185.598 197.956 185.83C197.422 186.061 196.802 186.176 196.098 186.176C195.121 186.176 194.323 185.968 193.706 185.551C193.088 185.131 192.71 184.534 192.569 183.761L194.211 183.511C194.314 183.939 194.524 184.263 194.842 184.483C195.16 184.699 195.575 184.807 196.086 184.807C196.643 184.807 197.088 184.691 197.422 184.46C197.755 184.225 197.922 183.939 197.922 183.602C197.922 183.33 197.819 183.1 197.615 182.915C197.414 182.729 197.105 182.589 196.689 182.494L195.211 182.17C194.397 181.985 193.795 181.689 193.405 181.284C193.018 180.879 192.825 180.366 192.825 179.744C192.825 179.229 192.969 178.778 193.257 178.392C193.545 178.006 193.943 177.705 194.45 177.489C194.958 177.269 195.539 177.159 196.194 177.159C197.138 177.159 197.88 177.364 198.422 177.773C198.963 178.178 199.321 178.722 199.496 179.403ZM206.225 186V174.364H207.924V178.688H208.026C208.124 178.506 208.266 178.295 208.452 178.057C208.638 177.818 208.895 177.61 209.225 177.432C209.554 177.25 209.99 177.159 210.531 177.159C211.236 177.159 211.865 177.337 212.418 177.693C212.971 178.049 213.405 178.562 213.719 179.233C214.037 179.903 214.196 180.71 214.196 181.653C214.196 182.597 214.039 183.405 213.725 184.08C213.41 184.75 212.978 185.267 212.429 185.631C211.88 185.991 211.253 186.17 210.549 186.17C210.018 186.17 209.585 186.081 209.247 185.903C208.914 185.725 208.653 185.517 208.463 185.278C208.274 185.04 208.128 184.828 208.026 184.642H207.884V186H206.225ZM207.889 181.636C207.889 182.25 207.978 182.788 208.156 183.25C208.335 183.712 208.592 184.074 208.929 184.335C209.266 184.593 209.679 184.722 210.168 184.722C210.675 184.722 211.1 184.587 211.441 184.318C211.781 184.045 212.039 183.676 212.213 183.21C212.391 182.744 212.48 182.22 212.48 181.636C212.48 181.061 212.393 180.544 212.219 180.085C212.049 179.627 211.791 179.265 211.446 179C211.105 178.735 210.679 178.602 210.168 178.602C209.675 178.602 209.259 178.729 208.918 178.983C208.581 179.237 208.325 179.591 208.151 180.045C207.977 180.5 207.889 181.03 207.889 181.636ZM217.041 189.273C216.787 189.273 216.556 189.252 216.348 189.21C216.139 189.172 215.984 189.131 215.882 189.085L216.291 187.693C216.602 187.777 216.878 187.813 217.12 187.801C217.363 187.79 217.577 187.699 217.762 187.528C217.952 187.358 218.119 187.08 218.262 186.693L218.473 186.114L215.28 177.273H217.098L219.308 184.045H219.399L221.609 177.273H223.433L219.836 187.165C219.67 187.619 219.458 188.004 219.2 188.318C218.942 188.636 218.636 188.875 218.28 189.034C217.923 189.193 217.511 189.273 217.041 189.273ZM233.658 177.273V178.636H228.891V177.273H233.658ZM230.169 175.182H231.868V183.438C231.868 183.767 231.917 184.015 232.016 184.182C232.114 184.345 232.241 184.456 232.396 184.517C232.556 184.574 232.728 184.602 232.913 184.602C233.05 184.602 233.169 184.593 233.271 184.574C233.374 184.555 233.453 184.54 233.51 184.528L233.817 185.932C233.718 185.97 233.578 186.008 233.396 186.045C233.215 186.087 232.987 186.11 232.715 186.114C232.268 186.121 231.851 186.042 231.465 185.875C231.078 185.708 230.766 185.451 230.527 185.102C230.288 184.754 230.169 184.316 230.169 183.79V175.182ZM239.365 186.176C238.505 186.176 237.764 185.992 237.143 185.625C236.526 185.254 236.048 184.733 235.711 184.062C235.378 183.388 235.211 182.598 235.211 181.693C235.211 180.799 235.378 180.011 235.711 179.33C236.048 178.648 236.518 178.116 237.12 177.733C237.726 177.35 238.435 177.159 239.245 177.159C239.738 177.159 240.215 177.241 240.677 177.403C241.139 177.566 241.554 177.822 241.921 178.17C242.289 178.519 242.579 178.972 242.791 179.528C243.003 180.081 243.109 180.754 243.109 181.545V182.148H236.171V180.875H241.444C241.444 180.428 241.353 180.032 241.171 179.688C240.99 179.339 240.734 179.064 240.404 178.864C240.079 178.663 239.696 178.562 239.257 178.562C238.779 178.562 238.363 178.68 238.007 178.915C237.654 179.146 237.382 179.449 237.189 179.824C236.999 180.195 236.904 180.598 236.904 181.034V182.028C236.904 182.612 237.007 183.108 237.211 183.517C237.42 183.926 237.709 184.239 238.081 184.455C238.452 184.667 238.885 184.773 239.382 184.773C239.704 184.773 239.997 184.727 240.262 184.636C240.528 184.542 240.757 184.402 240.95 184.216C241.143 184.03 241.291 183.801 241.393 183.528L243.001 183.818C242.872 184.292 242.641 184.706 242.308 185.062C241.978 185.415 241.564 185.689 241.064 185.886C240.567 186.08 240.001 186.176 239.365 186.176ZM245.154 186V177.273H246.796V178.659H246.887C247.046 178.189 247.326 177.82 247.728 177.551C248.133 177.278 248.591 177.142 249.103 177.142C249.209 177.142 249.334 177.146 249.478 177.153C249.626 177.161 249.741 177.17 249.824 177.182V178.807C249.756 178.788 249.635 178.767 249.461 178.744C249.286 178.718 249.112 178.705 248.938 178.705C248.536 178.705 248.179 178.79 247.864 178.96C247.554 179.127 247.307 179.36 247.126 179.659C246.944 179.955 246.853 180.292 246.853 180.67V186H245.154ZM251.455 186V177.273H253.085V178.693H253.193C253.375 178.212 253.672 177.837 254.085 177.568C254.498 177.295 254.992 177.159 255.568 177.159C256.152 177.159 256.64 177.295 257.034 177.568C257.432 177.841 257.725 178.216 257.915 178.693H258.006C258.214 178.227 258.545 177.856 259 177.58C259.455 177.299 259.996 177.159 260.625 177.159C261.417 177.159 262.062 177.407 262.562 177.903C263.066 178.4 263.318 179.148 263.318 180.148V186H261.619V180.307C261.619 179.716 261.458 179.288 261.136 179.023C260.814 178.758 260.43 178.625 259.983 178.625C259.43 178.625 259 178.795 258.693 179.136C258.386 179.473 258.233 179.907 258.233 180.438V186H256.54V180.199C256.54 179.725 256.392 179.345 256.097 179.057C255.801 178.769 255.417 178.625 254.943 178.625C254.621 178.625 254.324 178.71 254.051 178.881C253.782 179.047 253.564 179.28 253.398 179.58C253.235 179.879 253.153 180.225 253.153 180.619V186H251.455ZM265.755 186V177.273H267.454V186H265.755ZM266.613 175.926C266.318 175.926 266.064 175.828 265.852 175.631C265.643 175.43 265.539 175.191 265.539 174.915C265.539 174.634 265.643 174.396 265.852 174.199C266.064 173.998 266.318 173.898 266.613 173.898C266.909 173.898 267.16 173.998 267.369 174.199C267.581 174.396 267.687 174.634 267.687 174.915C267.687 175.191 267.581 175.43 267.369 175.631C267.16 175.828 266.909 175.926 266.613 175.926ZM271.598 180.818V186H269.9V177.273H271.53V178.693H271.638C271.839 178.231 272.153 177.86 272.581 177.58C273.013 177.299 273.557 177.159 274.212 177.159C274.807 177.159 275.328 177.284 275.775 177.534C276.222 177.78 276.568 178.148 276.814 178.636C277.061 179.125 277.184 179.729 277.184 180.449V186H275.485V180.653C275.485 180.021 275.32 179.527 274.99 179.17C274.661 178.811 274.208 178.631 273.633 178.631C273.239 178.631 272.888 178.716 272.581 178.886C272.278 179.057 272.038 179.307 271.86 179.636C271.686 179.962 271.598 180.356 271.598 180.818ZM282.162 186.193C281.609 186.193 281.109 186.091 280.662 185.886C280.215 185.678 279.861 185.377 279.599 184.983C279.342 184.589 279.213 184.106 279.213 183.534C279.213 183.042 279.308 182.636 279.497 182.318C279.686 182 279.942 181.748 280.264 181.562C280.586 181.377 280.946 181.237 281.344 181.142C281.741 181.047 282.147 180.975 282.56 180.926C283.082 180.866 283.507 180.816 283.832 180.778C284.158 180.737 284.395 180.67 284.542 180.58C284.69 180.489 284.764 180.341 284.764 180.136V180.097C284.764 179.6 284.624 179.216 284.344 178.943C284.067 178.67 283.654 178.534 283.105 178.534C282.533 178.534 282.082 178.661 281.753 178.915C281.427 179.165 281.202 179.443 281.077 179.75L279.48 179.386C279.669 178.856 279.946 178.428 280.31 178.102C280.677 177.773 281.099 177.534 281.577 177.386C282.054 177.235 282.556 177.159 283.082 177.159C283.431 177.159 283.8 177.201 284.19 177.284C284.584 177.364 284.952 177.511 285.292 177.727C285.637 177.943 285.919 178.252 286.139 178.653C286.359 179.051 286.469 179.568 286.469 180.205V186H284.81V184.807H284.741C284.632 185.027 284.467 185.242 284.247 185.455C284.027 185.667 283.745 185.843 283.4 185.983C283.056 186.123 282.643 186.193 282.162 186.193ZM282.531 184.83C283.001 184.83 283.402 184.737 283.736 184.551C284.073 184.366 284.328 184.123 284.503 183.824C284.681 183.521 284.77 183.197 284.77 182.852V181.727C284.709 181.788 284.592 181.845 284.417 181.898C284.247 181.947 284.052 181.991 283.832 182.028C283.613 182.062 283.399 182.095 283.19 182.125C282.982 182.152 282.808 182.174 282.667 182.193C282.338 182.235 282.037 182.305 281.764 182.403C281.495 182.502 281.279 182.644 281.116 182.83C280.957 183.011 280.878 183.254 280.878 183.557C280.878 183.977 281.033 184.295 281.344 184.511C281.654 184.723 282.05 184.83 282.531 184.83ZM290.59 174.364V186H288.891V174.364H290.59Z" fill="black"/>
</svg>
